<?xml version="1.0" encoding="utf-8" standalone="no"?>
<!DOCTYPE svg PUBLIC "-//W3C//DTD SVG 1.1//EN"
  "http://www.w3.org/Graphics/SVG/1.1/DTD/svg11.dtd">
<!-- Created with matplotlib (http://matplotlib.org/) -->
<svg height="432pt" version="1.1" viewBox="0 0 576 432" width="576pt" xmlns="http://www.w3.org/2000/svg" xmlns:xlink="http://www.w3.org/1999/xlink">
 <defs>
  <style type="text/css">
*{stroke-linecap:butt;stroke-linejoin:round;stroke-miterlimit:100000;}
  </style>
 </defs>
 <g id="figure_1">
  <g id="patch_1">
   <path d="M 0 432 
L 576 432 
L 576 0 
L 0 0 
L 0 432 
z
" style="fill:none;"/>
  </g>
  <g id="axes_1">
   <g id="line2d_1">
    <path clip-path="url(#pe5e61d39fd)" d="M 262.008 366.623796 
L 259.907636 363.885498 
L 257.807273 361.156475 
L 255.706909 358.437222 
L 253.606545 355.728269 
L 251.506182 353.030182 
L 249.405818 350.343566 
L 247.305455 347.669071 
L 245.205091 345.007393 
L 243.104727 342.359277 
L 241.004364 339.725525 
L 238.904 337.106996 
L 236.803636 334.504616 
L 234.703273 331.91938 
L 232.602909 329.352357 
L 230.502545 326.804703 
L 228.402182 324.27766 
L 226.301818 321.772567 
L 224.201455 319.290872 
L 222.101091 316.834134 
L 220.000727 314.404038 
L 217.900364 312.002403 
L 215.8 309.63119 
L 213.699636 307.292522 
L 211.599273 304.988685 
L 209.498909 302.722147 
L 207.398545 300.495571 
L 205.298182 298.311823 
L 203.197818 296.173987 
L 201.097455 294.085375 
L 198.997091 292.049539 
L 196.896727 290.070276 
L 194.796364 288.151636 
L 192.696 286.297922 
L 190.595636 284.513685 
L 188.495273 282.803718 
L 186.394909 281.173035 
L 184.294545 279.626847 
L 182.194182 278.170526 
L 180.093818 276.809553 
L 177.993455 275.549463 
L 175.893091 274.395767 
L 173.792727 273.353867 
L 171.692364 272.428962 
L 169.592 271.625937 
L 167.491636 270.949259 
L 165.391273 270.402861 
L 163.290909 269.990039 
L 161.190545 269.713356 
L 159.090182 269.574569 
L 156.989818 269.574569 
L 154.889455 269.713356 
L 152.789091 269.990039 
L 150.688727 270.402861 
L 148.588364 270.949259 
L 146.488 271.625937 
L 144.387636 272.428962 
L 142.287273 273.353867 
L 140.186909 274.395767 
L 138.086545 275.549463 
L 135.986182 276.809553 
L 133.885818 278.170526 
L 131.785455 279.626847 
L 129.685091 281.173035 
L 127.584727 282.803718 
L 125.484364 284.513685 
L 123.384 286.297922 
L 121.283636 288.151636 
L 119.183273 290.070276 
L 117.082909 292.049539 
L 114.982545 294.085375 
L 112.882182 296.173987 
L 110.781818 298.311823 
L 108.681455 300.495571 
L 106.581091 302.722147 
L 104.480727 304.988685 
L 102.380364 307.292522 
L 100.28 309.63119 
L 98.179636 312.002403 
L 96.079273 314.404038 
L 93.978909 316.834134 
L 91.878545 319.290872 
L 89.778182 321.772567 
L 87.677818 324.27766 
L 85.577455 326.804703 
L 83.477091 329.352357 
L 81.376727 331.91938 
L 79.276364 334.504616 
L 77.176 337.106996 
L 75.075636 339.725525 
L 72.975273 342.359277 
L 70.874909 345.007393 
L 68.774545 347.669071 
L 66.674182 350.343566 
L 64.573818 353.030182 
L 62.473455 355.728269 
L 60.373091 358.437222 
L 58.272727 361.156475 
L 56.172364 363.885498 
L 54.072 366.623796 
" style="fill:none;stroke:#000000;stroke-linecap:square;"/>
   </g>
   <g id="line2d_2">
    <path clip-path="url(#pe5e61d39fd)" d="M 262.008 398.001973 
L 259.907636 395.42237 
L 257.807273 392.85656 
L 255.706909 390.305194 
L 253.606545 387.768957 
L 251.506182 385.248577 
L 249.405818 382.744823 
L 247.305455 380.258508 
L 245.205091 377.790493 
L 243.104727 375.341692 
L 241.004364 372.913069 
L 238.904 370.505649 
L 236.803636 368.120514 
L 234.703273 365.758813 
L 232.602909 363.421761 
L 230.502545 361.110643 
L 228.402182 358.826824 
L 226.301818 356.571743 
L 224.201455 354.346925 
L 222.101091 352.153981 
L 220.000727 349.994615 
L 217.900364 347.870622 
L 215.8 345.783897 
L 213.699636 343.736435 
L 211.599273 341.730334 
L 209.498909 339.7678 
L 207.398545 337.85114 
L 205.298182 335.982772 
L 203.197818 334.165216 
L 201.097455 332.401096 
L 198.997091 330.693136 
L 196.896727 329.044148 
L 194.796364 327.457033 
L 192.696 325.93476 
L 190.595636 324.480364 
L 188.495273 323.096918 
L 186.394909 321.787523 
L 184.294545 320.555283 
L 182.194182 319.403278 
L 180.093818 318.334536 
L 177.993455 317.352007 
L 175.893091 316.458525 
L 173.792727 315.656776 
L 171.692364 314.949263 
L 169.592 314.338273 
L 167.491636 313.825837 
L 165.391273 313.413705 
L 163.290909 313.103315 
L 161.190545 312.895766 
L 159.090182 312.791804 
L 156.989818 312.791804 
L 154.889455 312.895766 
L 152.789091 313.103315 
L 150.688727 313.413705 
L 148.588364 313.825837 
L 146.488 314.338273 
L 144.387636 314.949263 
L 142.287273 315.656776 
L 140.186909 316.458525 
L 138.086545 317.352007 
L 135.986182 318.334536 
L 133.885818 319.403278 
L 131.785455 320.555283 
L 129.685091 321.787523 
L 127.584727 323.096918 
L 125.484364 324.480364 
L 123.384 325.93476 
L 121.283636 327.457033 
L 119.183273 329.044148 
L 117.082909 330.693136 
L 114.982545 332.401096 
L 112.882182 334.165216 
L 110.781818 335.982772 
L 108.681455 337.85114 
L 106.581091 339.7678 
L 104.480727 341.730334 
L 102.380364 343.736435 
L 100.28 345.783897 
L 98.179636 347.870622 
L 96.079273 349.994615 
L 93.978909 352.153981 
L 91.878545 354.346925 
L 89.778182 356.571743 
L 87.677818 358.826824 
L 85.577455 361.110643 
L 83.477091 363.421761 
L 81.376727 365.758813 
L 79.276364 368.120514 
L 77.176 370.505649 
L 75.075636 372.913069 
L 72.975273 375.341692 
L 70.874909 377.790493 
L 68.774545 380.258508 
L 66.674182 382.744823 
L 64.573818 385.248577 
L 62.473455 387.768957 
L 60.373091 390.305194 
L 58.272727 392.85656 
L 56.172364 395.42237 
L 54.072 398.001973 
" style="fill:none;stroke:#000000;stroke-linecap:square;"/>
   </g>
   <g id="line2d_3">
    <path clip-path="url(#pe5e61d39fd)" d="M 313.992 398.001973 
L 316.092364 395.42237 
L 318.192727 392.85656 
L 320.293091 390.305194 
L 322.393455 387.768957 
L 324.493818 385.248577 
L 326.594182 382.744823 
L 328.694545 380.258508 
L 330.794909 377.790493 
L 332.895273 375.341692 
L 334.995636 372.913069 
L 337.096 370.505649 
L 339.196364 368.120514 
L 341.296727 365.758813 
L 343.397091 363.421761 
L 345.497455 361.110643 
L 347.597818 358.826824 
L 349.698182 356.571743 
L 351.798545 354.346925 
L 353.898909 352.153981 
L 355.999273 349.994615 
L 358.099636 347.870622 
L 360.2 345.783897 
L 362.300364 343.736435 
L 364.400727 341.730334 
L 366.501091 339.7678 
L 368.601455 337.85114 
L 370.701818 335.982772 
L 372.802182 334.165216 
L 374.902545 332.401096 
L 377.002909 330.693136 
L 379.103273 329.044148 
L 381.203636 327.457033 
L 383.304 325.93476 
L 385.404364 324.480364 
L 387.504727 323.096918 
L 389.605091 321.787523 
L 391.705455 320.555283 
L 393.805818 319.403278 
L 395.906182 318.334536 
L 398.006545 317.352007 
L 400.106909 316.458525 
L 402.207273 315.656776 
L 404.307636 314.949263 
L 406.408 314.338273 
L 408.508364 313.825837 
L 410.608727 313.413705 
L 412.709091 313.103315 
L 414.809455 312.895766 
L 416.909818 312.791804 
L 419.010182 312.791804 
L 421.110545 312.895766 
L 423.210909 313.103315 
L 425.311273 313.413705 
L 427.411636 313.825837 
L 429.512 314.338273 
L 431.612364 314.949263 
L 433.712727 315.656776 
L 435.813091 316.458525 
L 437.913455 317.352007 
L 440.013818 318.334536 
L 442.114182 319.403278 
L 444.214545 320.555283 
L 446.314909 321.787523 
L 448.415273 323.096918 
L 450.515636 324.480364 
L 452.616 325.93476 
L 454.716364 327.457033 
L 456.816727 329.044148 
L 458.917091 330.693136 
L 461.017455 332.401096 
L 463.117818 334.165216 
L 465.218182 335.982772 
L 467.318545 337.85114 
L 469.418909 339.7678 
L 471.519273 341.730334 
L 473.619636 343.736435 
L 475.72 345.783897 
L 477.820364 347.870622 
L 479.920727 349.994615 
L 482.021091 352.153981 
L 484.121455 354.346925 
L 486.221818 356.571743 
L 488.322182 358.826824 
L 490.422545 361.110643 
L 492.522909 363.421761 
L 494.623273 365.758813 
L 496.723636 368.120514 
L 498.824 370.505649 
L 500.924364 372.913069 
L 503.024727 375.341692 
L 505.125091 377.790493 
L 507.225455 380.258508 
L 509.325818 382.744823 
L 511.426182 385.248577 
L 513.526545 387.768957 
L 515.626909 390.305194 
L 517.727273 392.85656 
L 519.827636 395.42237 
L 521.928 398.001973 
" style="fill:none;stroke:#000000;stroke-linecap:square;"/>
   </g>
   <g id="line2d_4">
    <path clip-path="url(#pe5e61d39fd)" d="M 313.992 366.623796 
L 316.092364 363.885498 
L 318.192727 361.156475 
L 320.293091 358.437222 
L 322.393455 355.728269 
L 324.493818 353.030182 
L 326.594182 350.343566 
L 328.694545 347.669071 
L 330.794909 345.007393 
L 332.895273 342.359277 
L 334.995636 339.725525 
L 337.096 337.106996 
L 339.196364 334.504616 
L 341.296727 331.91938 
L 343.397091 329.352357 
L 345.497455 326.804703 
L 347.597818 324.27766 
L 349.698182 321.772567 
L 351.798545 319.290872 
L 353.898909 316.834134 
L 355.999273 314.404038 
L 358.099636 312.002403 
L 360.2 309.63119 
L 362.300364 307.292522 
L 364.400727 304.988685 
L 366.501091 302.722147 
L 368.601455 300.495571 
L 370.701818 298.311823 
L 372.802182 296.173987 
L 374.902545 294.085375 
L 377.002909 292.049539 
L 379.103273 290.070276 
L 381.203636 288.151636 
L 383.304 286.297922 
L 385.404364 284.513685 
L 387.504727 282.803718 
L 389.605091 281.173035 
L 391.705455 279.626847 
L 393.805818 278.170526 
L 395.906182 276.809553 
L 398.006545 275.549463 
L 400.106909 274.395767 
L 402.207273 273.353867 
L 404.307636 272.428962 
L 406.408 271.625937 
L 408.508364 270.949259 
L 410.608727 270.402861 
L 412.709091 269.990039 
L 414.809455 269.713356 
L 416.909818 269.574569 
L 419.010182 269.574569 
L 421.110545 269.713356 
L 423.210909 269.990039 
L 425.311273 270.402861 
L 427.411636 270.949259 
L 429.512 271.625937 
L 431.612364 272.428962 
L 433.712727 273.353867 
L 435.813091 274.395767 
L 437.913455 275.549463 
L 440.013818 276.809553 
L 442.114182 278.170526 
L 444.214545 279.626847 
L 446.314909 281.173035 
L 448.415273 282.803718 
L 450.515636 284.513685 
L 452.616 286.297922 
L 454.716364 288.151636 
L 456.816727 290.070276 
L 458.917091 292.049539 
L 461.017455 294.085375 
L 463.117818 296.173987 
L 465.218182 298.311823 
L 467.318545 300.495571 
L 469.418909 302.722147 
L 471.519273 304.988685 
L 473.619636 307.292522 
L 475.72 309.63119 
L 477.820364 312.002403 
L 479.920727 314.404038 
L 482.021091 316.834134 
L 484.121455 319.290872 
L 486.221818 321.772567 
L 488.322182 324.27766 
L 490.422545 326.804703 
L 492.522909 329.352357 
L 494.623273 331.91938 
L 496.723636 334.504616 
L 498.824 337.106996 
L 500.924364 339.725525 
L 503.024727 342.359277 
L 505.125091 345.007393 
L 507.225455 347.669071 
L 509.325818 350.343566 
L 511.426182 353.030182 
L 513.526545 355.728269 
L 515.626909 358.437222 
L 517.727273 361.156475 
L 519.827636 363.885498 
L 521.928 366.623796 
" style="fill:none;stroke:#000000;stroke-linecap:square;"/>
   </g>
   <g id="line2d_5">
    <path clip-path="url(#pe5e61d39fd)" d="M 262.008 43.765404 
L 259.907636 46.503702 
L 257.807273 49.232725 
L 255.706909 51.951978 
L 253.606545 54.660931 
L 251.506182 57.359018 
L 249.405818 60.045634 
L 247.305455 62.720129 
L 245.205091 65.381807 
L 243.104727 68.029923 
L 241.004364 70.663675 
L 238.904 73.282204 
L 236.803636 75.884584 
L 234.703273 78.46982 
L 232.602909 81.036843 
L 230.502545 83.584497 
L 228.402182 86.11154 
L 226.301818 88.616633 
L 224.201455 91.098328 
L 222.101091 93.555066 
L 220.000727 95.985162 
L 217.900364 98.386797 
L 215.8 100.75801 
L 213.699636 103.096678 
L 211.599273 105.400515 
L 209.498909 107.667053 
L 207.398545 109.893629 
L 205.298182 112.077377 
L 203.197818 114.215213 
L 201.097455 116.303825 
L 198.997091 118.339661 
L 196.896727 120.318924 
L 194.796364 122.237564 
L 192.696 124.091278 
L 190.595636 125.875515 
L 188.495273 127.585482 
L 186.394909 129.216165 
L 184.294545 130.762353 
L 182.194182 132.218674 
L 180.093818 133.579647 
L 177.993455 134.839737 
L 175.893091 135.993433 
L 173.792727 137.035333 
L 171.692364 137.960238 
L 169.592 138.763263 
L 167.491636 139.439941 
L 165.391273 139.986339 
L 163.290909 140.399161 
L 161.190545 140.675844 
L 159.090182 140.814631 
L 156.989818 140.814631 
L 154.889455 140.675844 
L 152.789091 140.399161 
L 150.688727 139.986339 
L 148.588364 139.439941 
L 146.488 138.763263 
L 144.387636 137.960238 
L 142.287273 137.035333 
L 140.186909 135.993433 
L 138.086545 134.839737 
L 135.986182 133.579647 
L 133.885818 132.218674 
L 131.785455 130.762353 
L 129.685091 129.216165 
L 127.584727 127.585482 
L 125.484364 125.875515 
L 123.384 124.091278 
L 121.283636 122.237564 
L 119.183273 120.318924 
L 117.082909 118.339661 
L 114.982545 116.303825 
L 112.882182 114.215213 
L 110.781818 112.077377 
L 108.681455 109.893629 
L 106.581091 107.667053 
L 104.480727 105.400515 
L 102.380364 103.096678 
L 100.28 100.75801 
L 98.179636 98.386797 
L 96.079273 95.985162 
L 93.978909 93.555066 
L 91.878545 91.098328 
L 89.778182 88.616633 
L 87.677818 86.11154 
L 85.577455 83.584497 
L 83.477091 81.036843 
L 81.376727 78.46982 
L 79.276364 75.884584 
L 77.176 73.282204 
L 75.075636 70.663675 
L 72.975273 68.029923 
L 70.874909 65.381807 
L 68.774545 62.720129 
L 66.674182 60.045634 
L 64.573818 57.359018 
L 62.473455 54.660931 
L 60.373091 51.951978 
L 58.272727 49.232725 
L 56.172364 46.503702 
L 54.072 43.765404 
" style="fill:none;stroke:#000000;stroke-linecap:square;"/>
   </g>
   <g id="line2d_6">
    <path clip-path="url(#pe5e61d39fd)" d="M 262.008 55.608827 
L 259.907636 58.18843 
L 257.807273 60.75424 
L 255.706909 63.305606 
L 253.606545 65.841843 
L 251.506182 68.362223 
L 249.405818 70.865977 
L 247.305455 73.352292 
L 245.205091 75.820307 
L 243.104727 78.269108 
L 241.004364 80.697731 
L 238.904 83.105151 
L 236.803636 85.490286 
L 234.703273 87.851987 
L 232.602909 90.189039 
L 230.502545 92.500157 
L 228.402182 94.783976 
L 226.301818 97.039057 
L 224.201455 99.263875 
L 222.101091 101.456819 
L 220.000727 103.616185 
L 217.900364 105.740178 
L 215.8 107.826903 
L 213.699636 109.874365 
L 211.599273 111.880466 
L 209.498909 113.843 
L 207.398545 115.75966 
L 205.298182 117.628028 
L 203.197818 119.445584 
L 201.097455 121.209704 
L 198.997091 122.917664 
L 196.896727 124.566652 
L 194.796364 126.153767 
L 192.696 127.67604 
L 190.595636 129.130436 
L 188.495273 130.513882 
L 186.394909 131.823277 
L 184.294545 133.055517 
L 182.194182 134.207522 
L 180.093818 135.276264 
L 177.993455 136.258793 
L 175.893091 137.152275 
L 173.792727 137.954024 
L 171.692364 138.661537 
L 169.592 139.272527 
L 167.491636 139.784963 
L 165.391273 140.197095 
L 163.290909 140.507485 
L 161.190545 140.715034 
L 159.090182 140.818996 
L 156.989818 140.818996 
L 154.889455 140.715034 
L 152.789091 140.507485 
L 150.688727 140.197095 
L 148.588364 139.784963 
L 146.488 139.272527 
L 144.387636 138.661537 
L 142.287273 137.954024 
L 140.186909 137.152275 
L 138.086545 136.258793 
L 135.986182 135.276264 
L 133.885818 134.207522 
L 131.785455 133.055517 
L 129.685091 131.823277 
L 127.584727 130.513882 
L 125.484364 129.130436 
L 123.384 127.67604 
L 121.283636 126.153767 
L 119.183273 124.566652 
L 117.082909 122.917664 
L 114.982545 121.209704 
L 112.882182 119.445584 
L 110.781818 117.628028 
L 108.681455 115.75966 
L 106.581091 113.843 
L 104.480727 111.880466 
L 102.380364 109.874365 
L 100.28 107.826903 
L 98.179636 105.740178 
L 96.079273 103.616185 
L 93.978909 101.456819 
L 91.878545 99.263875 
L 89.778182 97.039057 
L 87.677818 94.783976 
L 85.577455 92.500157 
L 83.477091 90.189039 
L 81.376727 87.851987 
L 79.276364 85.490286 
L 77.176 83.105151 
L 75.075636 80.697731 
L 72.975273 78.269108 
L 70.874909 75.820307 
L 68.774545 73.352292 
L 66.674182 70.865977 
L 64.573818 68.362223 
L 62.473455 65.841843 
L 60.373091 63.305606 
L 58.272727 60.75424 
L 56.172364 58.18843 
L 54.072 55.608827 
" style="fill:none;stroke:#000000;stroke-linecap:square;"/>
   </g>
   <g id="line2d_7">
    <path clip-path="url(#pe5e61d39fd)" d="M 313.992 55.608827 
L 316.092364 58.18843 
L 318.192727 60.75424 
L 320.293091 63.305606 
L 322.393455 65.841843 
L 324.493818 68.362223 
L 326.594182 70.865977 
L 328.694545 73.352292 
L 330.794909 75.820307 
L 332.895273 78.269108 
L 334.995636 80.697731 
L 337.096 83.105151 
L 339.196364 85.490286 
L 341.296727 87.851987 
L 343.397091 90.189039 
L 345.497455 92.500157 
L 347.597818 94.783976 
L 349.698182 97.039057 
L 351.798545 99.263875 
L 353.898909 101.456819 
L 355.999273 103.616185 
L 358.099636 105.740178 
L 360.2 107.826903 
L 362.300364 109.874365 
L 364.400727 111.880466 
L 366.501091 113.843 
L 368.601455 115.75966 
L 370.701818 117.628028 
L 372.802182 119.445584 
L 374.902545 121.209704 
L 377.002909 122.917664 
L 379.103273 124.566652 
L 381.203636 126.153767 
L 383.304 127.67604 
L 385.404364 129.130436 
L 387.504727 130.513882 
L 389.605091 131.823277 
L 391.705455 133.055517 
L 393.805818 134.207522 
L 395.906182 135.276264 
L 398.006545 136.258793 
L 400.106909 137.152275 
L 402.207273 137.954024 
L 404.307636 138.661537 
L 406.408 139.272527 
L 408.508364 139.784963 
L 410.608727 140.197095 
L 412.709091 140.507485 
L 414.809455 140.715034 
L 416.909818 140.818996 
L 419.010182 140.818996 
L 421.110545 140.715034 
L 423.210909 140.507485 
L 425.311273 140.197095 
L 427.411636 139.784963 
L 429.512 139.272527 
L 431.612364 138.661537 
L 433.712727 137.954024 
L 435.813091 137.152275 
L 437.913455 136.258793 
L 440.013818 135.276264 
L 442.114182 134.207522 
L 444.214545 133.055517 
L 446.314909 131.823277 
L 448.415273 130.513882 
L 450.515636 129.130436 
L 452.616 127.67604 
L 454.716364 126.153767 
L 456.816727 124.566652 
L 458.917091 122.917664 
L 461.017455 121.209704 
L 463.117818 119.445584 
L 465.218182 117.628028 
L 467.318545 115.75966 
L 469.418909 113.843 
L 471.519273 111.880466 
L 473.619636 109.874365 
L 475.72 107.826903 
L 477.820364 105.740178 
L 479.920727 103.616185 
L 482.021091 101.456819 
L 484.121455 99.263875 
L 486.221818 97.039057 
L 488.322182 94.783976 
L 490.422545 92.500157 
L 492.522909 90.189039 
L 494.623273 87.851987 
L 496.723636 85.490286 
L 498.824 83.105151 
L 500.924364 80.697731 
L 503.024727 78.269108 
L 505.125091 75.820307 
L 507.225455 73.352292 
L 509.325818 70.865977 
L 511.426182 68.362223 
L 513.526545 65.841843 
L 515.626909 63.305606 
L 517.727273 60.75424 
L 519.827636 58.18843 
L 521.928 55.608827 
" style="fill:none;stroke:#000000;stroke-linecap:square;"/>
   </g>
   <g id="line2d_8">
    <path clip-path="url(#pe5e61d39fd)" d="M 313.992 43.765404 
L 316.092364 46.503702 
L 318.192727 49.232725 
L 320.293091 51.951978 
L 322.393455 54.660931 
L 324.493818 57.359018 
L 326.594182 60.045634 
L 328.694545 62.720129 
L 330.794909 65.381807 
L 332.895273 68.029923 
L 334.995636 70.663675 
L 337.096 73.282204 
L 339.196364 75.884584 
L 341.296727 78.46982 
L 343.397091 81.036843 
L 345.497455 83.584497 
L 347.597818 86.11154 
L 349.698182 88.616633 
L 351.798545 91.098328 
L 353.898909 93.555066 
L 355.999273 95.985162 
L 358.099636 98.386797 
L 360.2 100.75801 
L 362.300364 103.096678 
L 364.400727 105.400515 
L 366.501091 107.667053 
L 368.601455 109.893629 
L 370.701818 112.077377 
L 372.802182 114.215213 
L 374.902545 116.303825 
L 377.002909 118.339661 
L 379.103273 120.318924 
L 381.203636 122.237564 
L 383.304 124.091278 
L 385.404364 125.875515 
L 387.504727 127.585482 
L 389.605091 129.216165 
L 391.705455 130.762353 
L 393.805818 132.218674 
L 395.906182 133.579647 
L 398.006545 134.839737 
L 400.106909 135.993433 
L 402.207273 137.035333 
L 404.307636 137.960238 
L 406.408 138.763263 
L 408.508364 139.439941 
L 410.608727 139.986339 
L 412.709091 140.399161 
L 414.809455 140.675844 
L 416.909818 140.814631 
L 419.010182 140.814631 
L 421.110545 140.675844 
L 423.210909 140.399161 
L 425.311273 139.986339 
L 427.411636 139.439941 
L 429.512 138.763263 
L 431.612364 137.960238 
L 433.712727 137.035333 
L 435.813091 135.993433 
L 437.913455 134.839737 
L 440.013818 133.579647 
L 442.114182 132.218674 
L 444.214545 130.762353 
L 446.314909 129.216165 
L 448.415273 127.585482 
L 450.515636 125.875515 
L 452.616 124.091278 
L 454.716364 122.237564 
L 456.816727 120.318924 
L 458.917091 118.339661 
L 461.017455 116.303825 
L 463.117818 114.215213 
L 465.218182 112.077377 
L 467.318545 109.893629 
L 469.418909 107.667053 
L 471.519273 105.400515 
L 473.619636 103.096678 
L 475.72 100.75801 
L 477.820364 98.386797 
L 479.920727 95.985162 
L 482.021091 93.555066 
L 484.121455 91.098328 
L 486.221818 88.616633 
L 488.322182 86.11154 
L 490.422545 83.584497 
L 492.522909 81.036843 
L 494.623273 78.46982 
L 496.723636 75.884584 
L 498.824 73.282204 
L 500.924364 70.663675 
L 503.024727 68.029923 
L 505.125091 65.381807 
L 507.225455 62.720129 
L 509.325818 60.045634 
L 511.426182 57.359018 
L 513.526545 54.660931 
L 515.626909 51.951978 
L 517.727273 49.232725 
L 519.827636 46.503702 
L 521.928 43.765404 
" style="fill:none;stroke:#000000;stroke-linecap:square;"/>
   </g>
   <g id="line2d_9">
    <path clip-path="url(#pe5e61d39fd)" d="M 28.08 291.168 
L 547.92 291.168 
" style="fill:none;stroke:#000000;stroke-dasharray:6.000000,6.000000;stroke-dashoffset:0.0;"/>
   </g>
   <g id="line2d_10">
    <path clip-path="url(#pe5e61d39fd)" d="M 28.08 216 
L 547.92 216 
" style="fill:none;stroke:#808080;stroke-linecap:square;stroke-width:0.5;"/>
   </g>
   <g id="line2d_11">
    <path clip-path="url(#pe5e61d39fd)" d="M 288 403.92 
L 288 28.08 
" style="fill:none;stroke:#808080;stroke-linecap:square;stroke-width:0.5;"/>
   </g>
   <g id="line2d_12">
    <path clip-path="url(#pe5e61d39fd)" d="M 358.1784 303.285143 
L 217.8216 303.285143 
" style="fill:none;stroke:#000000;stroke-dasharray:6.000000,6.000000;stroke-dashoffset:0.0;stroke-width:3.0;"/>
   </g>
   <g id="line2d_13">
    <path clip-path="url(#pe5e61d39fd)" d="M 210.024 303.285143 
" style="fill:none;stroke:#000000;stroke-linecap:square;"/>
    <defs>
     <path d="M 0 5 
C 1.326016 5 2.597899 4.473168 3.535534 3.535534 
C 4.473168 2.597899 5 1.326016 5 0 
C 5 -1.326016 4.473168 -2.597899 3.535534 -3.535534 
C 2.597899 -4.473168 1.326016 -5 0 -5 
C -1.326016 -5 -2.597899 -4.473168 -3.535534 -3.535534 
C -4.473168 -2.597899 -5 -1.326016 -5 0 
C -5 1.326016 -4.473168 2.597899 -3.535534 3.535534 
C -2.597899 4.473168 -1.326016 5 0 5 
z
" id="m7fd242a878" style="stroke:#000000;stroke-width:0.5;"/>
    </defs>
    <g clip-path="url(#pe5e61d39fd)">
     <use style="stroke:#000000;stroke-width:0.5;" x="210.024" xlink:href="#m7fd242a878" y="303.28514273"/>
    </g>
   </g>
   <g id="line2d_14">
    <path clip-path="url(#pe5e61d39fd)" d="M 365.976 303.285143 
" style="fill:none;stroke:#000000;stroke-linecap:square;"/>
    <defs>
     <path d="M 0 5 
C 1.326016 5 2.597899 4.473168 3.535534 3.535534 
C 4.473168 2.597899 5 1.326016 5 0 
C 5 -1.326016 4.473168 -2.597899 3.535534 -3.535534 
C 2.597899 -4.473168 1.326016 -5 0 -5 
C -1.326016 -5 -2.597899 -4.473168 -3.535534 -3.535534 
C -4.473168 -2.597899 -5 -1.326016 -5 0 
C -5 1.326016 -4.473168 2.597899 -3.535534 3.535534 
C -2.597899 4.473168 -1.326016 5 0 5 
z
" id="m9d629a5857" style="stroke:#000000;stroke-width:2.0;"/>
    </defs>
    <g clip-path="url(#pe5e61d39fd)">
     <use style="fill:none;stroke:#000000;stroke-width:2.0;" x="365.976" xlink:href="#m9d629a5857" y="303.28514273"/>
    </g>
   </g>
   <g id="line2d_15">
    <path clip-path="url(#pe5e61d39fd)" d="M 365.976 293.889143 
L 365.976 116.500057 
" style="fill:none;stroke:#000000;stroke-dasharray:1.000000,3.000000;stroke-dashoffset:0.0;stroke-width:3.0;"/>
   </g>
   <g id="line2d_16">
    <path clip-path="url(#pe5e61d39fd)" d="M 365.976 107.104057 
" style="fill:none;stroke:#000000;stroke-linecap:square;"/>
    <g clip-path="url(#pe5e61d39fd)">
     <use style="stroke:#000000;stroke-width:0.5;" x="365.976" xlink:href="#m7fd242a878" y="107.10405727"/>
    </g>
   </g>
   <g id="line2d_17">
    <path clip-path="url(#pe5e61d39fd)" d="M 371.1744 207.063873 
L 371.902905 206.693397 
L 372.558559 206.605963 
L 373.214213 206.754019 
L 373.869867 207.133854 
L 374.598371 207.815961 
L 375.472577 208.966239 
L 376.492483 210.699374 
L 377.876641 213.541033 
L 381.883416 222.080278 
L 382.976173 223.739722 
L 383.850378 224.685006 
L 384.578883 225.178838 
L 385.234537 225.380783 
L 385.890191 225.34757 
L 386.545845 225.080032 
L 387.27435 224.516292 
L 388.075705 223.59283 
L 389.02276 222.138645 
L 390.188368 219.918627 
L 392.082479 215.740011 
L 394.267993 211.040941 
L 395.4336 209.017411 
L 396.380656 207.772779 
L 397.182011 207.05298 
L 397.910515 206.688583 
L 398.566169 206.606754 
L 399.221823 206.760396 
L 399.877477 207.145656 
L 400.605982 207.833438 
L 401.480187 208.989799 
L 402.500094 210.728689 
L 403.884252 213.575272 
L 407.818177 221.98058 
L 408.910933 223.665269 
L 409.785139 224.634565 
L 410.513643 225.150171 
L 411.169297 225.372489 
L 411.824951 225.359858 
L 412.480605 225.112593 
L 413.20911 224.570402 
L 414.010465 223.668685 
L 414.957521 222.236483 
L 416.123128 220.036413 
L 417.944389 216.035457 
L 420.275604 211.010859 
L 421.441211 208.993735 
L 422.388267 207.755711 
L 423.189622 207.042214 
L 423.918126 206.683903 
L 424.57378 206.60768 
L 425.229434 206.766904 
L 425.885088 207.157584 
L 426.613593 207.851032 
L 427.487798 209.013458 
L 428.507705 210.758078 
L 429.891863 213.609546 
L 433.825787 222.007885 
L 434.918544 223.68572 
L 435.79275 224.648486 
L 436.521254 225.158163 
L 437.176908 225.374929 
L 437.832562 225.356684 
L 438.488216 225.103886 
L 439.216721 224.555807 
L 440.018076 223.648142 
L 440.965132 222.209917 
L 442.130739 220.004365 
L 443.952 216 
L 443.952 216 
" style="fill:none;stroke:#000000;stroke-linecap:square;"/>
   </g>
   <g id="text_1">
    <!-- $\mu$ -->
    <defs>
     <path d="M 2.78125 -18.796875 
Q 2.78125 -18.21875 2.875 -18.015625 
L 17.578125 41.015625 
Q 18.015625 42.4375 19.15625 43.3125 
Q 20.3125 44.1875 21.78125 44.1875 
Q 23.046875 44.1875 23.921875 43.421875 
Q 24.8125 42.671875 24.8125 41.40625 
Q 24.8125 41.109375 24.78125 40.9375 
Q 24.75 40.765625 24.703125 40.578125 
L 18.796875 17.1875 
Q 17.828125 13.03125 17.828125 10.015625 
Q 17.828125 6.296875 19.578125 3.90625 
Q 21.34375 1.515625 24.90625 1.515625 
Q 32.171875 1.515625 37.703125 10.59375 
Q 37.75 10.6875 37.765625 10.734375 
Q 37.796875 10.796875 37.796875 10.890625 
L 45.015625 39.890625 
Q 45.359375 41.21875 46.578125 42.15625 
Q 47.796875 43.109375 49.21875 43.109375 
Q 50.390625 43.109375 51.296875 42.328125 
Q 52.203125 41.546875 52.203125 40.28125 
Q 52.203125 39.703125 52.09375 39.5 
L 44.921875 10.6875 
Q 44.1875 7.859375 44.1875 5.8125 
Q 44.1875 1.515625 47.125 1.515625 
Q 50.25 1.515625 51.828125 5.375 
Q 53.421875 9.234375 54.59375 14.703125 
Q 54.78125 15.28125 55.421875 15.28125 
L 56.59375 15.28125 
Q 56.984375 15.28125 57.25 14.96875 
Q 57.515625 14.65625 57.515625 14.3125 
Q 55.765625 7.328125 53.6875 3.09375 
Q 51.609375 -1.125 46.921875 -1.125 
Q 43.609375 -1.125 41.046875 0.78125 
Q 38.484375 2.6875 37.703125 5.90625 
Q 35.203125 2.78125 31.859375 0.828125 
Q 28.515625 -1.125 24.8125 -1.125 
Q 18.5625 -1.125 14.984375 1.8125 
L 9.90625 -18.40625 
Q 9.625 -19.828125 8.453125 -20.703125 
Q 7.28125 -21.578125 5.8125 -21.578125 
Q 4.59375 -21.578125 3.6875 -20.8125 
Q 2.78125 -20.0625 2.78125 -18.796875 
" id="Cmmi10-b9"/>
    </defs>
    <g transform="translate(28.08 285.5304)scale(0.26 -0.26)">
     <use transform="translate(0.0 0.8125)" xlink:href="#Cmmi10-b9"/>
    </g>
   </g>
   <g id="text_2">
    <!-- $E(k)$ -->
    <defs>
     <path d="M 6.5 -25 
Q 5.609375 -25 5.609375 -24.125 
Q 5.609375 -23.6875 5.8125 -23.484375 
Q 22.90625 -6.78125 22.90625 25 
Q 22.90625 56.78125 6 73.296875 
Q 5.609375 73.53125 5.609375 74.125 
Q 5.609375 74.46875 5.875 74.734375 
Q 6.15625 75 6.5 75 
L 7.421875 75 
Q 7.71875 75 7.90625 74.8125 
Q 15.09375 69.140625 19.875 61.03125 
Q 24.65625 52.9375 26.875 43.75 
Q 29.109375 34.578125 29.109375 25 
Q 29.109375 17.921875 27.90625 11.0625 
Q 26.703125 4.203125 24.09375 -2.453125 
Q 21.484375 -9.125 17.484375 -14.765625 
Q 13.484375 -20.40625 7.90625 -24.8125 
Q 7.71875 -25 7.421875 -25 
z
" id="Cmr10-29"/>
     <path d="M 31 -24.8125 
Q 25.4375 -20.40625 21.40625 -14.71875 
Q 17.390625 -9.03125 14.8125 -2.578125 
Q 12.25 3.859375 10.984375 10.890625 
Q 9.71875 17.921875 9.71875 25 
Q 9.71875 32.171875 10.984375 39.203125 
Q 12.25 46.234375 14.859375 52.734375 
Q 17.484375 59.234375 21.53125 64.890625 
Q 25.59375 70.5625 31 74.8125 
Q 31 75 31.5 75 
L 32.421875 75 
Q 32.71875 75 32.953125 74.734375 
Q 33.203125 74.46875 33.203125 74.125 
Q 33.203125 73.6875 33.015625 73.484375 
Q 28.125 68.703125 24.875 63.234375 
Q 21.625 57.765625 19.640625 51.578125 
Q 17.671875 45.40625 16.796875 38.78125 
Q 15.921875 32.171875 15.921875 25 
Q 15.921875 -6.78125 32.90625 -23.296875 
Q 33.203125 -23.578125 33.203125 -24.125 
Q 33.203125 -24.359375 32.9375 -24.671875 
Q 32.671875 -25 32.421875 -25 
L 31.5 -25 
Q 31 -25 31 -24.8125 
" id="Cmr10-28"/>
     <path d="M 5.328125 1.8125 
Q 5.328125 2.390625 5.421875 2.6875 
L 19.921875 60.5 
Q 20.3125 62.203125 20.40625 63.1875 
Q 20.40625 64.796875 13.921875 64.796875 
Q 12.890625 64.796875 12.890625 66.109375 
Q 12.9375 66.359375 13.109375 66.984375 
Q 13.28125 67.625 13.546875 67.96875 
Q 13.8125 68.3125 14.3125 68.3125 
L 27.78125 69.390625 
L 28.078125 69.390625 
Q 28.078125 69.28125 28.421875 69.109375 
Q 28.765625 68.953125 28.8125 68.890625 
Q 29 68.40625 29 68.109375 
L 18.5 26.3125 
Q 22.125 27.828125 27.609375 33.515625 
Q 33.109375 39.203125 36.203125 41.6875 
Q 39.3125 44.1875 44 44.1875 
Q 46.78125 44.1875 48.734375 42.28125 
Q 50.6875 40.375 50.6875 37.59375 
Q 50.6875 35.84375 49.953125 34.34375 
Q 49.21875 32.859375 47.890625 31.921875 
Q 46.578125 31 44.828125 31 
Q 43.21875 31 42.109375 32 
Q 41.015625 33.015625 41.015625 34.625 
Q 41.015625 37.015625 42.703125 38.640625 
Q 44.390625 40.28125 46.78125 40.28125 
Q 45.796875 41.609375 43.796875 41.609375 
Q 40.828125 41.609375 38.0625 39.890625 
Q 35.296875 38.1875 32.09375 34.984375 
Q 28.90625 31.78125 26.265625 29.125 
Q 23.640625 26.46875 21.390625 25.09375 
Q 27.296875 24.421875 31.640625 22 
Q 35.984375 19.578125 35.984375 14.59375 
Q 35.984375 13.578125 35.59375 12.015625 
Q 34.71875 8.25 34.71875 6 
Q 34.71875 1.515625 37.796875 1.515625 
Q 41.40625 1.515625 43.28125 5.46875 
Q 45.171875 9.421875 46.390625 14.703125 
Q 46.578125 15.28125 47.21875 15.28125 
L 48.390625 15.28125 
Q 48.78125 15.28125 49.046875 15.03125 
Q 49.3125 14.796875 49.3125 14.40625 
Q 49.3125 14.3125 49.21875 14.109375 
Q 45.453125 -1.125 37.59375 -1.125 
Q 34.765625 -1.125 32.59375 0.1875 
Q 30.421875 1.515625 29.25 3.78125 
Q 28.078125 6.0625 28.078125 8.890625 
Q 28.078125 10.5 28.515625 12.203125 
Q 28.8125 13.375 28.8125 14.40625 
Q 28.8125 18.265625 25.390625 20.265625 
Q 21.96875 22.265625 17.578125 22.703125 
L 12.5 2.296875 
Q 12.109375 0.78125 10.984375 -0.171875 
Q 9.859375 -1.125 8.40625 -1.125 
Q 7.125 -1.125 6.21875 -0.265625 
Q 5.328125 0.59375 5.328125 1.8125 
" id="Cmmi10-6b"/>
     <path d="M 4.6875 0 
Q 3.71875 0 3.71875 1.3125 
Q 3.765625 1.5625 3.90625 2.171875 
Q 4.046875 2.78125 4.3125 3.140625 
Q 4.59375 3.515625 4.984375 3.515625 
Q 11.078125 3.515625 13.484375 4.203125 
Q 14.796875 4.640625 15.375 6.890625 
L 29.109375 61.8125 
Q 29.296875 62.796875 29.296875 63.1875 
Q 29.296875 64.265625 28.078125 64.40625 
Q 26.21875 64.796875 20.90625 64.796875 
Q 19.921875 64.796875 19.921875 66.109375 
Q 19.96875 66.359375 20.109375 66.96875 
Q 20.265625 67.578125 20.53125 67.9375 
Q 20.796875 68.3125 21.1875 68.3125 
L 75.390625 68.3125 
Q 76.421875 68.3125 76.421875 67 
L 74.03125 46.296875 
Q 74.03125 46.046875 73.65625 45.71875 
Q 73.296875 45.40625 73 45.40625 
L 72.125 45.40625 
Q 71.09375 45.40625 71.09375 46.6875 
Q 71.6875 51.5625 71.6875 53.90625 
Q 71.6875 57.90625 70.3125 60.125 
Q 68.953125 62.359375 66.671875 63.328125 
Q 64.40625 64.3125 61.640625 64.546875 
Q 58.890625 64.796875 54.390625 64.796875 
L 43.015625 64.796875 
Q 40.28125 64.796875 39.40625 64.328125 
Q 38.53125 63.875 37.796875 61.375 
L 31.78125 37.203125 
L 39.59375 37.203125 
Q 44.671875 37.203125 47.265625 37.90625 
Q 49.859375 38.625 51.359375 40.859375 
Q 52.875 43.109375 54.109375 48 
Q 54.203125 48.34375 54.46875 48.609375 
Q 54.734375 48.875 55.078125 48.875 
L 56 48.875 
Q 56.984375 48.875 56.984375 47.609375 
L 50.78125 22.90625 
Q 50.59375 22.015625 49.8125 22.015625 
L 48.875 22.015625 
Q 47.90625 22.015625 47.90625 23.296875 
Q 48.875 27.296875 48.875 29.203125 
Q 48.875 32.125 46.234375 32.90625 
Q 43.609375 33.6875 39.203125 33.6875 
L 30.90625 33.6875 
L 24.125 6.5 
Q 23.6875 5.28125 23.6875 4.296875 
Q 23.6875 3.515625 27.09375 3.515625 
L 39.203125 3.515625 
Q 46.4375 3.515625 50.921875 4.640625 
Q 55.421875 5.765625 58.375 8.21875 
Q 61.328125 10.6875 63.46875 14.5 
Q 65.625 18.3125 68.703125 25.59375 
Q 68.890625 26.21875 69.578125 26.21875 
L 70.515625 26.21875 
Q 70.90625 26.21875 71.1875 25.875 
Q 71.484375 25.53125 71.484375 25.09375 
Q 71.484375 24.90625 71.390625 24.703125 
L 61.078125 0.59375 
Q 60.890625 0 60.296875 0 
z
" id="Cmmi10-45"/>
    </defs>
    <g transform="translate(261.48 21.58)scale(0.26 -0.26)">
     <use xlink:href="#Cmmi10-45"/>
     <use transform="translate(73.779296875 0.0)" xlink:href="#Cmr10-28"/>
     <use transform="translate(112.59765625 0.0)" xlink:href="#Cmmi10-6b"/>
     <use transform="translate(164.599609375 0.0)" xlink:href="#Cmr10-29"/>
    </g>
   </g>
   <g id="text_3">
    <!-- $\downarrow$ -->
    <defs>
     <path d="M 23.875 -18.5 
Q 23.046875 -12.703125 20.109375 -7.9375 
Q 17.1875 -3.171875 12.59375 0.125 
Q 8.015625 3.421875 2.390625 4.6875 
Q 1.703125 4.9375 1.703125 5.609375 
L 1.703125 7.8125 
Q 1.703125 8.15625 2.09375 8.421875 
Q 2.484375 8.6875 2.78125 8.6875 
Q 2.875 8.6875 3.078125 8.59375 
Q 9.28125 7.28125 14.46875 3.5625 
Q 19.671875 -0.140625 23 -5.609375 
L 23 67.578125 
Q 23 68.359375 23.625 68.875 
Q 24.265625 69.390625 25 69.390625 
Q 25.734375 69.390625 26.359375 68.875 
Q 27 68.359375 27 67.578125 
L 27 -5.609375 
Q 30.328125 -0.140625 35.578125 3.5625 
Q 40.828125 7.28125 46.921875 8.59375 
Q 47.125 8.6875 47.21875 8.6875 
Q 47.609375 8.6875 47.953125 8.4375 
Q 48.296875 8.203125 48.296875 7.8125 
L 48.296875 5.609375 
Q 48.296875 5.421875 48.09375 5.09375 
Q 47.90625 4.78125 47.609375 4.6875 
Q 39.203125 2.875 33.25 -3.5625 
Q 27.296875 -10.015625 26.125 -18.5 
Q 25.875 -19.390625 25 -19.390625 
Q 24.125 -19.390625 23.875 -18.5 
" id="Cmsy10-23"/>
    </defs>
    <g transform="translate(27.2968 361.216608918)scale(0.26 -0.26)">
     <use transform="translate(17.55859375 0.609375)" xlink:href="#Cmsy10-23"/>
    </g>
   </g>
   <g id="text_4">
    <!-- $\uparrow$ -->
    <defs>
     <path d="M 23 -17.578125 
L 23 55.609375 
Q 20.75 51.90625 17.703125 49.0625 
Q 14.65625 46.234375 10.90625 44.25 
Q 7.171875 42.28125 3.078125 41.40625 
Q 2.875 41.3125 2.78125 41.3125 
Q 1.703125 41.3125 1.703125 42.1875 
L 1.703125 44.390625 
Q 1.703125 45.0625 2.390625 45.3125 
Q 8.015625 46.578125 12.59375 49.875 
Q 17.1875 53.171875 20.109375 57.9375 
Q 23.046875 62.703125 23.875 68.5 
Q 24.078125 68.953125 24.359375 69.171875 
Q 24.65625 69.390625 25 69.390625 
Q 25.34375 69.390625 25.6875 69.109375 
Q 26.03125 68.84375 26.125 68.5 
Q 27.296875 60.015625 33.203125 53.609375 
Q 39.109375 47.21875 47.609375 45.3125 
Q 47.90625 45.21875 48.09375 44.890625 
Q 48.296875 44.578125 48.296875 44.390625 
L 48.296875 42.1875 
Q 48.296875 41.890625 47.953125 41.59375 
Q 47.609375 41.3125 47.21875 41.3125 
Q 47.125 41.3125 46.921875 41.40625 
Q 42.828125 42.28125 39.09375 44.25 
Q 35.359375 46.234375 32.296875 49.0625 
Q 29.25 51.90625 27 55.609375 
L 27 -17.578125 
Q 27 -18.359375 26.359375 -18.875 
Q 25.734375 -19.390625 25 -19.390625 
Q 24.265625 -19.390625 23.625 -18.875 
Q 23 -18.359375 23 -17.578125 
" id="Cmsy10-22"/>
    </defs>
    <g transform="translate(27.2968 417.757910728)scale(0.26 -0.26)">
     <use transform="translate(17.55859375 0.609375)" xlink:href="#Cmsy10-22"/>
    </g>
   </g>
   <g id="text_5">
    <!-- $\downarrow$ -->
    <g transform="translate(526.3432 417.757910728)scale(0.26 -0.26)">
     <use transform="translate(17.55859375 0.609375)" xlink:href="#Cmsy10-23"/>
    </g>
   </g>
   <g id="text_6">
    <!-- $\uparrow$ -->
    <g transform="translate(526.3432 361.216608918)scale(0.26 -0.26)">
     <use transform="translate(17.55859375 0.609375)" xlink:href="#Cmsy10-22"/>
    </g>
   </g>
   <g id="text_7">
    <!-- $\downarrow$ -->
    <g transform="translate(27.2968 38.3582160818)scale(0.26 -0.26)">
     <use transform="translate(17.55859375 0.609375)" xlink:href="#Cmsy10-23"/>
    </g>
   </g>
   <g id="text_8">
    <!-- $\uparrow$ -->
    <g transform="translate(27.2968 75.3647642719)scale(0.26 -0.26)">
     <use transform="translate(17.55859375 0.609375)" xlink:href="#Cmsy10-22"/>
    </g>
   </g>
   <g id="text_9">
    <!-- $\downarrow$ -->
    <g transform="translate(526.3432 75.3647642719)scale(0.26 -0.26)">
     <use transform="translate(17.55859375 0.609375)" xlink:href="#Cmsy10-23"/>
    </g>
   </g>
   <g id="text_10">
    <!-- $\uparrow$ -->
    <g transform="translate(526.3432 38.3582160818)scale(0.26 -0.26)">
     <use transform="translate(17.55859375 0.609375)" xlink:href="#Cmsy10-22"/>
    </g>
   </g>
   <g id="text_11">
    <!-- $-\Omega_z$ -->
    <defs>
     <path d="M 10.203125 23 
Q 9.375 23 8.828125 23.625 
Q 8.296875 24.265625 8.296875 25 
Q 8.296875 25.734375 8.828125 26.359375 
Q 9.375 27 10.203125 27 
L 67.578125 27 
Q 68.359375 27 68.875 26.359375 
Q 69.390625 25.734375 69.390625 25 
Q 69.390625 24.265625 68.875 23.625 
Q 68.359375 23 67.578125 23 
z
" id="Cmsy10-a1"/>
     <path d="M 4.890625 -1.125 
Q 4.109375 -1.125 4.109375 -0.203125 
Q 4.109375 0.296875 4.296875 0.484375 
Q 6.984375 5.125 10.765625 9.34375 
Q 14.546875 13.578125 19.359375 17.890625 
Q 24.171875 22.21875 29.03125 26.5625 
Q 33.890625 30.90625 36.921875 34.28125 
L 36.53125 34.28125 
Q 34.328125 34.28125 30.078125 35.6875 
Q 25.828125 37.109375 23.390625 37.109375 
Q 20.75 37.109375 18.25 35.953125 
Q 15.765625 34.8125 15.09375 32.421875 
Q 14.9375 31.6875 14.3125 31.6875 
L 13.09375 31.6875 
Q 12.3125 31.6875 12.3125 32.71875 
L 12.3125 33.015625 
Q 13.09375 35.9375 14.875 38.46875 
Q 16.65625 41.015625 19.265625 42.59375 
Q 21.875 44.1875 24.703125 44.1875 
Q 26.703125 44.1875 28.015625 43.28125 
Q 29.34375 42.390625 31.09375 40.484375 
Q 32.859375 38.578125 33.953125 37.75 
Q 35.0625 36.921875 36.71875 36.921875 
Q 38.921875 36.921875 40.65625 38.921875 
Q 42.390625 40.921875 44.09375 43.890625 
Q 44.390625 44.1875 44.828125 44.1875 
L 46 44.1875 
Q 46.34375 44.1875 46.5625 43.9375 
Q 46.78125 43.703125 46.78125 43.3125 
Q 46.78125 42.96875 46.578125 42.671875 
Q 43.890625 38.03125 40.296875 34 
Q 36.71875 29.984375 30.921875 24.78125 
Q 25.140625 19.578125 21.15625 15.984375 
Q 17.1875 12.40625 13.71875 8.59375 
Q 14.5 8.796875 15.828125 8.796875 
Q 18.265625 8.796875 22.484375 7.390625 
Q 26.703125 6 29 6 
Q 31.5 6 34.03125 7.078125 
Q 36.578125 8.15625 38.421875 10.109375 
Q 40.28125 12.0625 40.921875 14.59375 
Q 41.15625 15.28125 41.703125 15.28125 
L 42.921875 15.28125 
Q 43.3125 15.28125 43.546875 14.96875 
Q 43.796875 14.65625 43.796875 14.3125 
Q 43.796875 14.203125 43.703125 14.015625 
Q 42.78125 10.203125 40.484375 6.765625 
Q 38.1875 3.328125 34.84375 1.09375 
Q 31.5 -1.125 27.6875 -1.125 
Q 25.78125 -1.125 24.453125 -0.234375 
Q 23.140625 0.640625 21.359375 2.5625 
Q 19.578125 4.5 18.453125 5.34375 
Q 17.328125 6.203125 15.71875 6.203125 
Q 10.75 6.203125 6.78125 -0.78125 
Q 6.453125 -1.125 6.109375 -1.125 
z
" id="Cmmi10-7a"/>
     <path d="M 7.71875 0 
L 4.390625 16.609375 
L 7.328125 16.609375 
Q 7.859375 13.71875 8.296875 11.5 
Q 8.734375 9.28125 9.4375 8.375 
Q 10.15625 7.46875 11.71875 7.171875 
Q 13.28125 6.890625 16.890625 6.890625 
L 23 6.890625 
Q 21.53125 12.546875 15.6875 21.65625 
Q 9.859375 30.765625 7.734375 34.890625 
Q 5.609375 39.015625 5.609375 45.515625 
Q 5.609375 53.078125 10.09375 58.765625 
Q 14.59375 64.453125 21.703125 67.484375 
Q 28.8125 70.515625 36.078125 70.515625 
Q 43.3125 70.515625 50.40625 67.484375 
Q 57.515625 64.453125 62 58.71875 
Q 66.5 52.984375 66.5 45.515625 
Q 66.5 40.4375 64.640625 35.9375 
Q 62.796875 31.453125 59.90625 26.953125 
Q 57.03125 22.46875 53.6875 16.9375 
Q 50.34375 11.421875 49.125 6.890625 
L 55.171875 6.890625 
Q 58.84375 6.890625 60.453125 7.171875 
Q 62.0625 7.46875 62.734375 8.375 
Q 63.421875 9.28125 63.84375 11.5 
Q 64.265625 13.71875 64.796875 16.609375 
L 67.671875 16.609375 
L 64.40625 0 
L 46.6875 0 
Q 45.703125 0 45.703125 1.3125 
Q 45.703125 6.390625 46.9375 11.265625 
Q 48.1875 16.15625 50.625 23.09375 
Q 53.078125 30.03125 54.4375 35.328125 
Q 55.8125 40.625 55.8125 45.515625 
Q 55.8125 51.515625 53.46875 56.640625 
Q 51.125 61.765625 46.625 64.84375 
Q 42.140625 67.921875 36.078125 67.921875 
Q 26.953125 67.921875 21.625 61.40625 
Q 16.3125 54.890625 16.3125 45.515625 
Q 16.359375 40.375 17.53125 35.828125 
Q 18.703125 31.296875 21.3125 23.71875 
Q 23.921875 16.15625 25.171875 11.265625 
Q 26.421875 6.390625 26.421875 1.3125 
Q 26.421875 0 25.390625 0 
z
" id="Cmr10-ad"/>
    </defs>
    <g transform="translate(132.82 75.06)scale(0.26 -0.26)">
     <use transform="translate(0.0 0.484375)" xlink:href="#Cmsy10-a1"/>
     <use transform="translate(77.685546875 0.484375)" xlink:href="#Cmr10-ad"/>
     <use transform="translate(154.366484375 -16.521874999999994)scale(0.7)" xlink:href="#Cmmi10-7a"/>
    </g>
   </g>
   <g id="text_12">
    <!-- $+\Omega_z$ -->
    <defs>
     <path d="M 7.515625 23 
Q 6.6875 23 6.140625 23.625 
Q 5.609375 24.265625 5.609375 25 
Q 5.609375 25.734375 6.140625 26.359375 
Q 6.6875 27 7.515625 27 
L 36.921875 27 
L 36.921875 56.5 
Q 36.921875 57.28125 37.5 57.78125 
Q 38.09375 58.296875 38.921875 58.296875 
Q 39.65625 58.296875 40.28125 57.78125 
Q 40.921875 57.28125 40.921875 56.5 
L 40.921875 27 
L 70.3125 27 
Q 71.046875 27 71.578125 26.359375 
Q 72.125 25.734375 72.125 25 
Q 72.125 24.265625 71.578125 23.625 
Q 71.046875 23 70.3125 23 
L 40.921875 23 
L 40.921875 -6.5 
Q 40.921875 -7.28125 40.28125 -7.78125 
Q 39.65625 -8.296875 38.921875 -8.296875 
Q 38.09375 -8.296875 37.5 -7.78125 
Q 36.921875 -7.28125 36.921875 -6.5 
L 36.921875 23 
z
" id="Cmr10-2b"/>
    </defs>
    <g transform="translate(392.74 75.06)scale(0.26 -0.26)">
     <use transform="translate(0.0 0.484375)" xlink:href="#Cmr10-2b"/>
     <use transform="translate(77.685546875 0.484375)" xlink:href="#Cmr10-ad"/>
     <use transform="translate(154.366484375 -16.521874999999994)scale(0.7)" xlink:href="#Cmmi10-7a"/>
    </g>
   </g>
   <g id="text_13">
    <!-- $\mathbf{\epsilon}_+$ -->
    <defs>
     <path d="M 12.3125 14.109375 
Q 12.3125 10.75 13.53125 7.859375 
Q 14.75 4.984375 17.203125 3.25 
Q 19.671875 1.515625 23 1.515625 
Q 25.25 1.515625 27.78125 2.484375 
Q 30.328125 3.46875 32.5 4.640625 
Q 34.671875 5.8125 34.71875 5.8125 
Q 35.25 5.8125 35.5625 5.203125 
Q 35.890625 4.59375 35.890625 4 
Q 35.890625 3.46875 35.59375 3.328125 
Q 29.34375 -1.125 22.90625 -1.125 
Q 17.625 -1.125 13.375 1.34375 
Q 9.125 3.8125 6.8125 8.203125 
Q 4.5 12.59375 4.5 17.828125 
Q 4.5 23 6.59375 27.65625 
Q 8.6875 32.328125 12.390625 35.796875 
Q 16.109375 39.265625 20.796875 41.1875 
Q 25.484375 43.109375 30.609375 43.109375 
L 36.28125 43.109375 
Q 37.796875 43.109375 37.796875 41.609375 
Q 37.796875 40.765625 37.234375 40.171875 
Q 36.671875 39.59375 35.890625 39.59375 
L 30.421875 39.59375 
Q 26.421875 39.59375 23.171875 37.828125 
Q 19.921875 36.078125 17.71875 32.953125 
Q 15.53125 29.828125 14.3125 25.875 
L 31.984375 25.875 
Q 32.671875 25.875 33.078125 25.453125 
Q 33.5 25.046875 33.5 24.421875 
Q 33.5 23.578125 32.953125 22.984375 
Q 32.421875 22.40625 31.59375 22.40625 
L 13.375 22.40625 
Q 12.3125 17.234375 12.3125 14.109375 
" id="Cmmi10-b2"/>
    </defs>
    <g transform="translate(443.1672 215.0847625)scale(0.26 -0.26)">
     <use transform="translate(0.0 0.890625)" xlink:href="#Cmmi10-b2"/>
     <use transform="translate(52.76953125 -16.115625)scale(0.7)" xlink:href="#Cmr10-2b"/>
    </g>
   </g>
  </g>
 </g>
 <defs>
  <clipPath id="pe5e61d39fd">
   <rect height="375.84" width="519.84" x="28.08" y="28.08"/>
  </clipPath>
 </defs>
</svg>
