<?xml version="1.0" encoding="utf-8" standalone="no"?>
<!DOCTYPE svg PUBLIC "-//W3C//DTD SVG 1.1//EN"
  "http://www.w3.org/Graphics/SVG/1.1/DTD/svg11.dtd">
<!-- Created with matplotlib (http://matplotlib.org/) -->
<svg height="432pt" version="1.1" viewBox="0 0 576 432" width="576pt" xmlns="http://www.w3.org/2000/svg" xmlns:xlink="http://www.w3.org/1999/xlink">
 <defs>
  <style type="text/css">
*{stroke-linecap:butt;stroke-linejoin:round;stroke-miterlimit:100000;}
  </style>
 </defs>
 <g id="figure_1">
  <g id="patch_1">
   <path d="M 0 432 
L 576 432 
L 576 0 
L 0 0 
L 0 432 
z
" style="fill:none;"/>
  </g>
  <g id="axes_1">
   <g id="line2d_1">
    <path clip-path="url(#pdf48551321)" d="M 216.522 304.186781 
L 214.684182 307.023607 
L 212.846364 309.843652 
L 211.008545 312.646147 
L 209.170727 315.430283 
L 207.332909 318.195202 
L 205.495091 320.939999 
L 203.657273 323.663712 
L 201.819455 326.365324 
L 199.981636 329.043754 
L 198.143818 331.697852 
L 196.306 334.32639 
L 194.468182 336.92805 
L 192.630364 339.501409 
L 190.792545 342.044911 
L 188.954727 344.556819 
L 187.116909 347.035134 
L 185.279091 349.477408 
L 183.441273 351.880325 
L 181.603455 354.238518 
L 179.765636 356.540429 
L 177.927818 358.746631 
L 176.09 360.543956 
L 174.252182 359.868332 
L 172.414364 357.897438 
L 170.576545 355.842286 
L 168.738727 353.808673 
L 166.900909 351.818158 
L 165.063091 349.879336 
L 163.225273 347.997374 
L 161.387455 346.176258 
L 159.549636 344.419499 
L 157.711818 342.730409 
L 155.874 341.112207 
L 154.036182 339.568066 
L 152.198364 338.101133 
L 150.360545 336.714524 
L 148.522727 335.411314 
L 146.684909 334.194523 
L 144.847091 333.067088 
L 143.009273 332.031846 
L 141.171455 331.091501 
L 139.333636 330.248598 
L 137.495818 329.505494 
L 135.658 328.864326 
L 133.820182 328.32699 
L 131.982364 327.895106 
L 130.144545 327.570005 
L 128.306727 327.352698 
L 126.468909 327.243873 
L 124.631091 327.243873 
L 122.793273 327.352698 
L 120.955455 327.570005 
L 119.117636 327.895106 
L 117.279818 328.32699 
L 115.442 328.864326 
L 113.604182 329.505494 
L 111.766364 330.248598 
L 109.928545 331.091501 
L 108.090727 332.031846 
L 106.252909 333.067088 
L 104.415091 334.194523 
L 102.577273 335.411314 
L 100.739455 336.714524 
L 98.901636 338.101133 
L 97.063818 339.568066 
L 95.226 341.112207 
L 93.388182 342.730409 
L 91.550364 344.419499 
L 89.712545 346.176258 
L 87.874727 347.997374 
L 86.036909 349.879336 
L 84.199091 351.818158 
L 82.361273 353.808673 
L 80.523455 355.842286 
L 78.685636 357.897438 
L 76.847818 359.868332 
L 75.01 360.543956 
L 73.172182 358.746631 
L 71.334364 356.540429 
L 69.496545 354.238518 
L 67.658727 351.880325 
L 65.820909 349.477408 
L 63.983091 347.035134 
L 62.145273 344.556819 
L 60.307455 342.044911 
L 58.469636 339.501409 
L 56.631818 336.92805 
L 54.794 334.32639 
L 52.956182 331.697852 
L 51.118364 329.043754 
L 49.280545 326.365324 
L 47.442727 323.663712 
L 45.604909 320.939999 
L 43.767091 318.195202 
L 41.929273 315.430283 
L 40.091455 312.646147 
L 38.253636 309.843652 
L 36.415818 307.023607 
L 34.578 304.186781 
" style="fill:none;stroke:#000000;stroke-linecap:square;"/>
   </g>
   <g id="line2d_2">
    <path clip-path="url(#pdf48551321)" d="M 359.478 304.186781 
L 361.315818 307.023607 
L 363.153636 309.843652 
L 364.991455 312.646147 
L 366.829273 315.430283 
L 368.667091 318.195202 
L 370.504909 320.939999 
L 372.342727 323.663712 
L 374.180545 326.365324 
L 376.018364 329.043754 
L 377.856182 331.697852 
L 379.694 334.32639 
L 381.531818 336.92805 
L 383.369636 339.501409 
L 385.207455 342.044911 
L 387.045273 344.556819 
L 388.883091 347.035134 
L 390.720909 349.477408 
L 392.558727 351.880325 
L 394.396545 354.238518 
L 396.234364 356.540429 
L 398.072182 358.746631 
L 399.91 360.543956 
L 401.747818 359.868332 
L 403.585636 357.897438 
L 405.423455 355.842286 
L 407.261273 353.808673 
L 409.099091 351.818158 
L 410.936909 349.879336 
L 412.774727 347.997374 
L 414.612545 346.176258 
L 416.450364 344.419499 
L 418.288182 342.730409 
L 420.126 341.112207 
L 421.963818 339.568066 
L 423.801636 338.101133 
L 425.639455 336.714524 
L 427.477273 335.411314 
L 429.315091 334.194523 
L 431.152909 333.067088 
L 432.990727 332.031846 
L 434.828545 331.091501 
L 436.666364 330.248598 
L 438.504182 329.505494 
L 440.342 328.864326 
L 442.179818 328.32699 
L 444.017636 327.895106 
L 445.855455 327.570005 
L 447.693273 327.352698 
L 449.531091 327.243873 
L 451.368909 327.243873 
L 453.206727 327.352698 
L 455.044545 327.570005 
L 456.882364 327.895106 
L 458.720182 328.32699 
L 460.558 328.864326 
L 462.395818 329.505494 
L 464.233636 330.248598 
L 466.071455 331.091501 
L 467.909273 332.031846 
L 469.747091 333.067088 
L 471.584909 334.194523 
L 473.422727 335.411314 
L 475.260545 336.714524 
L 477.098364 338.101133 
L 478.936182 339.568066 
L 480.774 341.112207 
L 482.611818 342.730409 
L 484.449636 344.419499 
L 486.287455 346.176258 
L 488.125273 347.997374 
L 489.963091 349.879336 
L 491.800909 351.818158 
L 493.638727 353.808673 
L 495.476545 355.842286 
L 497.314364 357.897438 
L 499.152182 359.868332 
L 500.99 360.543956 
L 502.827818 358.746631 
L 504.665636 356.540429 
L 506.503455 354.238518 
L 508.341273 351.880325 
L 510.179091 349.477408 
L 512.016909 347.035134 
L 513.854727 344.556819 
L 515.692545 342.044911 
L 517.530364 339.501409 
L 519.368182 336.92805 
L 521.206 334.32639 
L 523.043818 331.697852 
L 524.881636 329.043754 
L 526.719455 326.365324 
L 528.557273 323.663712 
L 530.395091 320.939999 
L 532.232909 318.195202 
L 534.070727 315.430283 
L 535.908545 312.646147 
L 537.746364 309.843652 
L 539.584182 307.023607 
L 541.422 304.186781 
" style="fill:none;stroke:#000000;stroke-linecap:square;"/>
   </g>
   <g id="line2d_3">
    <path clip-path="url(#pdf48551321)" d="M 216.522 41.10981 
L 214.684182 43.947208 
L 212.846364 46.767882 
L 211.008545 49.571074 
L 209.170727 52.355986 
L 207.332909 55.121774 
L 205.495091 57.867548 
L 203.657273 60.592372 
L 201.819455 63.295254 
L 199.981636 65.97515 
L 198.143818 68.630958 
L 196.306 71.261515 
L 194.468182 73.865594 
L 192.630364 76.441901 
L 190.792545 78.989072 
L 188.954727 81.505667 
L 187.116909 83.990173 
L 185.279091 86.440992 
L 183.441273 88.856444 
L 181.603455 91.234763 
L 179.765636 93.574093 
L 177.927818 95.872485 
L 176.09 98.127895 
L 174.252182 100.338185 
L 172.414364 102.501119 
L 170.576545 104.614363 
L 168.738727 106.675486 
L 166.900909 108.681963 
L 165.063091 110.631178 
L 163.225273 112.520423 
L 161.387455 114.346912 
L 159.549636 116.107784 
L 157.711818 117.800114 
L 155.874 119.420923 
L 154.036182 120.967197 
L 152.198364 122.435899 
L 150.360545 123.82399 
L 148.522727 125.128451 
L 146.684909 126.346303 
L 144.847091 127.474641 
L 143.009273 128.510651 
L 141.171455 129.45165 
L 139.333636 130.295105 
L 137.495818 131.038673 
L 135.658 131.680224 
L 133.820182 132.21787 
L 131.982364 132.649995 
L 130.144545 132.975274 
L 128.306727 133.192698 
L 126.468909 133.301581 
L 124.631091 133.301581 
L 122.793273 133.192698 
L 120.955455 132.975274 
L 119.117636 132.649995 
L 117.279818 132.21787 
L 115.442 131.680224 
L 113.604182 131.038673 
L 111.766364 130.295105 
L 109.928545 129.45165 
L 108.090727 128.510651 
L 106.252909 127.474641 
L 104.415091 126.346303 
L 102.577273 125.128451 
L 100.739455 123.82399 
L 98.901636 122.435899 
L 97.063818 120.967197 
L 95.226 119.420923 
L 93.388182 117.800114 
L 91.550364 116.107784 
L 89.712545 114.346912 
L 87.874727 112.520423 
L 86.036909 110.631178 
L 84.199091 108.681963 
L 82.361273 106.675486 
L 80.523455 104.614363 
L 78.685636 102.501119 
L 76.847818 100.338185 
L 75.01 98.127895 
L 73.172182 95.872485 
L 71.334364 93.574093 
L 69.496545 91.234763 
L 67.658727 88.856444 
L 65.820909 86.440992 
L 63.983091 83.990173 
L 62.145273 81.505667 
L 60.307455 78.989072 
L 58.469636 76.441901 
L 56.631818 73.865594 
L 54.794 71.261515 
L 52.956182 68.630958 
L 51.118364 65.97515 
L 49.280545 63.295254 
L 47.442727 60.592372 
L 45.604909 57.867548 
L 43.767091 55.121774 
L 41.929273 52.355986 
L 40.091455 49.571074 
L 38.253636 46.767882 
L 36.415818 43.947208 
L 34.578 41.10981 
" style="fill:none;stroke:#000000;stroke-linecap:square;"/>
   </g>
   <g id="line2d_4">
    <path clip-path="url(#pdf48551321)" d="M 216.522 55.432312 
L 214.684182 57.999561 
L 212.846364 60.544798 
L 211.008545 63.067214 
L 209.170727 65.565969 
L 207.332909 68.040186 
L 205.495091 70.488958 
L 203.657273 72.911341 
L 201.819455 75.306353 
L 199.981636 77.672977 
L 198.143818 80.010156 
L 196.306 82.316797 
L 194.468182 84.591764 
L 192.630364 86.833882 
L 190.792545 89.041938 
L 188.954727 91.214674 
L 187.116909 93.350793 
L 185.279091 95.44896 
L 183.441273 97.507794 
L 181.603455 99.525878 
L 179.765636 101.501757 
L 177.927818 103.433935 
L 176.09 105.320883 
L 174.252182 107.161036 
L 172.414364 108.952799 
L 170.576545 110.694548 
L 168.738727 112.384635 
L 166.900909 114.021389 
L 165.063091 115.603124 
L 163.225273 117.128141 
L 161.387455 118.594736 
L 159.549636 120.001207 
L 157.711818 121.345855 
L 155.874 122.627 
L 154.036182 123.84298 
L 152.198364 124.992166 
L 150.360545 126.072968 
L 148.522727 127.083845 
L 146.684909 128.02331 
L 144.847091 128.889948 
L 143.009273 129.682416 
L 141.171455 130.39946 
L 139.333636 131.039919 
L 137.495818 131.602736 
L 135.658 132.086968 
L 133.820182 132.491789 
L 131.982364 132.8165 
L 130.144545 133.060536 
L 128.306727 133.223467 
L 126.468909 133.305004 
L 124.631091 133.305004 
L 122.793273 133.223467 
L 120.955455 133.060536 
L 119.117636 132.8165 
L 117.279818 132.491789 
L 115.442 132.086968 
L 113.604182 131.602736 
L 111.766364 131.039919 
L 109.928545 130.39946 
L 108.090727 129.682416 
L 106.252909 128.889948 
L 104.415091 128.02331 
L 102.577273 127.083845 
L 100.739455 126.072968 
L 98.901636 124.992166 
L 97.063818 123.84298 
L 95.226 122.627 
L 93.388182 121.345855 
L 91.550364 120.001207 
L 89.712545 118.594736 
L 87.874727 117.128141 
L 86.036909 115.603124 
L 84.199091 114.021389 
L 82.361273 112.384635 
L 80.523455 110.694548 
L 78.685636 108.952799 
L 76.847818 107.161036 
L 75.01 105.320883 
L 73.172182 103.433935 
L 71.334364 101.501757 
L 69.496545 99.525878 
L 67.658727 97.507794 
L 65.820909 95.44896 
L 63.983091 93.350793 
L 62.145273 91.214674 
L 60.307455 89.041938 
L 58.469636 86.833882 
L 56.631818 84.591764 
L 54.794 82.316797 
L 52.956182 80.010156 
L 51.118364 77.672977 
L 49.280545 75.306353 
L 47.442727 72.911341 
L 45.604909 70.488958 
L 43.767091 68.040186 
L 41.929273 65.565969 
L 40.091455 63.067214 
L 38.253636 60.544798 
L 36.415818 57.999561 
L 34.578 55.432312 
" style="fill:none;stroke:#000000;stroke-linecap:square;"/>
   </g>
   <g id="line2d_5">
    <path clip-path="url(#pdf48551321)" d="M 359.478 55.432312 
L 361.315818 57.999561 
L 363.153636 60.544798 
L 364.991455 63.067214 
L 366.829273 65.565969 
L 368.667091 68.040186 
L 370.504909 70.488958 
L 372.342727 72.911341 
L 374.180545 75.306353 
L 376.018364 77.672977 
L 377.856182 80.010156 
L 379.694 82.316797 
L 381.531818 84.591764 
L 383.369636 86.833882 
L 385.207455 89.041938 
L 387.045273 91.214674 
L 388.883091 93.350793 
L 390.720909 95.44896 
L 392.558727 97.507794 
L 394.396545 99.525878 
L 396.234364 101.501757 
L 398.072182 103.433935 
L 399.91 105.320883 
L 401.747818 107.161036 
L 403.585636 108.952799 
L 405.423455 110.694548 
L 407.261273 112.384635 
L 409.099091 114.021389 
L 410.936909 115.603124 
L 412.774727 117.128141 
L 414.612545 118.594736 
L 416.450364 120.001207 
L 418.288182 121.345855 
L 420.126 122.627 
L 421.963818 123.84298 
L 423.801636 124.992166 
L 425.639455 126.072968 
L 427.477273 127.083845 
L 429.315091 128.02331 
L 431.152909 128.889948 
L 432.990727 129.682416 
L 434.828545 130.39946 
L 436.666364 131.039919 
L 438.504182 131.602736 
L 440.342 132.086968 
L 442.179818 132.491789 
L 444.017636 132.8165 
L 445.855455 133.060536 
L 447.693273 133.223467 
L 449.531091 133.305004 
L 451.368909 133.305004 
L 453.206727 133.223467 
L 455.044545 133.060536 
L 456.882364 132.8165 
L 458.720182 132.491789 
L 460.558 132.086968 
L 462.395818 131.602736 
L 464.233636 131.039919 
L 466.071455 130.39946 
L 467.909273 129.682416 
L 469.747091 128.889948 
L 471.584909 128.02331 
L 473.422727 127.083845 
L 475.260545 126.072968 
L 477.098364 124.992166 
L 478.936182 123.84298 
L 480.774 122.627 
L 482.611818 121.345855 
L 484.449636 120.001207 
L 486.287455 118.594736 
L 488.125273 117.128141 
L 489.963091 115.603124 
L 491.800909 114.021389 
L 493.638727 112.384635 
L 495.476545 110.694548 
L 497.314364 108.952799 
L 499.152182 107.161036 
L 500.99 105.320883 
L 502.827818 103.433935 
L 504.665636 101.501757 
L 506.503455 99.525878 
L 508.341273 97.507794 
L 510.179091 95.44896 
L 512.016909 93.350793 
L 513.854727 91.214674 
L 515.692545 89.041938 
L 517.530364 86.833882 
L 519.368182 84.591764 
L 521.206 82.316797 
L 523.043818 80.010156 
L 524.881636 77.672977 
L 526.719455 75.306353 
L 528.557273 72.911341 
L 530.395091 70.488958 
L 532.232909 68.040186 
L 534.070727 65.565969 
L 535.908545 63.067214 
L 537.746364 60.544798 
L 539.584182 57.999561 
L 541.422 55.432312 
" style="fill:none;stroke:#000000;stroke-linecap:square;"/>
   </g>
   <g id="line2d_6">
    <path clip-path="url(#pdf48551321)" d="M 359.478 41.10981 
L 361.315818 43.947208 
L 363.153636 46.767882 
L 364.991455 49.571074 
L 366.829273 52.355986 
L 368.667091 55.121774 
L 370.504909 57.867548 
L 372.342727 60.592372 
L 374.180545 63.295254 
L 376.018364 65.97515 
L 377.856182 68.630958 
L 379.694 71.261515 
L 381.531818 73.865594 
L 383.369636 76.441901 
L 385.207455 78.989072 
L 387.045273 81.505667 
L 388.883091 83.990173 
L 390.720909 86.440992 
L 392.558727 88.856444 
L 394.396545 91.234763 
L 396.234364 93.574093 
L 398.072182 95.872485 
L 399.91 98.127895 
L 401.747818 100.338185 
L 403.585636 102.501119 
L 405.423455 104.614363 
L 407.261273 106.675486 
L 409.099091 108.681963 
L 410.936909 110.631178 
L 412.774727 112.520423 
L 414.612545 114.346912 
L 416.450364 116.107784 
L 418.288182 117.800114 
L 420.126 119.420923 
L 421.963818 120.967197 
L 423.801636 122.435899 
L 425.639455 123.82399 
L 427.477273 125.128451 
L 429.315091 126.346303 
L 431.152909 127.474641 
L 432.990727 128.510651 
L 434.828545 129.45165 
L 436.666364 130.295105 
L 438.504182 131.038673 
L 440.342 131.680224 
L 442.179818 132.21787 
L 444.017636 132.649995 
L 445.855455 132.975274 
L 447.693273 133.192698 
L 449.531091 133.301581 
L 451.368909 133.301581 
L 453.206727 133.192698 
L 455.044545 132.975274 
L 456.882364 132.649995 
L 458.720182 132.21787 
L 460.558 131.680224 
L 462.395818 131.038673 
L 464.233636 130.295105 
L 466.071455 129.45165 
L 467.909273 128.510651 
L 469.747091 127.474641 
L 471.584909 126.346303 
L 473.422727 125.128451 
L 475.260545 123.82399 
L 477.098364 122.435899 
L 478.936182 120.967197 
L 480.774 119.420923 
L 482.611818 117.800114 
L 484.449636 116.107784 
L 486.287455 114.346912 
L 488.125273 112.520423 
L 489.963091 110.631178 
L 491.800909 108.681963 
L 493.638727 106.675486 
L 495.476545 104.614363 
L 497.314364 102.501119 
L 499.152182 100.338185 
L 500.99 98.127895 
L 502.827818 95.872485 
L 504.665636 93.574093 
L 506.503455 91.234763 
L 508.341273 88.856444 
L 510.179091 86.440992 
L 512.016909 83.990173 
L 513.854727 81.505667 
L 515.692545 78.989072 
L 517.530364 76.441901 
L 519.368182 73.865594 
L 521.206 71.261515 
L 523.043818 68.630958 
L 524.881636 65.97515 
L 526.719455 63.295254 
L 528.557273 60.592372 
L 530.395091 57.867548 
L 532.232909 55.121774 
L 534.070727 52.355986 
L 535.908545 49.571074 
L 537.746364 46.767882 
L 539.584182 43.947208 
L 541.422 41.10981 
" style="fill:none;stroke:#000000;stroke-linecap:square;"/>
   </g>
   <g id="line2d_7">
    <path clip-path="url(#pdf48551321)" d="M 28.08 373.8528 
L 547.92 373.8528 
" style="fill:none;stroke:#000000;stroke-dasharray:6.000000,6.000000;stroke-dashoffset:0.0;"/>
   </g>
   <g id="line2d_8">
    <path clip-path="url(#pdf48551321)" d="M 28.08 253.584 
L 547.92 253.584 
" style="fill:none;stroke:#808080;stroke-linecap:square;stroke-width:0.5;"/>
   </g>
   <g id="line2d_9">
    <path clip-path="url(#pdf48551321)" d="M 288 377.6112 
L 288 28.08 
" style="fill:none;stroke:#808080;stroke-linecap:square;stroke-width:0.5;"/>
   </g>
   <g id="line2d_10">
    <path clip-path="url(#pdf48551321)" d="M 424.458 122.941058 
" style="fill:none;stroke:#000000;stroke-linecap:square;"/>
    <defs>
     <path d="M 0 5 
C 1.326016 5 2.597899 4.473168 3.535534 3.535534 
C 4.473168 2.597899 5 1.326016 5 0 
C 5 -1.326016 4.473168 -2.597899 3.535534 -3.535534 
C 2.597899 -4.473168 1.326016 -5 0 -5 
C -1.326016 -5 -2.597899 -4.473168 -3.535534 -3.535534 
C -4.473168 -2.597899 -5 -1.326016 -5 0 
C -5 1.326016 -4.473168 2.597899 -3.535534 3.535534 
C -2.597899 4.473168 -1.326016 5 0 5 
z
" id="mf99f08ae21" style="stroke:#000000;stroke-width:0.5;"/>
    </defs>
    <g clip-path="url(#pdf48551321)">
     <use style="stroke:#000000;stroke-width:0.5;" x="424.458" xlink:href="#mf99f08ae21" y="122.941057522"/>
    </g>
   </g>
   <g id="line2d_11">
    <path clip-path="url(#pdf48551321)" d="M 151.542 337.596534 
" style="fill:none;stroke:#000000;stroke-linecap:square;"/>
    <g clip-path="url(#pdf48551321)">
     <use style="stroke:#000000;stroke-width:0.5;" x="151.542" xlink:href="#mf99f08ae21" y="337.59653356"/>
    </g>
   </g>
   <g id="line2d_12">
    <path clip-path="url(#pdf48551321)" d="M 288 223.5168 
L 280.16675 225.924584 
L 276.504023 227.278962 
L 274.27514 228.332368 
L 272.888645 229.235286 
L 272.141455 229.987719 
L 271.824854 230.589665 
L 271.763855 231.191611 
L 271.959422 231.793557 
L 272.408465 232.395503 
L 273.315035 233.147935 
L 274.583921 233.900368 
L 276.540175 234.803286 
L 279.767147 236.007178 
L 284.502644 237.512043 
L 297.181261 241.424692 
L 300.228363 242.628584 
L 302.017219 243.531503 
L 303.308516 244.434422 
L 303.970877 245.186854 
L 304.217516 245.7888 
L 304.207883 246.390746 
L 303.942131 246.992692 
L 303.424459 247.594638 
L 302.435938 248.34707 
L 300.782341 249.249989 
L 298.284725 250.303395 
L 294.83069 251.507286 
L 288.408647 253.463611 
L 280.077396 256.021881 
L 276.432061 257.376259 
L 274.220752 258.429665 
L 272.851446 259.332584 
L 272.119615 260.085016 
L 271.815709 260.686962 
L 271.767549 261.288908 
L 271.975897 261.890854 
L 272.43746 262.4928 
L 273.359014 263.245232 
L 274.641799 263.997665 
L 276.612818 264.900584 
L 279.855389 266.104476 
L 285.103652 267.759827 
L 296.841233 271.371503 
L 299.955476 272.575395 
L 302.068583 273.6288 
L 303.166929 274.381232 
L 303.891069 275.133665 
L 304.188623 275.735611 
L 304.230363 276.337557 
L 304.015627 276.939503 
L 303.547811 277.541449 
L 302.618779 278.293881 
L 301.329064 279.046314 
L 299.350691 279.949232 
L 296.100369 281.153124 
L 290.846066 282.808476 
L 279.115953 286.420151 
L 276.009995 287.624043 
L 273.905944 288.677449 
L 272.814846 289.429881 
L 272.098404 290.182314 
L 271.807204 290.784259 
L 271.771886 291.386205 
L 271.993006 291.988151 
L 272.467071 292.590097 
L 273.403573 293.34253 
L 274.700205 294.094962 
L 276.685912 294.997881 
L 279.943953 296.201773 
L 285.204244 297.857124 
L 296.926773 301.4688 
L 300.024414 302.672692 
L 302.11939 303.726097 
L 303.203229 304.47853 
L 303.911966 305.230962 
L 304.196808 305.832908 
L 304.225705 306.434854 
L 303.998202 307.0368 
L 303.517893 307.638746 
L 302.573932 308.391178 
L 301.270395 309.143611 
L 299.277373 310.04653 
L 296.011645 311.250422 
L 290.745418 312.905773 
L 279.460888 316.366962 
L 276.289512 317.570854 
L 274.113613 318.624259 
L 272.778846 319.527178 
L 272.077821 320.279611 
L 271.79934 320.881557 
L 271.776864 321.483503 
L 272.010748 322.085449 
L 272.497297 322.687395 
L 273.448708 323.439827 
L 274.759137 324.192259 
L 276.759453 325.095178 
L 280.032836 326.29907 
L 285.304947 327.954422 
L 296.582529 331.415611 
L 299.745837 332.619503 
L 301.912829 333.672908 
L 303.238928 334.575827 
L 303.932234 335.328259 
L 304.204352 335.930205 
L 304.220406 336.532151 
L 303.980144 337.134097 
L 303.48736 337.736043 
L 302.528508 338.488476 
L 301.211201 339.240908 
L 299.203609 340.143827 
L 295.922604 341.347719 
L 290.644662 343.00307 
L 279.374139 346.464259 
L 276.218931 347.668151 
L 274.060867 348.721557 
L 272.743449 349.624476 
L 272.057869 350.376908 
L 271.792117 350.978854 
L 271.782484 351.5808 
L 272.029123 352.182746 
L 272.528136 352.784692 
L 273.494419 353.537124 
L 275.123646 354.440043 
L 277.597101 355.493449 
L 281.030564 356.697341 
L 286.927968 358.503178 
L 296.232853 361.362422 
L 299.459825 362.566314 
L 301.697462 363.619719 
L 303.092531 364.522638 
L 303.84739 365.27507 
L 304.170334 365.877016 
L 304.237751 366.478962 
L 304.048577 367.080908 
L 303.605802 367.682854 
L 302.706737 368.435286 
L 301.444819 369.187719 
L 299.495977 370.090638 
L 296.276852 371.29453 
L 291.547227 372.799395 
L 288 373.8528 
L 288 373.8528 
" style="fill:none;stroke:#000000;stroke-linecap:square;"/>
   </g>
   <g id="text_1">
    <!-- BCS Condensate -->
    <defs>
     <path d="M 18.3125 70.21875 
L 18.3125 54.6875 
L 36.8125 54.6875 
L 36.8125 47.703125 
L 18.3125 47.703125 
L 18.3125 18.015625 
Q 18.3125 11.328125 20.140625 9.421875 
Q 21.96875 7.515625 27.59375 7.515625 
L 36.8125 7.515625 
L 36.8125 0 
L 27.59375 0 
Q 17.1875 0 13.234375 3.875 
Q 9.28125 7.765625 9.28125 18.015625 
L 9.28125 47.703125 
L 2.6875 47.703125 
L 2.6875 54.6875 
L 9.28125 54.6875 
L 9.28125 70.21875 
z
" id="BitstreamVeraSans-Roman-74"/>
     <path d="M 30.609375 48.390625 
Q 23.390625 48.390625 19.1875 42.75 
Q 14.984375 37.109375 14.984375 27.296875 
Q 14.984375 17.484375 19.15625 11.84375 
Q 23.34375 6.203125 30.609375 6.203125 
Q 37.796875 6.203125 41.984375 11.859375 
Q 46.1875 17.53125 46.1875 27.296875 
Q 46.1875 37.015625 41.984375 42.703125 
Q 37.796875 48.390625 30.609375 48.390625 
M 30.609375 56 
Q 42.328125 56 49.015625 48.375 
Q 55.71875 40.765625 55.71875 27.296875 
Q 55.71875 13.875 49.015625 6.21875 
Q 42.328125 -1.421875 30.609375 -1.421875 
Q 18.84375 -1.421875 12.171875 6.21875 
Q 5.515625 13.875 5.515625 27.296875 
Q 5.515625 40.765625 12.171875 48.375 
Q 18.84375 56 30.609375 56 
" id="BitstreamVeraSans-Roman-6f"/>
     <path d="M 53.515625 70.515625 
L 53.515625 60.890625 
Q 47.90625 63.578125 42.921875 64.890625 
Q 37.9375 66.21875 33.296875 66.21875 
Q 25.25 66.21875 20.875 63.09375 
Q 16.5 59.96875 16.5 54.203125 
Q 16.5 49.359375 19.40625 46.890625 
Q 22.3125 44.4375 30.421875 42.921875 
L 36.375 41.703125 
Q 47.40625 39.59375 52.65625 34.296875 
Q 57.90625 29 57.90625 20.125 
Q 57.90625 9.515625 50.796875 4.046875 
Q 43.703125 -1.421875 29.984375 -1.421875 
Q 24.8125 -1.421875 18.96875 -0.25 
Q 13.140625 0.921875 6.890625 3.21875 
L 6.890625 13.375 
Q 12.890625 10.015625 18.65625 8.296875 
Q 24.421875 6.59375 29.984375 6.59375 
Q 38.421875 6.59375 43.015625 9.90625 
Q 47.609375 13.234375 47.609375 19.390625 
Q 47.609375 24.75 44.3125 27.78125 
Q 41.015625 30.8125 33.5 32.328125 
L 27.484375 33.5 
Q 16.453125 35.6875 11.515625 40.375 
Q 6.59375 45.0625 6.59375 53.421875 
Q 6.59375 63.09375 13.40625 68.65625 
Q 20.21875 74.21875 32.171875 74.21875 
Q 37.3125 74.21875 42.625 73.28125 
Q 47.953125 72.359375 53.515625 70.515625 
" id="BitstreamVeraSans-Roman-53"/>
     <path id="BitstreamVeraSans-Roman-20"/>
     <path d="M 64.40625 67.28125 
L 64.40625 56.890625 
Q 59.421875 61.53125 53.78125 63.8125 
Q 48.140625 66.109375 41.796875 66.109375 
Q 29.296875 66.109375 22.65625 58.46875 
Q 16.015625 50.828125 16.015625 36.375 
Q 16.015625 21.96875 22.65625 14.328125 
Q 29.296875 6.6875 41.796875 6.6875 
Q 48.140625 6.6875 53.78125 8.984375 
Q 59.421875 11.28125 64.40625 15.921875 
L 64.40625 5.609375 
Q 59.234375 2.09375 53.4375 0.328125 
Q 47.65625 -1.421875 41.21875 -1.421875 
Q 24.65625 -1.421875 15.125 8.703125 
Q 5.609375 18.84375 5.609375 36.375 
Q 5.609375 53.953125 15.125 64.078125 
Q 24.65625 74.21875 41.21875 74.21875 
Q 47.75 74.21875 53.53125 72.484375 
Q 59.328125 70.75 64.40625 67.28125 
" id="BitstreamVeraSans-Roman-43"/>
     <path d="M 19.671875 34.8125 
L 19.671875 8.109375 
L 35.5 8.109375 
Q 43.453125 8.109375 47.28125 11.40625 
Q 51.125 14.703125 51.125 21.484375 
Q 51.125 28.328125 47.28125 31.5625 
Q 43.453125 34.8125 35.5 34.8125 
z
M 19.671875 64.796875 
L 19.671875 42.828125 
L 34.28125 42.828125 
Q 41.5 42.828125 45.03125 45.53125 
Q 48.578125 48.25 48.578125 53.8125 
Q 48.578125 59.328125 45.03125 62.0625 
Q 41.5 64.796875 34.28125 64.796875 
z
M 9.8125 72.90625 
L 35.015625 72.90625 
Q 46.296875 72.90625 52.390625 68.21875 
Q 58.5 63.53125 58.5 54.890625 
Q 58.5 48.1875 55.375 44.234375 
Q 52.25 40.28125 46.1875 39.3125 
Q 53.46875 37.75 57.5 32.78125 
Q 61.53125 27.828125 61.53125 20.40625 
Q 61.53125 10.640625 54.890625 5.3125 
Q 48.25 0 35.984375 0 
L 9.8125 0 
z
" id="BitstreamVeraSans-Roman-42"/>
     <path d="M 34.28125 27.484375 
Q 23.390625 27.484375 19.1875 25 
Q 14.984375 22.515625 14.984375 16.5 
Q 14.984375 11.71875 18.140625 8.90625 
Q 21.296875 6.109375 26.703125 6.109375 
Q 34.1875 6.109375 38.703125 11.40625 
Q 43.21875 16.703125 43.21875 25.484375 
L 43.21875 27.484375 
z
M 52.203125 31.203125 
L 52.203125 0 
L 43.21875 0 
L 43.21875 8.296875 
Q 40.140625 3.328125 35.546875 0.953125 
Q 30.953125 -1.421875 24.3125 -1.421875 
Q 15.921875 -1.421875 10.953125 3.296875 
Q 6 8.015625 6 15.921875 
Q 6 25.140625 12.171875 29.828125 
Q 18.359375 34.515625 30.609375 34.515625 
L 43.21875 34.515625 
L 43.21875 35.40625 
Q 43.21875 41.609375 39.140625 45 
Q 35.0625 48.390625 27.6875 48.390625 
Q 23 48.390625 18.546875 47.265625 
Q 14.109375 46.140625 10.015625 43.890625 
L 10.015625 52.203125 
Q 14.9375 54.109375 19.578125 55.046875 
Q 24.21875 56 28.609375 56 
Q 40.484375 56 46.34375 49.84375 
Q 52.203125 43.703125 52.203125 31.203125 
" id="BitstreamVeraSans-Roman-61"/>
     <path d="M 45.40625 46.390625 
L 45.40625 75.984375 
L 54.390625 75.984375 
L 54.390625 0 
L 45.40625 0 
L 45.40625 8.203125 
Q 42.578125 3.328125 38.25 0.953125 
Q 33.9375 -1.421875 27.875 -1.421875 
Q 17.96875 -1.421875 11.734375 6.484375 
Q 5.515625 14.40625 5.515625 27.296875 
Q 5.515625 40.1875 11.734375 48.09375 
Q 17.96875 56 27.875 56 
Q 33.9375 56 38.25 53.625 
Q 42.578125 51.265625 45.40625 46.390625 
M 14.796875 27.296875 
Q 14.796875 17.390625 18.875 11.75 
Q 22.953125 6.109375 30.078125 6.109375 
Q 37.203125 6.109375 41.296875 11.75 
Q 45.40625 17.390625 45.40625 27.296875 
Q 45.40625 37.203125 41.296875 42.84375 
Q 37.203125 48.484375 30.078125 48.484375 
Q 22.953125 48.484375 18.875 42.84375 
Q 14.796875 37.203125 14.796875 27.296875 
" id="BitstreamVeraSans-Roman-64"/>
     <path d="M 44.28125 53.078125 
L 44.28125 44.578125 
Q 40.484375 46.53125 36.375 47.5 
Q 32.28125 48.484375 27.875 48.484375 
Q 21.1875 48.484375 17.84375 46.4375 
Q 14.5 44.390625 14.5 40.28125 
Q 14.5 37.15625 16.890625 35.375 
Q 19.28125 33.59375 26.515625 31.984375 
L 29.59375 31.296875 
Q 39.15625 29.25 43.1875 25.515625 
Q 47.21875 21.78125 47.21875 15.09375 
Q 47.21875 7.46875 41.1875 3.015625 
Q 35.15625 -1.421875 24.609375 -1.421875 
Q 20.21875 -1.421875 15.453125 -0.5625 
Q 10.6875 0.296875 5.421875 2 
L 5.421875 11.28125 
Q 10.40625 8.6875 15.234375 7.390625 
Q 20.0625 6.109375 24.8125 6.109375 
Q 31.15625 6.109375 34.5625 8.28125 
Q 37.984375 10.453125 37.984375 14.40625 
Q 37.984375 18.0625 35.515625 20.015625 
Q 33.0625 21.96875 24.703125 23.78125 
L 21.578125 24.515625 
Q 13.234375 26.265625 9.515625 29.90625 
Q 5.8125 33.546875 5.8125 39.890625 
Q 5.8125 47.609375 11.28125 51.796875 
Q 16.75 56 26.8125 56 
Q 31.78125 56 36.171875 55.265625 
Q 40.578125 54.546875 44.28125 53.078125 
" id="BitstreamVeraSans-Roman-73"/>
     <path d="M 56.203125 29.59375 
L 56.203125 25.203125 
L 14.890625 25.203125 
Q 15.484375 15.921875 20.484375 11.0625 
Q 25.484375 6.203125 34.421875 6.203125 
Q 39.59375 6.203125 44.453125 7.46875 
Q 49.3125 8.734375 54.109375 11.28125 
L 54.109375 2.78125 
Q 49.265625 0.734375 44.1875 -0.34375 
Q 39.109375 -1.421875 33.890625 -1.421875 
Q 20.796875 -1.421875 13.15625 6.1875 
Q 5.515625 13.8125 5.515625 26.8125 
Q 5.515625 40.234375 12.765625 48.109375 
Q 20.015625 56 32.328125 56 
Q 43.359375 56 49.78125 48.890625 
Q 56.203125 41.796875 56.203125 29.59375 
M 47.21875 32.234375 
Q 47.125 39.59375 43.09375 43.984375 
Q 39.0625 48.390625 32.421875 48.390625 
Q 24.90625 48.390625 20.390625 44.140625 
Q 15.875 39.890625 15.1875 32.171875 
z
" id="BitstreamVeraSans-Roman-65"/>
     <path d="M 54.890625 33.015625 
L 54.890625 0 
L 45.90625 0 
L 45.90625 32.71875 
Q 45.90625 40.484375 42.875 44.328125 
Q 39.84375 48.1875 33.796875 48.1875 
Q 26.515625 48.1875 22.3125 43.546875 
Q 18.109375 38.921875 18.109375 30.90625 
L 18.109375 0 
L 9.078125 0 
L 9.078125 54.6875 
L 18.109375 54.6875 
L 18.109375 46.1875 
Q 21.34375 51.125 25.703125 53.5625 
Q 30.078125 56 35.796875 56 
Q 45.21875 56 50.046875 50.171875 
Q 54.890625 44.34375 54.890625 33.015625 
" id="BitstreamVeraSans-Roman-6e"/>
    </defs>
    <g transform="translate(180.02484375 411.094375)scale(0.26 -0.26)">
     <use xlink:href="#BitstreamVeraSans-Roman-42"/>
     <use x="68.587890625" xlink:href="#BitstreamVeraSans-Roman-43"/>
     <use x="138.412109375" xlink:href="#BitstreamVeraSans-Roman-53"/>
     <use x="201.888671875" xlink:href="#BitstreamVeraSans-Roman-20"/>
     <use x="233.67578125" xlink:href="#BitstreamVeraSans-Roman-43"/>
     <use x="303.5" xlink:href="#BitstreamVeraSans-Roman-6f"/>
     <use x="364.681640625" xlink:href="#BitstreamVeraSans-Roman-6e"/>
     <use x="428.060546875" xlink:href="#BitstreamVeraSans-Roman-64"/>
     <use x="491.537109375" xlink:href="#BitstreamVeraSans-Roman-65"/>
     <use x="553.060546875" xlink:href="#BitstreamVeraSans-Roman-6e"/>
     <use x="616.439453125" xlink:href="#BitstreamVeraSans-Roman-73"/>
     <use x="668.5390625" xlink:href="#BitstreamVeraSans-Roman-61"/>
     <use x="729.818359375" xlink:href="#BitstreamVeraSans-Roman-74"/>
     <use x="769.02734375" xlink:href="#BitstreamVeraSans-Roman-65"/>
    </g>
   </g>
   <g id="text_2">
    <!-- $E(k)$ -->
    <defs>
     <path d="M 5.328125 1.8125 
Q 5.328125 2.390625 5.421875 2.6875 
L 19.921875 60.5 
Q 20.3125 62.203125 20.40625 63.1875 
Q 20.40625 64.796875 13.921875 64.796875 
Q 12.890625 64.796875 12.890625 66.109375 
Q 12.9375 66.359375 13.109375 66.984375 
Q 13.28125 67.625 13.546875 67.96875 
Q 13.8125 68.3125 14.3125 68.3125 
L 27.78125 69.390625 
L 28.078125 69.390625 
Q 28.078125 69.28125 28.421875 69.109375 
Q 28.765625 68.953125 28.8125 68.890625 
Q 29 68.40625 29 68.109375 
L 18.5 26.3125 
Q 22.125 27.828125 27.609375 33.515625 
Q 33.109375 39.203125 36.203125 41.6875 
Q 39.3125 44.1875 44 44.1875 
Q 46.78125 44.1875 48.734375 42.28125 
Q 50.6875 40.375 50.6875 37.59375 
Q 50.6875 35.84375 49.953125 34.34375 
Q 49.21875 32.859375 47.890625 31.921875 
Q 46.578125 31 44.828125 31 
Q 43.21875 31 42.109375 32 
Q 41.015625 33.015625 41.015625 34.625 
Q 41.015625 37.015625 42.703125 38.640625 
Q 44.390625 40.28125 46.78125 40.28125 
Q 45.796875 41.609375 43.796875 41.609375 
Q 40.828125 41.609375 38.0625 39.890625 
Q 35.296875 38.1875 32.09375 34.984375 
Q 28.90625 31.78125 26.265625 29.125 
Q 23.640625 26.46875 21.390625 25.09375 
Q 27.296875 24.421875 31.640625 22 
Q 35.984375 19.578125 35.984375 14.59375 
Q 35.984375 13.578125 35.59375 12.015625 
Q 34.71875 8.25 34.71875 6 
Q 34.71875 1.515625 37.796875 1.515625 
Q 41.40625 1.515625 43.28125 5.46875 
Q 45.171875 9.421875 46.390625 14.703125 
Q 46.578125 15.28125 47.21875 15.28125 
L 48.390625 15.28125 
Q 48.78125 15.28125 49.046875 15.03125 
Q 49.3125 14.796875 49.3125 14.40625 
Q 49.3125 14.3125 49.21875 14.109375 
Q 45.453125 -1.125 37.59375 -1.125 
Q 34.765625 -1.125 32.59375 0.1875 
Q 30.421875 1.515625 29.25 3.78125 
Q 28.078125 6.0625 28.078125 8.890625 
Q 28.078125 10.5 28.515625 12.203125 
Q 28.8125 13.375 28.8125 14.40625 
Q 28.8125 18.265625 25.390625 20.265625 
Q 21.96875 22.265625 17.578125 22.703125 
L 12.5 2.296875 
Q 12.109375 0.78125 10.984375 -0.171875 
Q 9.859375 -1.125 8.40625 -1.125 
Q 7.125 -1.125 6.21875 -0.265625 
Q 5.328125 0.59375 5.328125 1.8125 
" id="Cmmi10-6b"/>
     <path d="M 31 -24.8125 
Q 25.4375 -20.40625 21.40625 -14.71875 
Q 17.390625 -9.03125 14.8125 -2.578125 
Q 12.25 3.859375 10.984375 10.890625 
Q 9.71875 17.921875 9.71875 25 
Q 9.71875 32.171875 10.984375 39.203125 
Q 12.25 46.234375 14.859375 52.734375 
Q 17.484375 59.234375 21.53125 64.890625 
Q 25.59375 70.5625 31 74.8125 
Q 31 75 31.5 75 
L 32.421875 75 
Q 32.71875 75 32.953125 74.734375 
Q 33.203125 74.46875 33.203125 74.125 
Q 33.203125 73.6875 33.015625 73.484375 
Q 28.125 68.703125 24.875 63.234375 
Q 21.625 57.765625 19.640625 51.578125 
Q 17.671875 45.40625 16.796875 38.78125 
Q 15.921875 32.171875 15.921875 25 
Q 15.921875 -6.78125 32.90625 -23.296875 
Q 33.203125 -23.578125 33.203125 -24.125 
Q 33.203125 -24.359375 32.9375 -24.671875 
Q 32.671875 -25 32.421875 -25 
L 31.5 -25 
Q 31 -25 31 -24.8125 
" id="Cmr10-28"/>
     <path d="M 4.6875 0 
Q 3.71875 0 3.71875 1.3125 
Q 3.765625 1.5625 3.90625 2.171875 
Q 4.046875 2.78125 4.3125 3.140625 
Q 4.59375 3.515625 4.984375 3.515625 
Q 11.078125 3.515625 13.484375 4.203125 
Q 14.796875 4.640625 15.375 6.890625 
L 29.109375 61.8125 
Q 29.296875 62.796875 29.296875 63.1875 
Q 29.296875 64.265625 28.078125 64.40625 
Q 26.21875 64.796875 20.90625 64.796875 
Q 19.921875 64.796875 19.921875 66.109375 
Q 19.96875 66.359375 20.109375 66.96875 
Q 20.265625 67.578125 20.53125 67.9375 
Q 20.796875 68.3125 21.1875 68.3125 
L 75.390625 68.3125 
Q 76.421875 68.3125 76.421875 67 
L 74.03125 46.296875 
Q 74.03125 46.046875 73.65625 45.71875 
Q 73.296875 45.40625 73 45.40625 
L 72.125 45.40625 
Q 71.09375 45.40625 71.09375 46.6875 
Q 71.6875 51.5625 71.6875 53.90625 
Q 71.6875 57.90625 70.3125 60.125 
Q 68.953125 62.359375 66.671875 63.328125 
Q 64.40625 64.3125 61.640625 64.546875 
Q 58.890625 64.796875 54.390625 64.796875 
L 43.015625 64.796875 
Q 40.28125 64.796875 39.40625 64.328125 
Q 38.53125 63.875 37.796875 61.375 
L 31.78125 37.203125 
L 39.59375 37.203125 
Q 44.671875 37.203125 47.265625 37.90625 
Q 49.859375 38.625 51.359375 40.859375 
Q 52.875 43.109375 54.109375 48 
Q 54.203125 48.34375 54.46875 48.609375 
Q 54.734375 48.875 55.078125 48.875 
L 56 48.875 
Q 56.984375 48.875 56.984375 47.609375 
L 50.78125 22.90625 
Q 50.59375 22.015625 49.8125 22.015625 
L 48.875 22.015625 
Q 47.90625 22.015625 47.90625 23.296875 
Q 48.875 27.296875 48.875 29.203125 
Q 48.875 32.125 46.234375 32.90625 
Q 43.609375 33.6875 39.203125 33.6875 
L 30.90625 33.6875 
L 24.125 6.5 
Q 23.6875 5.28125 23.6875 4.296875 
Q 23.6875 3.515625 27.09375 3.515625 
L 39.203125 3.515625 
Q 46.4375 3.515625 50.921875 4.640625 
Q 55.421875 5.765625 58.375 8.21875 
Q 61.328125 10.6875 63.46875 14.5 
Q 65.625 18.3125 68.703125 25.59375 
Q 68.890625 26.21875 69.578125 26.21875 
L 70.515625 26.21875 
Q 70.90625 26.21875 71.1875 25.875 
Q 71.484375 25.53125 71.484375 25.09375 
Q 71.484375 24.90625 71.390625 24.703125 
L 61.078125 0.59375 
Q 60.890625 0 60.296875 0 
z
" id="Cmmi10-45"/>
     <path d="M 6.5 -25 
Q 5.609375 -25 5.609375 -24.125 
Q 5.609375 -23.6875 5.8125 -23.484375 
Q 22.90625 -6.78125 22.90625 25 
Q 22.90625 56.78125 6 73.296875 
Q 5.609375 73.53125 5.609375 74.125 
Q 5.609375 74.46875 5.875 74.734375 
Q 6.15625 75 6.5 75 
L 7.421875 75 
Q 7.71875 75 7.90625 74.8125 
Q 15.09375 69.140625 19.875 61.03125 
Q 24.65625 52.9375 26.875 43.75 
Q 29.109375 34.578125 29.109375 25 
Q 29.109375 17.921875 27.90625 11.0625 
Q 26.703125 4.203125 24.09375 -2.453125 
Q 21.484375 -9.125 17.484375 -14.765625 
Q 13.484375 -20.40625 7.90625 -24.8125 
Q 7.71875 -25 7.421875 -25 
z
" id="Cmr10-29"/>
    </defs>
    <g transform="translate(261.48 21.58)scale(0.26 -0.26)">
     <use xlink:href="#Cmmi10-45"/>
     <use transform="translate(73.779296875 0.0)" xlink:href="#Cmr10-28"/>
     <use transform="translate(112.59765625 0.0)" xlink:href="#Cmmi10-6b"/>
     <use transform="translate(164.599609375 0.0)" xlink:href="#Cmr10-29"/>
    </g>
   </g>
   <g id="text_3">
    <!-- $-\Omega_z$ -->
    <defs>
     <path d="M 10.203125 23 
Q 9.375 23 8.828125 23.625 
Q 8.296875 24.265625 8.296875 25 
Q 8.296875 25.734375 8.828125 26.359375 
Q 9.375 27 10.203125 27 
L 67.578125 27 
Q 68.359375 27 68.875 26.359375 
Q 69.390625 25.734375 69.390625 25 
Q 69.390625 24.265625 68.875 23.625 
Q 68.359375 23 67.578125 23 
z
" id="Cmsy10-a1"/>
     <path d="M 7.71875 0 
L 4.390625 16.609375 
L 7.328125 16.609375 
Q 7.859375 13.71875 8.296875 11.5 
Q 8.734375 9.28125 9.4375 8.375 
Q 10.15625 7.46875 11.71875 7.171875 
Q 13.28125 6.890625 16.890625 6.890625 
L 23 6.890625 
Q 21.53125 12.546875 15.6875 21.65625 
Q 9.859375 30.765625 7.734375 34.890625 
Q 5.609375 39.015625 5.609375 45.515625 
Q 5.609375 53.078125 10.09375 58.765625 
Q 14.59375 64.453125 21.703125 67.484375 
Q 28.8125 70.515625 36.078125 70.515625 
Q 43.3125 70.515625 50.40625 67.484375 
Q 57.515625 64.453125 62 58.71875 
Q 66.5 52.984375 66.5 45.515625 
Q 66.5 40.4375 64.640625 35.9375 
Q 62.796875 31.453125 59.90625 26.953125 
Q 57.03125 22.46875 53.6875 16.9375 
Q 50.34375 11.421875 49.125 6.890625 
L 55.171875 6.890625 
Q 58.84375 6.890625 60.453125 7.171875 
Q 62.0625 7.46875 62.734375 8.375 
Q 63.421875 9.28125 63.84375 11.5 
Q 64.265625 13.71875 64.796875 16.609375 
L 67.671875 16.609375 
L 64.40625 0 
L 46.6875 0 
Q 45.703125 0 45.703125 1.3125 
Q 45.703125 6.390625 46.9375 11.265625 
Q 48.1875 16.15625 50.625 23.09375 
Q 53.078125 30.03125 54.4375 35.328125 
Q 55.8125 40.625 55.8125 45.515625 
Q 55.8125 51.515625 53.46875 56.640625 
Q 51.125 61.765625 46.625 64.84375 
Q 42.140625 67.921875 36.078125 67.921875 
Q 26.953125 67.921875 21.625 61.40625 
Q 16.3125 54.890625 16.3125 45.515625 
Q 16.359375 40.375 17.53125 35.828125 
Q 18.703125 31.296875 21.3125 23.71875 
Q 23.921875 16.15625 25.171875 11.265625 
Q 26.421875 6.390625 26.421875 1.3125 
Q 26.421875 0 25.390625 0 
z
" id="Cmr10-ad"/>
     <path d="M 4.890625 -1.125 
Q 4.109375 -1.125 4.109375 -0.203125 
Q 4.109375 0.296875 4.296875 0.484375 
Q 6.984375 5.125 10.765625 9.34375 
Q 14.546875 13.578125 19.359375 17.890625 
Q 24.171875 22.21875 29.03125 26.5625 
Q 33.890625 30.90625 36.921875 34.28125 
L 36.53125 34.28125 
Q 34.328125 34.28125 30.078125 35.6875 
Q 25.828125 37.109375 23.390625 37.109375 
Q 20.75 37.109375 18.25 35.953125 
Q 15.765625 34.8125 15.09375 32.421875 
Q 14.9375 31.6875 14.3125 31.6875 
L 13.09375 31.6875 
Q 12.3125 31.6875 12.3125 32.71875 
L 12.3125 33.015625 
Q 13.09375 35.9375 14.875 38.46875 
Q 16.65625 41.015625 19.265625 42.59375 
Q 21.875 44.1875 24.703125 44.1875 
Q 26.703125 44.1875 28.015625 43.28125 
Q 29.34375 42.390625 31.09375 40.484375 
Q 32.859375 38.578125 33.953125 37.75 
Q 35.0625 36.921875 36.71875 36.921875 
Q 38.921875 36.921875 40.65625 38.921875 
Q 42.390625 40.921875 44.09375 43.890625 
Q 44.390625 44.1875 44.828125 44.1875 
L 46 44.1875 
Q 46.34375 44.1875 46.5625 43.9375 
Q 46.78125 43.703125 46.78125 43.3125 
Q 46.78125 42.96875 46.578125 42.671875 
Q 43.890625 38.03125 40.296875 34 
Q 36.71875 29.984375 30.921875 24.78125 
Q 25.140625 19.578125 21.15625 15.984375 
Q 17.1875 12.40625 13.71875 8.59375 
Q 14.5 8.796875 15.828125 8.796875 
Q 18.265625 8.796875 22.484375 7.390625 
Q 26.703125 6 29 6 
Q 31.5 6 34.03125 7.078125 
Q 36.578125 8.15625 38.421875 10.109375 
Q 40.28125 12.0625 40.921875 14.59375 
Q 41.15625 15.28125 41.703125 15.28125 
L 42.921875 15.28125 
Q 43.3125 15.28125 43.546875 14.96875 
Q 43.796875 14.65625 43.796875 14.3125 
Q 43.796875 14.203125 43.703125 14.015625 
Q 42.78125 10.203125 40.484375 6.765625 
Q 38.1875 3.328125 34.84375 1.09375 
Q 31.5 -1.125 27.6875 -1.125 
Q 25.78125 -1.125 24.453125 -0.234375 
Q 23.140625 0.640625 21.359375 2.5625 
Q 19.578125 4.5 18.453125 5.34375 
Q 17.328125 6.203125 15.71875 6.203125 
Q 10.75 6.203125 6.78125 -0.78125 
Q 6.453125 -1.125 6.109375 -1.125 
z
" id="Cmmi10-7a"/>
    </defs>
    <g transform="translate(100.33 28.08)scale(0.26 -0.26)">
     <use transform="translate(0.0 0.484375)" xlink:href="#Cmsy10-a1"/>
     <use transform="translate(77.685546875 0.484375)" xlink:href="#Cmr10-ad"/>
     <use transform="translate(154.366484375 -16.521874999999994)scale(0.7)" xlink:href="#Cmmi10-7a"/>
    </g>
   </g>
   <g id="text_4">
    <!-- $+\Omega_z$ -->
    <defs>
     <path d="M 7.515625 23 
Q 6.6875 23 6.140625 23.625 
Q 5.609375 24.265625 5.609375 25 
Q 5.609375 25.734375 6.140625 26.359375 
Q 6.6875 27 7.515625 27 
L 36.921875 27 
L 36.921875 56.5 
Q 36.921875 57.28125 37.5 57.78125 
Q 38.09375 58.296875 38.921875 58.296875 
Q 39.65625 58.296875 40.28125 57.78125 
Q 40.921875 57.28125 40.921875 56.5 
L 40.921875 27 
L 70.3125 27 
Q 71.046875 27 71.578125 26.359375 
Q 72.125 25.734375 72.125 25 
Q 72.125 24.265625 71.578125 23.625 
Q 71.046875 23 70.3125 23 
L 40.921875 23 
L 40.921875 -6.5 
Q 40.921875 -7.28125 40.28125 -7.78125 
Q 39.65625 -8.296875 38.921875 -8.296875 
Q 38.09375 -8.296875 37.5 -7.78125 
Q 36.921875 -7.28125 36.921875 -6.5 
L 36.921875 23 
z
" id="Cmr10-2b"/>
    </defs>
    <g transform="translate(425.23 28.08)scale(0.26 -0.26)">
     <use transform="translate(0.0 0.484375)" xlink:href="#Cmr10-2b"/>
     <use transform="translate(77.685546875 0.484375)" xlink:href="#Cmr10-ad"/>
     <use transform="translate(154.366484375 -16.521874999999994)scale(0.7)" xlink:href="#Cmmi10-7a"/>
    </g>
   </g>
   <g id="text_5">
    <!-- $\mathbf{\epsilon}_+$ -->
    <defs>
     <path d="M 12.3125 14.109375 
Q 12.3125 10.75 13.53125 7.859375 
Q 14.75 4.984375 17.203125 3.25 
Q 19.671875 1.515625 23 1.515625 
Q 25.25 1.515625 27.78125 2.484375 
Q 30.328125 3.46875 32.5 4.640625 
Q 34.671875 5.8125 34.71875 5.8125 
Q 35.25 5.8125 35.5625 5.203125 
Q 35.890625 4.59375 35.890625 4 
Q 35.890625 3.46875 35.59375 3.328125 
Q 29.34375 -1.125 22.90625 -1.125 
Q 17.625 -1.125 13.375 1.34375 
Q 9.125 3.8125 6.8125 8.203125 
Q 4.5 12.59375 4.5 17.828125 
Q 4.5 23 6.59375 27.65625 
Q 8.6875 32.328125 12.390625 35.796875 
Q 16.109375 39.265625 20.796875 41.1875 
Q 25.484375 43.109375 30.609375 43.109375 
L 36.28125 43.109375 
Q 37.796875 43.109375 37.796875 41.609375 
Q 37.796875 40.765625 37.234375 40.171875 
Q 36.671875 39.59375 35.890625 39.59375 
L 30.421875 39.59375 
Q 26.421875 39.59375 23.171875 37.828125 
Q 19.921875 36.078125 17.71875 32.953125 
Q 15.53125 29.828125 14.3125 25.875 
L 31.984375 25.875 
Q 32.671875 25.875 33.078125 25.453125 
Q 33.5 25.046875 33.5 24.421875 
Q 33.5 23.578125 32.953125 22.984375 
Q 32.421875 22.40625 31.59375 22.40625 
L 13.375 22.40625 
Q 12.3125 17.234375 12.3125 14.109375 
" id="Cmmi10-b2"/>
    </defs>
    <g transform="translate(292.4136 230.1183625)scale(0.26 -0.26)">
     <use transform="translate(0.0 0.890625)" xlink:href="#Cmmi10-b2"/>
     <use transform="translate(52.76953125 -16.115625)scale(0.7)" xlink:href="#Cmr10-2b"/>
    </g>
   </g>
  </g>
 </g>
 <defs>
  <clipPath id="pdf48551321">
   <rect height="375.84" width="519.84" x="28.08" y="28.08"/>
  </clipPath>
 </defs>
</svg>
