<?xml version="1.0" encoding="utf-8" standalone="no"?>
<!DOCTYPE svg PUBLIC "-//W3C//DTD SVG 1.1//EN"
  "http://www.w3.org/Graphics/SVG/1.1/DTD/svg11.dtd">
<!-- Created with matplotlib (http://matplotlib.org/) -->
<svg height="432pt" version="1.1" viewBox="0 0 576 432" width="576pt" xmlns="http://www.w3.org/2000/svg" xmlns:xlink="http://www.w3.org/1999/xlink">
 <defs>
  <style type="text/css">
*{stroke-linecap:butt;stroke-linejoin:round;stroke-miterlimit:100000;}
  </style>
 </defs>
 <g id="figure_1">
  <g id="patch_1">
   <path d="M 0 432 
L 576 432 
L 576 0 
L 0 0 
L 0 432 
z
" style="fill:none;"/>
  </g>
  <g id="axes_1">
   <g id="patch_2">
    <path d="M 83.410313 181.470234 
L 546.252187 181.470234 
L 546.252187 27.279844 
L 83.410313 27.279844 
L 83.410313 181.470234 
z
" style="fill:none;"/>
   </g>
   <g id="line2d_1">
    <path clip-path="url(#pb75105a1c1)" d="M 83.410313 116.238084 
L 88.085483 116.383829 
L 92.760653 116.529268 
L 97.435824 116.674442 
L 102.110994 116.819399 
L 106.786165 116.964191 
L 111.461335 117.108872 
L 116.136506 117.253507 
L 120.811676 117.398164 
L 125.486847 117.542921 
L 130.162017 117.687864 
L 134.837187 117.83309 
L 139.512358 117.978709 
L 144.187528 118.124845 
L 148.862699 118.271638 
L 153.537869 118.419248 
L 158.21304 118.56786 
L 162.88821 118.717686 
L 167.563381 118.86897 
L 172.238551 119.022 
L 176.913722 119.177108 
L 181.588892 119.334688 
L 186.264063 119.495206 
L 190.939233 119.659217 
L 195.614403 119.827386 
L 200.289574 120.00052 
L 204.964744 120.1796 
L 209.639915 120.365835 
L 214.315085 120.560723 
L 218.990256 120.766146 
L 223.665426 120.984491 
L 228.340597 121.218827 
L 233.015767 121.473155 
L 237.690938 121.752773 
L 242.366108 122.064824 
L 247.041278 122.419144 
L 251.716449 122.829593 
L 256.391619 123.316268 
L 261.06679 123.90929 
L 265.74196 124.655711 
L 270.417131 125.632961 
L 275.092301 126.977627 
L 279.767472 128.955899 
L 284.442642 132.178739 
L 289.117813 138.669383 
M 340.544688 164.655301 
L 345.219858 170.946299 
L 349.895028 174.011559 
L 354.570199 175.847531 
L 359.245369 177.057674 
L 363.92054 177.904934 
L 368.59571 178.5242 
L 373.270881 178.991905 
L 377.946051 179.354465 
L 382.621222 179.641578 
L 387.296392 179.87304 
L 391.971563 180.062497 
L 396.646733 180.219619 
L 401.321903 180.351428 
L 405.997074 180.463123 
L 410.672244 180.558628 
L 415.347415 180.640948 
L 420.022585 180.712418 
L 424.697756 180.774878 
L 429.372926 180.829789 
L 434.048097 180.878328 
L 438.723267 180.921449 
L 443.398438 180.959936 
L 448.073608 180.994432 
L 452.748778 181.025474 
L 457.423949 181.053511 
L 462.099119 181.078921 
L 466.77429 181.102023 
L 471.44946 181.123092 
L 476.124631 181.142359 
L 480.799801 181.160026 
L 485.474972 181.176266 
L 490.150142 181.191229 
L 494.825312 181.205048 
L 499.500483 181.217836 
L 504.175653 181.229693 
L 508.850824 181.24071 
L 513.525994 181.250963 
L 518.201165 181.260523 
L 522.876335 181.26945 
L 527.551506 181.2778 
L 532.226676 181.285621 
L 536.901847 181.292958 
L 541.577017 181.299851 
L 546.252187 181.306333 
" style="fill:none;stroke:#000000;stroke-linecap:square;stroke-width:2.0;"/>
   </g>
   <g id="line2d_2">
    <path clip-path="url(#pb75105a1c1)" d="M 83.410313 68.758191 
L 88.085483 68.939518 
L 92.760653 69.12092 
L 97.435824 69.302466 
L 102.110994 69.484232 
L 106.786165 69.6663 
L 111.461335 69.848765 
L 116.136506 70.031729 
L 120.811676 70.215309 
L 125.486847 70.399635 
L 130.162017 70.584851 
L 134.837187 70.771123 
L 139.512358 70.958637 
L 144.187528 71.147604 
L 148.862699 71.338265 
L 153.537869 71.530897 
L 158.21304 71.725818 
L 162.88821 71.923393 
L 167.563381 72.12405 
L 172.238551 72.328283 
L 176.913722 72.536676 
L 181.588892 72.749914 
L 186.264063 72.968811 
L 190.939233 73.194339 
L 195.614403 73.427663 
L 200.289574 73.670197 
L 204.964744 73.923665 
L 209.639915 74.190188 
L 214.315085 74.472404 
L 218.990256 74.773624 
L 223.665426 75.09805 
L 228.340597 75.451092 
L 233.015767 75.8398 
L 237.690938 76.27352 
L 242.366108 76.764862 
L 247.041278 77.331187 
L 251.716449 77.996981 
L 256.391619 78.797755 
L 261.06679 79.786762 
L 265.74196 81.047218 
L 270.417131 82.71612 
L 275.092301 85.035226 
L 279.767472 88.475878 
L 284.442642 94.120293 
L 289.117813 105.55336 
M 340.544688 151.645193 
L 345.219858 162.820666 
L 349.895028 168.262132 
L 354.570199 171.519794 
L 359.245369 173.666155 
L 363.92054 175.168356 
L 368.59571 176.26596 
L 373.270881 177.094673 
L 377.946051 177.736892 
L 382.621222 178.245323 
L 387.296392 178.65509 
L 391.971563 178.9904 
L 396.646733 179.26841 
L 401.321903 179.501568 
L 405.997074 179.699096 
L 410.672244 179.867948 
L 415.347415 180.013452 
L 420.022585 180.139748 
L 424.697756 180.250093 
L 429.372926 180.347078 
L 434.048097 180.432788 
L 438.723267 180.508914 
L 443.398438 180.57684 
L 448.073608 180.637709 
L 452.748778 180.692471 
L 457.423949 180.741919 
L 462.099119 180.786723 
L 466.77429 180.82745 
L 471.44946 180.864582 
L 476.124631 180.898531 
L 480.799801 180.929654 
L 485.474972 180.958257 
L 490.150142 180.984606 
L 494.825312 181.008933 
L 499.500483 181.03144 
L 504.175653 181.052306 
L 508.850824 181.071687 
L 513.525994 181.089722 
L 518.201165 181.106533 
L 522.876335 181.122228 
L 527.551506 181.136906 
L 532.226676 181.150651 
L 536.901847 181.163543 
L 541.577017 181.175651 
L 546.252187 181.187036 
" style="fill:none;stroke:#000000;stroke-dasharray:6.000000,6.000000;stroke-dashoffset:0.0;stroke-width:2.0;"/>
   </g>
   <g id="line2d_3">
    <path clip-path="url(#pb75105a1c1)" d="M 83.410313 93.595945 
L 88.085483 93.747862 
L 92.760653 93.899738 
L 97.435824 94.051628 
L 102.110994 94.203591 
L 106.786165 94.355693 
L 111.461335 94.508008 
L 116.136506 94.660617 
L 120.811676 94.813611 
L 125.486847 94.967092 
L 130.162017 95.121174 
L 134.837187 95.275986 
L 139.512358 95.431673 
L 144.187528 95.588401 
L 148.862699 95.746359 
L 153.537869 95.905761 
L 158.21304 96.066855 
L 162.88821 96.229928 
L 167.563381 96.395311 
L 172.238551 96.563391 
L 176.913722 96.734621 
L 181.588892 96.909535 
L 186.264063 97.088765 
L 190.939233 97.273068 
L 195.614403 97.463351 
L 200.289574 97.660712 
L 204.964744 97.866491 
L 209.639915 98.082337 
L 214.315085 98.3103 
L 218.990256 98.552952 
L 223.665426 98.813559 
L 228.340597 99.096321 
L 233.015767 99.406715 
L 237.690938 99.752 
L 242.366108 100.141967 
L 247.041278 100.590098 
L 251.716449 101.115404 
L 256.391619 101.745454 
L 261.06679 102.521589 
L 265.74196 103.508405 
L 270.417131 104.812239 
L 275.092301 106.620727 
L 279.767472 109.299672 
L 284.442642 113.688911 
L 289.117813 122.57029 
M 340.544688 158.33054 
L 345.219858 166.998645 
L 349.895028 171.219761 
L 354.570199 173.747048 
L 359.245369 175.412308 
L 363.92054 176.57787 
L 368.59571 177.429554 
L 373.270881 178.072628 
L 377.946051 178.571011 
L 382.621222 178.96559 
L 387.296392 179.283615 
L 391.971563 179.543866 
L 396.646733 179.759653 
L 401.321903 179.940636 
L 405.997074 180.093968 
L 410.672244 180.225047 
L 415.347415 180.338007 
L 420.022585 180.436059 
L 424.697756 180.52173 
L 429.372926 180.597033 
L 434.048097 180.663584 
L 438.723267 180.722695 
L 443.398438 180.775443 
L 448.073608 180.822711 
L 452.748778 180.865239 
L 457.423949 180.903642 
L 462.099119 180.93844 
L 466.77429 180.970073 
L 471.44946 180.998914 
L 476.124631 181.025285 
L 480.799801 181.049461 
L 485.474972 181.07168 
L 490.150142 181.092149 
L 494.825312 181.111048 
L 499.500483 181.128535 
L 504.175653 181.144747 
L 508.850824 181.159806 
L 513.525994 181.173819 
L 518.201165 181.186881 
L 522.876335 181.199078 
L 527.551506 181.210483 
L 532.226676 181.221165 
L 536.901847 181.231184 
L 541.577017 181.240594 
L 546.252187 181.249443 
" style="fill:none;stroke:#000000;stroke-dasharray:1.000000,3.000000;stroke-dashoffset:0.0;stroke-width:2.0;"/>
   </g>
   <g id="patch_3">
    <path d="M 83.410313 181.470234 
L 83.410313 27.279844 
" style="fill:none;stroke:#000000;stroke-linecap:square;stroke-linejoin:miter;"/>
   </g>
   <g id="patch_4">
    <path d="M 83.410313 27.279844 
L 546.252187 27.279844 
" style="fill:none;stroke:#000000;stroke-linecap:square;stroke-linejoin:miter;"/>
   </g>
   <g id="patch_5">
    <path d="M 546.252187 181.470234 
L 546.252187 27.279844 
" style="fill:none;stroke:#000000;stroke-linecap:square;stroke-linejoin:miter;"/>
   </g>
   <g id="patch_6">
    <path d="M 83.410313 181.470234 
L 546.252187 181.470234 
" style="fill:none;stroke:#000000;stroke-linecap:square;stroke-linejoin:miter;"/>
   </g>
   <g id="matplotlib.axis_1">
    <g id="ytick_1">
     <g id="line2d_4">
      <defs>
       <path d="M 0 0 
L 4 0 
" id="m95f985c205" style="stroke:#000000;stroke-width:0.5;"/>
      </defs>
      <g>
       <use style="stroke:#000000;stroke-width:0.5;" x="83.4103125" xlink:href="#m95f985c205" y="181.470234375"/>
      </g>
     </g>
     <g id="line2d_5">
      <defs>
       <path d="M 0 0 
L -4 0 
" id="m6d2e48e15f" style="stroke:#000000;stroke-width:0.5;"/>
      </defs>
      <g>
       <use style="stroke:#000000;stroke-width:0.5;" x="546.2521875" xlink:href="#m6d2e48e15f" y="181.470234375"/>
      </g>
     </g>
     <g id="text_1">
      <!-- 0 -->
      <defs>
       <path d="M 31.78125 66.40625 
Q 24.171875 66.40625 20.328125 58.90625 
Q 16.5 51.421875 16.5 36.375 
Q 16.5 21.390625 20.328125 13.890625 
Q 24.171875 6.390625 31.78125 6.390625 
Q 39.453125 6.390625 43.28125 13.890625 
Q 47.125 21.390625 47.125 36.375 
Q 47.125 51.421875 43.28125 58.90625 
Q 39.453125 66.40625 31.78125 66.40625 
M 31.78125 74.21875 
Q 44.046875 74.21875 50.515625 64.515625 
Q 56.984375 54.828125 56.984375 36.375 
Q 56.984375 17.96875 50.515625 8.265625 
Q 44.046875 -1.421875 31.78125 -1.421875 
Q 19.53125 -1.421875 13.0625 8.265625 
Q 6.59375 17.96875 6.59375 36.375 
Q 6.59375 54.828125 13.0625 64.515625 
Q 19.53125 74.21875 31.78125 74.21875 
" id="BitstreamVeraSans-Roman-30"/>
      </defs>
      <g transform="translate(67.9578125 186.437109375)scale(0.18 -0.18)">
       <use xlink:href="#BitstreamVeraSans-Roman-30"/>
      </g>
     </g>
    </g>
    <g id="ytick_2">
     <g id="line2d_6">
      <g>
       <use style="stroke:#000000;stroke-width:0.5;" x="83.4103125" xlink:href="#m95f985c205" y="130.0734375"/>
      </g>
     </g>
     <g id="line2d_7">
      <g>
       <use style="stroke:#000000;stroke-width:0.5;" x="546.2521875" xlink:href="#m6d2e48e15f" y="130.0734375"/>
      </g>
     </g>
     <g id="text_2">
      <!-- 1 -->
      <defs>
       <path d="M 12.40625 8.296875 
L 28.515625 8.296875 
L 28.515625 63.921875 
L 10.984375 60.40625 
L 10.984375 69.390625 
L 28.421875 72.90625 
L 38.28125 72.90625 
L 38.28125 8.296875 
L 54.390625 8.296875 
L 54.390625 0 
L 12.40625 0 
z
" id="BitstreamVeraSans-Roman-31"/>
      </defs>
      <g transform="translate(67.9578125 135.0403125)scale(0.18 -0.18)">
       <use xlink:href="#BitstreamVeraSans-Roman-31"/>
      </g>
     </g>
    </g>
    <g id="ytick_3">
     <g id="line2d_8">
      <g>
       <use style="stroke:#000000;stroke-width:0.5;" x="83.4103125" xlink:href="#m95f985c205" y="78.676640625"/>
      </g>
     </g>
     <g id="line2d_9">
      <g>
       <use style="stroke:#000000;stroke-width:0.5;" x="546.2521875" xlink:href="#m6d2e48e15f" y="78.676640625"/>
      </g>
     </g>
     <g id="text_3">
      <!-- 2 -->
      <defs>
       <path d="M 19.1875 8.296875 
L 53.609375 8.296875 
L 53.609375 0 
L 7.328125 0 
L 7.328125 8.296875 
Q 12.9375 14.109375 22.625 23.890625 
Q 32.328125 33.6875 34.8125 36.53125 
Q 39.546875 41.84375 41.421875 45.53125 
Q 43.3125 49.21875 43.3125 52.78125 
Q 43.3125 58.59375 39.234375 62.25 
Q 35.15625 65.921875 28.609375 65.921875 
Q 23.96875 65.921875 18.8125 64.3125 
Q 13.671875 62.703125 7.8125 59.421875 
L 7.8125 69.390625 
Q 13.765625 71.78125 18.9375 73 
Q 24.125 74.21875 28.421875 74.21875 
Q 39.75 74.21875 46.484375 68.546875 
Q 53.21875 62.890625 53.21875 53.421875 
Q 53.21875 48.921875 51.53125 44.890625 
Q 49.859375 40.875 45.40625 35.40625 
Q 44.1875 33.984375 37.640625 27.21875 
Q 31.109375 20.453125 19.1875 8.296875 
" id="BitstreamVeraSans-Roman-32"/>
      </defs>
      <g transform="translate(67.9578125 83.643515625)scale(0.18 -0.18)">
       <use xlink:href="#BitstreamVeraSans-Roman-32"/>
      </g>
     </g>
    </g>
    <g id="ytick_4">
     <g id="line2d_10">
      <g>
       <use style="stroke:#000000;stroke-width:0.5;" x="83.4103125" xlink:href="#m95f985c205" y="27.27984375"/>
      </g>
     </g>
     <g id="line2d_11">
      <g>
       <use style="stroke:#000000;stroke-width:0.5;" x="546.2521875" xlink:href="#m6d2e48e15f" y="27.27984375"/>
      </g>
     </g>
     <g id="text_4">
      <!-- 3 -->
      <defs>
       <path d="M 40.578125 39.3125 
Q 47.65625 37.796875 51.625 33 
Q 55.609375 28.21875 55.609375 21.1875 
Q 55.609375 10.40625 48.1875 4.484375 
Q 40.765625 -1.421875 27.09375 -1.421875 
Q 22.515625 -1.421875 17.65625 -0.515625 
Q 12.796875 0.390625 7.625 2.203125 
L 7.625 11.71875 
Q 11.71875 9.328125 16.59375 8.109375 
Q 21.484375 6.890625 26.8125 6.890625 
Q 36.078125 6.890625 40.9375 10.546875 
Q 45.796875 14.203125 45.796875 21.1875 
Q 45.796875 27.640625 41.28125 31.265625 
Q 36.765625 34.90625 28.71875 34.90625 
L 20.21875 34.90625 
L 20.21875 43.015625 
L 29.109375 43.015625 
Q 36.375 43.015625 40.234375 45.921875 
Q 44.09375 48.828125 44.09375 54.296875 
Q 44.09375 59.90625 40.109375 62.90625 
Q 36.140625 65.921875 28.71875 65.921875 
Q 24.65625 65.921875 20.015625 65.03125 
Q 15.375 64.15625 9.8125 62.3125 
L 9.8125 71.09375 
Q 15.4375 72.65625 20.34375 73.4375 
Q 25.25 74.21875 29.59375 74.21875 
Q 40.828125 74.21875 47.359375 69.109375 
Q 53.90625 64.015625 53.90625 55.328125 
Q 53.90625 49.265625 50.4375 45.09375 
Q 46.96875 40.921875 40.578125 39.3125 
" id="BitstreamVeraSans-Roman-33"/>
      </defs>
      <g transform="translate(67.9578125 32.24671875)scale(0.18 -0.18)">
       <use xlink:href="#BitstreamVeraSans-Roman-33"/>
      </g>
     </g>
    </g>
    <g id="text_5">
     <!-- $\left| \left( c / ℏ \right) P_+\right|^2$ $\left(\mathregular{GeV}^2\right)$ -->
     <defs>
      <path d="M 11.71875 11.921875 
Q 11.71875 7.5625 13.9375 4.53125 
Q 16.15625 1.515625 20.3125 1.515625 
Q 26.265625 1.515625 31.75 4.25 
Q 37.25 6.984375 40.71875 11.8125 
Q 41.015625 12.109375 41.5 12.109375 
Q 42 12.109375 42.5 11.546875 
Q 43.015625 10.984375 43.015625 10.5 
Q 43.015625 10.109375 42.828125 9.90625 
Q 39.15625 4.78125 32.953125 1.828125 
Q 26.765625 -1.125 20.125 -1.125 
Q 15.328125 -1.125 11.671875 1.140625 
Q 8.015625 3.421875 6 7.21875 
Q 4 11.03125 4 15.828125 
Q 4 22.5625 7.765625 29.203125 
Q 11.53125 35.84375 17.78125 40.015625 
Q 24.03125 44.1875 30.90625 44.1875 
Q 35.40625 44.1875 38.984375 42.015625 
Q 42.578125 39.84375 42.578125 35.59375 
Q 42.578125 32.859375 40.984375 30.921875 
Q 39.40625 29 36.71875 29 
Q 35.109375 29 34 30 
Q 32.90625 31 32.90625 32.625 
Q 32.90625 34.96875 34.609375 36.625 
Q 36.328125 38.28125 38.625 38.28125 
L 38.8125 38.28125 
Q 37.640625 39.984375 35.421875 40.796875 
Q 33.203125 41.609375 30.8125 41.609375 
Q 24.953125 41.609375 20.546875 36.59375 
Q 16.15625 31.59375 13.9375 24.625 
Q 11.71875 17.671875 11.71875 11.921875 
" id="Cmmi10-63"/>
      <path id="BitstreamVeraSans-Roman-20"/>
      <path d="M 31 -24.8125 
Q 25.4375 -20.40625 21.40625 -14.71875 
Q 17.390625 -9.03125 14.8125 -2.578125 
Q 12.25 3.859375 10.984375 10.890625 
Q 9.71875 17.921875 9.71875 25 
Q 9.71875 32.171875 10.984375 39.203125 
Q 12.25 46.234375 14.859375 52.734375 
Q 17.484375 59.234375 21.53125 64.890625 
Q 25.59375 70.5625 31 74.8125 
Q 31 75 31.5 75 
L 32.421875 75 
Q 32.71875 75 32.953125 74.734375 
Q 33.203125 74.46875 33.203125 74.125 
Q 33.203125 73.6875 33.015625 73.484375 
Q 28.125 68.703125 24.875 63.234375 
Q 21.625 57.765625 19.640625 51.578125 
Q 17.671875 45.40625 16.796875 38.78125 
Q 15.921875 32.171875 15.921875 25 
Q 15.921875 -6.78125 32.90625 -23.296875 
Q 33.203125 -23.578125 33.203125 -24.125 
Q 33.203125 -24.359375 32.9375 -24.671875 
Q 32.671875 -25 32.421875 -25 
L 31.5 -25 
Q 31 -25 31 -24.8125 
" id="Cmr10-28"/>
      <path d="M 11.921875 -23.1875 
L 11.921875 73.1875 
Q 11.921875 73.96875 12.5 74.484375 
Q 13.09375 75 13.921875 75 
Q 14.65625 75 15.28125 74.484375 
Q 15.921875 73.96875 15.921875 73.1875 
L 15.921875 -23.1875 
Q 15.921875 -23.96875 15.28125 -24.484375 
Q 14.65625 -25 13.921875 -25 
Q 13.09375 -25 12.5 -24.484375 
Q 11.921875 -23.96875 11.921875 -23.1875 
" id="Cmsy10-6a"/>
      <path d="M 7.515625 23 
Q 6.6875 23 6.140625 23.625 
Q 5.609375 24.265625 5.609375 25 
Q 5.609375 25.734375 6.140625 26.359375 
Q 6.6875 27 7.515625 27 
L 36.921875 27 
L 36.921875 56.5 
Q 36.921875 57.28125 37.5 57.78125 
Q 38.09375 58.296875 38.921875 58.296875 
Q 39.65625 58.296875 40.28125 57.78125 
Q 40.921875 57.28125 40.921875 56.5 
L 40.921875 27 
L 70.3125 27 
Q 71.046875 27 71.578125 26.359375 
Q 72.125 25.734375 72.125 25 
Q 72.125 24.265625 71.578125 23.625 
Q 71.046875 23 70.3125 23 
L 40.921875 23 
L 40.921875 -6.5 
Q 40.921875 -7.28125 40.28125 -7.78125 
Q 39.65625 -8.296875 38.921875 -8.296875 
Q 38.09375 -8.296875 37.5 -7.78125 
Q 36.921875 -7.28125 36.921875 -6.5 
L 36.921875 23 
z
" id="Cmr10-2b"/>
      <path d="M 4.984375 0 
L 4.984375 2.6875 
Q 4.984375 2.9375 5.171875 3.21875 
L 20.703125 20.40625 
Q 24.21875 24.21875 26.40625 26.796875 
Q 28.609375 29.390625 30.75 32.765625 
Q 32.90625 36.140625 34.15625 39.625 
Q 35.40625 43.109375 35.40625 47.015625 
Q 35.40625 51.125 33.890625 54.859375 
Q 32.375 58.59375 29.375 60.84375 
Q 26.375 63.09375 22.125 63.09375 
Q 17.78125 63.09375 14.3125 60.46875 
Q 10.84375 57.859375 9.421875 53.71875 
Q 9.8125 53.8125 10.5 53.8125 
Q 12.75 53.8125 14.328125 52.296875 
Q 15.921875 50.78125 15.921875 48.390625 
Q 15.921875 46.09375 14.328125 44.5 
Q 12.75 42.921875 10.5 42.921875 
Q 8.15625 42.921875 6.5625 44.546875 
Q 4.984375 46.1875 4.984375 48.390625 
Q 4.984375 52.15625 6.390625 55.4375 
Q 7.8125 58.734375 10.46875 61.296875 
Q 13.140625 63.875 16.484375 65.234375 
Q 19.828125 66.609375 23.578125 66.609375 
Q 29.296875 66.609375 34.21875 64.1875 
Q 39.15625 61.765625 42.03125 57.34375 
Q 44.921875 52.9375 44.921875 47.015625 
Q 44.921875 42.671875 43.015625 38.765625 
Q 41.109375 34.859375 38.125 31.65625 
Q 35.15625 28.46875 30.515625 24.40625 
Q 25.875 20.359375 24.421875 19 
L 13.09375 8.109375 
L 22.703125 8.109375 
Q 29.78125 8.109375 34.546875 8.21875 
Q 39.3125 8.34375 39.59375 8.59375 
Q 40.765625 9.859375 42 17.828125 
L 44.921875 17.828125 
L 42.09375 0 
z
" id="Cmr10-32"/>
      <path d="M 5.609375 -23 
Q 5.609375 -22.703125 5.71875 -22.609375 
L 40.484375 73.78125 
Q 40.671875 74.359375 41.15625 74.671875 
Q 41.65625 75 42.28125 75 
Q 43.171875 75 43.71875 74.453125 
Q 44.28125 73.921875 44.28125 73 
L 44.28125 72.609375 
L 9.515625 -23.78125 
Q 8.9375 -25 7.625 -25 
Q 6.78125 -25 6.1875 -24.40625 
Q 5.609375 -23.828125 5.609375 -23 
" id="Cmmi10-3d"/>
      <path d="M 4.890625 0 
Q 3.90625 0 3.90625 1.3125 
Q 3.953125 1.5625 4.09375 2.171875 
Q 4.25 2.78125 4.515625 3.140625 
Q 4.78125 3.515625 5.171875 3.515625 
Q 11.28125 3.515625 13.71875 4.203125 
Q 14.984375 4.640625 15.578125 6.890625 
L 29.296875 61.8125 
Q 29.5 62.796875 29.5 63.1875 
Q 29.5 64.265625 28.328125 64.40625 
Q 26.421875 64.796875 21.09375 64.796875 
Q 20.125 64.796875 20.125 66.109375 
Q 20.171875 66.359375 20.3125 66.96875 
Q 20.453125 67.578125 20.71875 67.9375 
Q 21 68.3125 21.390625 68.3125 
L 55.90625 68.3125 
Q 60.640625 68.3125 65.078125 66.625 
Q 69.53125 64.9375 72.359375 61.46875 
Q 75.203125 58.015625 75.203125 53.078125 
Q 75.203125 46.734375 70.734375 41.75 
Q 66.265625 36.765625 59.59375 33.984375 
Q 52.9375 31.203125 46.6875 31.203125 
L 30.421875 31.203125 
L 24.3125 6.5 
Q 24.125 5.515625 24.125 5.078125 
Q 24.125 4.6875 24.234375 4.421875 
Q 24.359375 4.15625 24.578125 4.078125 
Q 24.8125 4 25.296875 3.90625 
Q 27.203125 3.515625 32.515625 3.515625 
Q 33.5 3.515625 33.5 2.203125 
Q 33.15625 0.78125 32.953125 0.390625 
Q 32.765625 0 31.78125 0 
z
M 30.90625 34.1875 
L 44.921875 34.1875 
Q 54.640625 34.1875 59.71875 39.40625 
Q 62.3125 42 63.9375 46.875 
Q 65.578125 51.765625 65.578125 55.71875 
Q 65.578125 60.640625 61.8125 62.71875 
Q 58.0625 64.796875 52.484375 64.796875 
L 42.921875 64.796875 
Q 40.1875 64.796875 39.296875 64.328125 
Q 38.421875 63.875 37.703125 61.375 
z
" id="Cmmi10-50"/>
      <path d="M 56.203125 29.59375 
L 56.203125 25.203125 
L 14.890625 25.203125 
Q 15.484375 15.921875 20.484375 11.0625 
Q 25.484375 6.203125 34.421875 6.203125 
Q 39.59375 6.203125 44.453125 7.46875 
Q 49.3125 8.734375 54.109375 11.28125 
L 54.109375 2.78125 
Q 49.265625 0.734375 44.1875 -0.34375 
Q 39.109375 -1.421875 33.890625 -1.421875 
Q 20.796875 -1.421875 13.15625 6.1875 
Q 5.515625 13.8125 5.515625 26.8125 
Q 5.515625 40.234375 12.765625 48.109375 
Q 20.015625 56 32.328125 56 
Q 43.359375 56 49.78125 48.890625 
Q 56.203125 41.796875 56.203125 29.59375 
M 47.21875 32.234375 
Q 47.125 39.59375 43.09375 43.984375 
Q 39.0625 48.390625 32.421875 48.390625 
Q 24.90625 48.390625 20.390625 44.140625 
Q 15.875 39.890625 15.1875 32.171875 
z
" id="BitstreamVeraSans-Roman-65"/>
      <path d="M 53.203125 11.703125 
L 54.703125 10.703125 
Q 46.796875 -1 39.796875 -1 
Q 34.5 -1 34.5 4.59375 
Q 34.5 6.703125 36.90625 15.59375 
L 40.90625 30 
Q 41.796875 33.40625 41.796875 36.203125 
Q 41.796875 40.59375 38.09375 40.59375 
Q 35.703125 40.59375 32 37.046875 
Q 28.296875 33.5 24.09375 27.296875 
Q 20.703125 22.296875 18.5 16.890625 
Q 16.296875 11.5 13.09375 0 
L 4.703125 0 
L 17.40625 46.90625 
L 8 43.5 
L 8.90625 47.796875 
L 18.59375 51.296875 
L 20.5 57.296875 
Q 20.90625 58.5 20.90625 60.203125 
Q 20.90625 62.40625 15.203125 62.40625 
L 15.203125 63.90625 
Q 23.5 65.59375 30.90625 68.296875 
L 31.703125 68.09375 
Q 30.59375 64.796875 29.09375 59.296875 
L 27.796875 54.703125 
L 42.203125 60 
L 41 55.59375 
L 26.59375 50.40625 
L 19.59375 24.59375 
L 19.703125 24.59375 
Q 30.703125 46 41.59375 46 
Q 50.40625 46 50.40625 37.203125 
Q 50.40625 33.796875 49.296875 30.09375 
L 44.203125 12.203125 
Q 43.09375 8.5 43.09375 6.703125 
Q 43.09375 5 44.40625 5 
Q 47.5 5 53.203125 11.703125 
" id="STIXGeneral-Regular-210f"/>
      <path d="M 28.609375 0 
L 0.78125 72.90625 
L 11.078125 72.90625 
L 34.1875 11.53125 
L 57.328125 72.90625 
L 67.578125 72.90625 
L 39.796875 0 
z
" id="BitstreamVeraSans-Roman-56"/>
      <path d="M 59.515625 10.40625 
L 59.515625 29.984375 
L 43.40625 29.984375 
L 43.40625 38.09375 
L 69.28125 38.09375 
L 69.28125 6.78125 
Q 63.578125 2.734375 56.6875 0.65625 
Q 49.8125 -1.421875 42 -1.421875 
Q 24.90625 -1.421875 15.25 8.5625 
Q 5.609375 18.5625 5.609375 36.375 
Q 5.609375 54.25 15.25 64.234375 
Q 24.90625 74.21875 42 74.21875 
Q 49.125 74.21875 55.546875 72.453125 
Q 61.96875 70.703125 67.390625 67.28125 
L 67.390625 56.78125 
Q 61.921875 61.421875 55.765625 63.765625 
Q 49.609375 66.109375 42.828125 66.109375 
Q 29.4375 66.109375 22.71875 58.640625 
Q 16.015625 51.171875 16.015625 36.375 
Q 16.015625 21.625 22.71875 14.15625 
Q 29.4375 6.6875 42.828125 6.6875 
Q 48.046875 6.6875 52.140625 7.59375 
Q 56.25 8.5 59.515625 10.40625 
" id="BitstreamVeraSans-Roman-47"/>
      <path d="M 6.5 -25 
Q 5.609375 -25 5.609375 -24.125 
Q 5.609375 -23.6875 5.8125 -23.484375 
Q 22.90625 -6.78125 22.90625 25 
Q 22.90625 56.78125 6 73.296875 
Q 5.609375 73.53125 5.609375 74.125 
Q 5.609375 74.46875 5.875 74.734375 
Q 6.15625 75 6.5 75 
L 7.421875 75 
Q 7.71875 75 7.90625 74.8125 
Q 15.09375 69.140625 19.875 61.03125 
Q 24.65625 52.9375 26.875 43.75 
Q 29.109375 34.578125 29.109375 25 
Q 29.109375 17.921875 27.90625 11.0625 
Q 26.703125 4.203125 24.09375 -2.453125 
Q 21.484375 -9.125 17.484375 -14.765625 
Q 13.484375 -20.40625 7.90625 -24.8125 
Q 7.71875 -25 7.421875 -25 
z
" id="Cmr10-29"/>
     </defs>
     <g transform="translate(58.4578125 179.255039063)rotate(-90.0)scale(0.18 -0.18)">
      <use transform="translate(0.0 0.109375)" xlink:href="#Cmsy10-6a"/>
      <use transform="translate(27.685546875 0.109375)" xlink:href="#Cmr10-28"/>
      <use transform="translate(66.50390625 0.109375)" xlink:href="#Cmmi10-63"/>
      <use transform="translate(109.716796875 0.109375)" xlink:href="#Cmmi10-3d"/>
      <use transform="translate(159.716796875 0.109375)" xlink:href="#STIXGeneral-Regular-210f"/>
      <use transform="translate(217.61679077148438 0.109375)" xlink:href="#Cmr10-29"/>
      <use transform="translate(256.4351501464844 0.109375)" xlink:href="#Cmmi10-50"/>
      <use transform="translate(332.9351501464844 -16.896874999999994)scale(0.7)" xlink:href="#Cmr10-2b"/>
      <use transform="translate(405.9833923339844 0.109375)" xlink:href="#Cmsy10-6a"/>
      <use transform="translate(438.1330798339844 38.3734375)scale(0.7)" xlink:href="#Cmr10-32"/>
      <use transform="translate(479.5104235839844 0.109375)" xlink:href="#BitstreamVeraSans-Roman-20"/>
      <use transform="translate(511.2975329589844 20.265625)scale(0.863125)" xlink:href="#Cmr10-28"/>
      <use transform="translate(544.8026293945313 0.109375)" xlink:href="#BitstreamVeraSans-Roman-47"/>
      <use transform="translate(622.2928637695313 0.109375)" xlink:href="#BitstreamVeraSans-Roman-65"/>
      <use transform="translate(683.8163012695313 0.109375)" xlink:href="#BitstreamVeraSans-Roman-56"/>
      <use transform="translate(756.6886450195314 38.3734375)scale(0.7)" xlink:href="#Cmr10-32"/>
      <use transform="translate(798.0659887695313 20.265625)scale(0.863125)" xlink:href="#Cmr10-29"/>
     </g>
    </g>
   </g>
   <g id="legend_1">
    <g id="patch_7">
     <path d="M 385.692188 142.959844 
L 535.452188 142.959844 
L 535.452188 38.079844 
L 385.692188 38.079844 
z
" style="fill:#ffffff;stroke:#000000;stroke-linejoin:miter;"/>
    </g>
    <g id="line2d_12">
     <path d="M 400.812188 56.159844 
L 431.052188 56.159844 
" style="fill:none;stroke:#000000;stroke-linecap:square;stroke-width:2.0;"/>
    </g>
    <g id="line2d_13"/>
    <g id="text_6">
     <!-- $\mathregular{MoSe_2}$ -->
     <defs>
      <path d="M 53.515625 70.515625 
L 53.515625 60.890625 
Q 47.90625 63.578125 42.921875 64.890625 
Q 37.9375 66.21875 33.296875 66.21875 
Q 25.25 66.21875 20.875 63.09375 
Q 16.5 59.96875 16.5 54.203125 
Q 16.5 49.359375 19.40625 46.890625 
Q 22.3125 44.4375 30.421875 42.921875 
L 36.375 41.703125 
Q 47.40625 39.59375 52.65625 34.296875 
Q 57.90625 29 57.90625 20.125 
Q 57.90625 9.515625 50.796875 4.046875 
Q 43.703125 -1.421875 29.984375 -1.421875 
Q 24.8125 -1.421875 18.96875 -0.25 
Q 13.140625 0.921875 6.890625 3.21875 
L 6.890625 13.375 
Q 12.890625 10.015625 18.65625 8.296875 
Q 24.421875 6.59375 29.984375 6.59375 
Q 38.421875 6.59375 43.015625 9.90625 
Q 47.609375 13.234375 47.609375 19.390625 
Q 47.609375 24.75 44.3125 27.78125 
Q 41.015625 30.8125 33.5 32.328125 
L 27.484375 33.5 
Q 16.453125 35.6875 11.515625 40.375 
Q 6.59375 45.0625 6.59375 53.421875 
Q 6.59375 63.09375 13.40625 68.65625 
Q 20.21875 74.21875 32.171875 74.21875 
Q 37.3125 74.21875 42.625 73.28125 
Q 47.953125 72.359375 53.515625 70.515625 
" id="BitstreamVeraSans-Roman-53"/>
      <path d="M 9.8125 72.90625 
L 24.515625 72.90625 
L 43.109375 23.296875 
L 61.8125 72.90625 
L 76.515625 72.90625 
L 76.515625 0 
L 66.890625 0 
L 66.890625 64.015625 
L 48.09375 14.015625 
L 38.1875 14.015625 
L 19.390625 64.015625 
L 19.390625 0 
L 9.8125 0 
z
" id="BitstreamVeraSans-Roman-4d"/>
      <path d="M 30.609375 48.390625 
Q 23.390625 48.390625 19.1875 42.75 
Q 14.984375 37.109375 14.984375 27.296875 
Q 14.984375 17.484375 19.15625 11.84375 
Q 23.34375 6.203125 30.609375 6.203125 
Q 37.796875 6.203125 41.984375 11.859375 
Q 46.1875 17.53125 46.1875 27.296875 
Q 46.1875 37.015625 41.984375 42.703125 
Q 37.796875 48.390625 30.609375 48.390625 
M 30.609375 56 
Q 42.328125 56 49.015625 48.375 
Q 55.71875 40.765625 55.71875 27.296875 
Q 55.71875 13.875 49.015625 6.21875 
Q 42.328125 -1.421875 30.609375 -1.421875 
Q 18.84375 -1.421875 12.171875 6.21875 
Q 5.515625 13.875 5.515625 27.296875 
Q 5.515625 40.765625 12.171875 48.375 
Q 18.84375 56 30.609375 56 
" id="BitstreamVeraSans-Roman-6f"/>
     </defs>
     <g transform="translate(454.8121875 63.71984375)scale(0.21599999999999997 -0.21599999999999997)">
      <use transform="translate(0.0 0.78125)" xlink:href="#BitstreamVeraSans-Roman-4d"/>
      <use transform="translate(86.279296875 0.78125)" xlink:href="#BitstreamVeraSans-Roman-6f"/>
      <use transform="translate(147.4609375 0.78125)" xlink:href="#BitstreamVeraSans-Roman-53"/>
      <use transform="translate(210.9375 0.78125)" xlink:href="#BitstreamVeraSans-Roman-65"/>
      <use transform="translate(277.9734375 -20.21875)scale(0.7)" xlink:href="#BitstreamVeraSans-Roman-32"/>
     </g>
    </g>
    <g id="line2d_14">
     <path d="M 400.812188 88.959844 
L 431.052188 88.959844 
" style="fill:none;stroke:#000000;stroke-dasharray:6.000000,6.000000;stroke-dashoffset:0.0;stroke-width:2.0;"/>
    </g>
    <g id="line2d_15"/>
    <g id="text_7">
     <!-- $\mathregular{WS_2}$ -->
     <defs>
      <path d="M 3.328125 72.90625 
L 13.28125 72.90625 
L 28.609375 11.28125 
L 43.890625 72.90625 
L 54.984375 72.90625 
L 70.3125 11.28125 
L 85.59375 72.90625 
L 95.609375 72.90625 
L 77.296875 0 
L 64.890625 0 
L 49.515625 63.28125 
L 33.984375 0 
L 21.578125 0 
z
" id="BitstreamVeraSans-Roman-57"/>
     </defs>
     <g transform="translate(454.8121875 96.51984375)scale(0.21599999999999997 -0.21599999999999997)">
      <use transform="translate(0.0 0.78125)" xlink:href="#BitstreamVeraSans-Roman-57"/>
      <use transform="translate(98.876953125 0.78125)" xlink:href="#BitstreamVeraSans-Roman-53"/>
      <use transform="translate(167.866015625 -20.21875)scale(0.7)" xlink:href="#BitstreamVeraSans-Roman-32"/>
     </g>
    </g>
    <g id="line2d_16">
     <path d="M 400.812188 121.759844 
L 431.052188 121.759844 
" style="fill:none;stroke:#000000;stroke-dasharray:1.000000,3.000000;stroke-dashoffset:0.0;stroke-width:2.0;"/>
    </g>
    <g id="line2d_17"/>
    <g id="text_8">
     <!-- $\mathregular{WSe_2}$ -->
     <g transform="translate(454.8121875 129.31984375)scale(0.21599999999999997 -0.21599999999999997)">
      <use transform="translate(0.0 0.78125)" xlink:href="#BitstreamVeraSans-Roman-57"/>
      <use transform="translate(98.876953125 0.78125)" xlink:href="#BitstreamVeraSans-Roman-53"/>
      <use transform="translate(162.353515625 0.78125)" xlink:href="#BitstreamVeraSans-Roman-65"/>
      <use transform="translate(229.389453125 -20.21875)scale(0.7)" xlink:href="#BitstreamVeraSans-Roman-32"/>
     </g>
    </g>
   </g>
  </g>
  <g id="axes_2">
   <g id="patch_8">
    <path d="M 83.410313 370.780312 
L 546.252187 370.780312 
L 546.252187 216.589922 
L 83.410313 216.589922 
L 83.410313 370.780312 
z
" style="fill:none;"/>
   </g>
   <g id="line2d_18">
    <path clip-path="url(#peb572ea57c)" d="M 83.410313 369.988244 
L 88.085483 369.827787 
L 92.760653 369.653314 
L 97.435824 369.465007 
L 102.110994 369.263045 
L 106.786165 369.047606 
L 111.461335 368.818867 
L 116.136506 368.577 
L 120.811676 368.322179 
L 125.486847 368.054574 
L 130.162017 367.774355 
L 134.837187 367.48169 
L 139.512358 367.176748 
L 144.187528 366.859694 
L 148.862699 366.530698 
L 153.537869 366.189925 
L 158.21304 365.837546 
L 162.88821 365.473732 
L 167.563381 365.098655 
L 172.238551 364.712495 
L 176.913722 364.315435 
L 181.588892 363.907667 
L 186.264063 363.489395 
L 190.939233 363.060835 
L 195.614403 362.622223 
L 200.289574 362.173822 
L 204.964744 361.715927 
L 209.639915 361.248877 
L 214.315085 360.773074 
L 218.990256 360.289003 
L 223.665426 359.797263 
L 228.340597 359.29861 
L 233.015767 358.794028 
L 237.690938 358.284819 
L 242.366108 357.772763 
L 247.041278 357.260343 
L 251.716449 356.751135 
L 256.391619 356.250448 
L 261.06679 355.76645 
L 265.74196 355.312262 
L 270.417131 354.910108 
L 275.092301 354.600357 
L 279.767472 354.464003 
L 284.442642 354.692156 
L 289.117813 355.932303 
M 340.544688 364.947057 
L 345.219858 367.345425 
L 349.895028 368.462887 
L 354.570199 369.110818 
L 359.245369 369.526164 
L 363.92054 369.809641 
L 368.59571 370.011886 
L 373.270881 370.161098 
L 377.946051 370.274136 
L 382.621222 370.361635 
L 387.296392 370.430587 
L 391.971563 370.485752 
L 396.646733 370.530463 
L 401.321903 370.567109 
L 405.997074 370.59744 
L 410.672244 370.622762 
L 415.347415 370.644063 
L 420.022585 370.662104 
L 424.697756 370.677475 
L 429.372926 370.690642 
L 434.048097 370.701977 
L 438.723267 370.711776 
L 443.398438 370.72028 
L 448.073608 370.727685 
L 452.748778 370.734155 
L 457.423949 370.739821 
L 462.099119 370.744797 
L 466.77429 370.749175 
L 471.44946 370.753035 
L 476.124631 370.756442 
L 480.799801 370.759453 
L 485.474972 370.762118 
L 490.150142 370.764477 
L 494.825312 370.766567 
L 499.500483 370.768417 
L 504.175653 370.770056 
L 508.850824 370.771507 
L 513.525994 370.772789 
L 518.201165 370.773921 
L 522.876335 370.774919 
L 527.551506 370.775796 
L 532.226676 370.776565 
L 536.901847 370.777236 
L 541.577017 370.777819 
L 546.252187 370.778322 
" style="fill:none;stroke:#000000;stroke-linecap:square;stroke-width:2.0;"/>
   </g>
   <g id="line2d_19">
    <path clip-path="url(#peb572ea57c)" d="M 83.410313 295.299414 
L 88.085483 293.913369 
L 92.760653 292.519706 
L 97.435824 291.11858 
L 102.110994 289.710152 
L 106.786165 288.294587 
L 111.461335 286.872063 
L 116.136506 285.442762 
L 120.811676 284.006882 
L 125.486847 282.56463 
L 130.162017 281.11623 
L 134.837187 279.661926 
L 139.512358 278.20198 
L 144.187528 276.736681 
L 148.862699 275.266351 
L 153.537869 273.791344 
L 158.21304 272.312062 
L 162.88821 270.828955 
L 167.563381 269.34254 
L 172.238551 267.853411 
L 176.913722 266.362255 
L 181.588892 264.869878 
L 186.264063 263.377228 
L 190.939233 261.885434 
L 195.614403 260.395852 
L 200.289574 258.910123 
L 204.964744 257.430254 
L 209.639915 255.958727 
L 214.315085 254.49864 
L 218.990256 253.053906 
L 223.665426 251.629531 
L 228.340597 250.232001 
L 233.015767 248.869848 
L 237.690938 247.554478 
L 242.366108 246.301426 
L 247.041278 245.132288 
L 251.716449 244.077826 
L 256.391619 243.183105 
L 261.06679 242.516405 
L 265.74196 242.185531 
L 270.417131 242.369826 
L 275.092301 243.389087 
L 279.767472 245.873236 
L 284.442642 251.282815 
L 289.117813 264.494958 
M 340.544688 329.024574 
L 345.219858 345.267109 
L 349.895028 353.039607 
L 354.570199 357.635721 
L 359.245369 360.632627 
L 363.92054 362.710562 
L 368.59571 364.215621 
L 373.270881 365.342542 
L 377.946051 366.208854 
L 382.621222 366.889324 
L 387.296392 367.43353 
L 391.971563 367.875473 
L 396.646733 368.239138 
L 401.321903 368.541854 
L 405.997074 368.796405 
L 410.672244 369.012389 
L 415.347415 369.19713 
L 420.022585 369.356296 
L 424.697756 369.494329 
L 429.372926 369.61475 
L 434.048097 369.720379 
L 438.723267 369.813497 
L 443.398438 369.895962 
L 448.073608 369.969304 
L 452.748778 370.034789 
L 457.423949 370.093471 
L 462.099119 370.146236 
L 466.77429 370.193831 
L 471.44946 370.23689 
L 476.124631 370.275954 
L 480.799801 370.311484 
L 485.474972 370.343881 
L 490.150142 370.373489 
L 494.825312 370.400607 
L 499.500483 370.425495 
L 504.175653 370.448381 
L 508.850824 370.469465 
L 513.525994 370.488923 
L 518.201165 370.50691 
L 522.876335 370.523564 
L 527.551506 370.539005 
L 532.226676 370.553344 
L 536.901847 370.566677 
L 541.577017 370.57909 
L 546.252187 370.590661 
" style="fill:none;stroke:#000000;stroke-dasharray:6.000000,6.000000;stroke-dashoffset:0.0;stroke-width:2.0;"/>
   </g>
   <g id="line2d_20">
    <path clip-path="url(#peb572ea57c)" d="M 83.410313 279.60535 
L 88.085483 278.155033 
L 92.760653 276.699076 
L 97.435824 275.237637 
L 102.110994 273.770883 
L 106.786165 272.298986 
L 111.461335 270.822132 
L 116.136506 269.340513 
L 120.811676 267.854338 
L 125.486847 266.363829 
L 130.162017 264.869227 
L 134.837187 263.370793 
L 139.512358 261.868813 
L 144.187528 260.363604 
L 148.862699 258.855517 
L 153.537869 257.344945 
L 158.21304 255.832331 
L 162.88821 254.318178 
L 167.563381 252.803064 
L 172.238551 251.287654 
L 176.913722 249.772722 
L 181.588892 248.259173 
L 186.264063 246.748081 
L 190.939233 245.24072 
L 195.614403 243.738624 
L 200.289574 242.243653 
L 204.964744 240.758083 
L 209.639915 239.284725 
L 214.315085 237.827091 
L 218.990256 236.389614 
L 223.665426 234.977964 
L 228.340597 233.599483 
L 233.015767 232.26382 
L 237.690938 230.983869 
L 242.366108 229.777167 
L 247.041278 228.668079 
L 251.716449 227.691273 
L 256.391619 226.89748 
L 261.06679 226.363488 
L 265.74196 226.2104 
L 270.417131 226.639465 
L 275.092301 228.009149 
L 279.767472 231.024787 
L 284.442642 237.320109 
L 289.117813 252.345996 
M 340.544688 324.251679 
L 345.219858 342.286015 
L 349.895028 350.930664 
L 354.570199 356.048775 
L 359.245369 359.38953 
L 363.92054 361.70807 
L 368.59571 363.388897 
L 373.270881 364.648502 
L 377.946051 365.617623 
L 382.621222 366.379471 
L 387.296392 366.989253 
L 391.971563 367.484849 
L 396.646733 367.892992 
L 401.321903 368.233006 
L 405.997074 368.51915 
L 410.672244 368.762138 
L 415.347415 368.970146 
L 420.022585 369.149506 
L 424.697756 369.30518 
L 429.372926 369.441104 
L 434.048097 369.560433 
L 438.723267 369.665718 
L 443.398438 369.759039 
L 448.073608 369.842108 
L 452.748778 369.916343 
L 457.423949 369.982926 
L 462.099119 370.04285 
L 466.77429 370.096952 
L 471.44946 370.145943 
L 476.124631 370.19043 
L 480.799801 370.230932 
L 485.474972 370.267898 
L 490.150142 370.301715 
L 494.825312 370.332719 
L 499.500483 370.361203 
L 504.175653 370.387422 
L 508.850824 370.411602 
L 513.525994 370.433941 
L 518.201165 370.454614 
L 522.876335 370.473775 
L 527.551506 370.491562 
L 532.226676 370.508097 
L 536.901847 370.523489 
L 541.577017 370.537837 
L 546.252187 370.551228 
" style="fill:none;stroke:#000000;stroke-dasharray:1.000000,3.000000;stroke-dashoffset:0.0;stroke-width:2.0;"/>
   </g>
   <g id="patch_9">
    <path d="M 83.410313 370.780312 
L 83.410313 216.589922 
" style="fill:none;stroke:#000000;stroke-linecap:square;stroke-linejoin:miter;"/>
   </g>
   <g id="patch_10">
    <path d="M 83.410313 216.589922 
L 546.252187 216.589922 
" style="fill:none;stroke:#000000;stroke-linecap:square;stroke-linejoin:miter;"/>
   </g>
   <g id="patch_11">
    <path d="M 546.252187 370.780312 
L 546.252187 216.589922 
" style="fill:none;stroke:#000000;stroke-linecap:square;stroke-linejoin:miter;"/>
   </g>
   <g id="patch_12">
    <path d="M 83.410313 370.780312 
L 546.252187 370.780312 
" style="fill:none;stroke:#000000;stroke-linecap:square;stroke-linejoin:miter;"/>
   </g>
   <g id="matplotlib.axis_2">
    <g id="xtick_1">
     <g id="line2d_21">
      <defs>
       <path d="M 0 0 
L 0 -4 
" id="ma3b5ef4108" style="stroke:#000000;stroke-width:0.5;"/>
      </defs>
      <g>
       <use style="stroke:#000000;stroke-width:0.5;" x="83.4103125" xlink:href="#ma3b5ef4108" y="370.7803125"/>
      </g>
     </g>
     <g id="line2d_22">
      <defs>
       <path d="M 0 0 
L 0 4 
" id="mebf436779c" style="stroke:#000000;stroke-width:0.5;"/>
      </defs>
      <g>
       <use style="stroke:#000000;stroke-width:0.5;" x="83.4103125" xlink:href="#mebf436779c" y="216.589921875"/>
      </g>
     </g>
     <g id="text_9">
      <!-- −10 -->
      <defs>
       <path d="M 10.59375 35.5 
L 73.1875 35.5 
L 73.1875 27.203125 
L 10.59375 27.203125 
z
" id="BitstreamVeraSans-Roman-2212"/>
      </defs>
      <g transform="translate(64.41609375 388.4575)scale(0.18 -0.18)">
       <use xlink:href="#BitstreamVeraSans-Roman-2212"/>
       <use x="83.7890625" xlink:href="#BitstreamVeraSans-Roman-31"/>
       <use x="147.412109375" xlink:href="#BitstreamVeraSans-Roman-30"/>
      </g>
     </g>
    </g>
    <g id="xtick_2">
     <g id="line2d_23">
      <g>
       <use style="stroke:#000000;stroke-width:0.5;" x="199.12078125" xlink:href="#ma3b5ef4108" y="370.7803125"/>
      </g>
     </g>
     <g id="line2d_24">
      <g>
       <use style="stroke:#000000;stroke-width:0.5;" x="199.12078125" xlink:href="#mebf436779c" y="216.589921875"/>
      </g>
     </g>
     <g id="text_10">
      <!-- −5 -->
      <defs>
       <path d="M 10.796875 72.90625 
L 49.515625 72.90625 
L 49.515625 64.59375 
L 19.828125 64.59375 
L 19.828125 46.734375 
Q 21.96875 47.46875 24.109375 47.828125 
Q 26.265625 48.1875 28.421875 48.1875 
Q 40.625 48.1875 47.75 41.5 
Q 54.890625 34.8125 54.890625 23.390625 
Q 54.890625 11.625 47.5625 5.09375 
Q 40.234375 -1.421875 26.90625 -1.421875 
Q 22.3125 -1.421875 17.546875 -0.640625 
Q 12.796875 0.140625 7.71875 1.703125 
L 7.71875 11.625 
Q 12.109375 9.234375 16.796875 8.0625 
Q 21.484375 6.890625 26.703125 6.890625 
Q 35.15625 6.890625 40.078125 11.328125 
Q 45.015625 15.765625 45.015625 23.390625 
Q 45.015625 31 40.078125 35.4375 
Q 35.15625 39.890625 26.703125 39.890625 
Q 22.75 39.890625 18.8125 39.015625 
Q 14.890625 38.140625 10.796875 36.28125 
z
" id="BitstreamVeraSans-Roman-35"/>
      </defs>
      <g transform="translate(185.8528125 388.4575)scale(0.18 -0.18)">
       <use xlink:href="#BitstreamVeraSans-Roman-2212"/>
       <use x="83.7890625" xlink:href="#BitstreamVeraSans-Roman-35"/>
      </g>
     </g>
    </g>
    <g id="xtick_3">
     <g id="line2d_25">
      <g>
       <use style="stroke:#000000;stroke-width:0.5;" x="314.83125" xlink:href="#ma3b5ef4108" y="370.7803125"/>
      </g>
     </g>
     <g id="line2d_26">
      <g>
       <use style="stroke:#000000;stroke-width:0.5;" x="314.83125" xlink:href="#mebf436779c" y="216.589921875"/>
      </g>
     </g>
     <g id="text_11">
      <!-- 0 -->
      <g transform="translate(309.105 388.4575)scale(0.18 -0.18)">
       <use xlink:href="#BitstreamVeraSans-Roman-30"/>
      </g>
     </g>
    </g>
    <g id="xtick_4">
     <g id="line2d_27">
      <g>
       <use style="stroke:#000000;stroke-width:0.5;" x="430.54171875" xlink:href="#ma3b5ef4108" y="370.7803125"/>
      </g>
     </g>
     <g id="line2d_28">
      <g>
       <use style="stroke:#000000;stroke-width:0.5;" x="430.54171875" xlink:href="#mebf436779c" y="216.589921875"/>
      </g>
     </g>
     <g id="text_12">
      <!-- 5 -->
      <g transform="translate(424.81546875 388.4575)scale(0.18 -0.18)">
       <use xlink:href="#BitstreamVeraSans-Roman-35"/>
      </g>
     </g>
    </g>
    <g id="xtick_5">
     <g id="line2d_29">
      <g>
       <use style="stroke:#000000;stroke-width:0.5;" x="546.2521875" xlink:href="#ma3b5ef4108" y="370.7803125"/>
      </g>
     </g>
     <g id="line2d_30">
      <g>
       <use style="stroke:#000000;stroke-width:0.5;" x="546.2521875" xlink:href="#mebf436779c" y="216.589921875"/>
      </g>
     </g>
     <g id="text_13">
      <!-- 10 -->
      <g transform="translate(534.7996875 388.4575)scale(0.18 -0.18)">
       <use xlink:href="#BitstreamVeraSans-Roman-31"/>
       <use x="63.623046875" xlink:href="#BitstreamVeraSans-Roman-30"/>
      </g>
     </g>
    </g>
    <g id="text_14">
     <!-- $\lambda_{\mathbf{k}} / \Delta_{\mathbf{k}}$ -->
     <defs>
      <path d="M 5.421875 0 
Q 4.59375 0 4.59375 0.78125 
Q 4.640625 0.875 4.65625 0.921875 
Q 4.6875 0.984375 4.6875 1.125 
L 39.109375 70.515625 
Q 39.546875 71.578125 40.921875 71.578125 
L 42.28125 71.578125 
Q 43.65625 71.578125 44.09375 70.515625 
L 78.515625 1.125 
Q 78.5625 1.03125 78.578125 0.953125 
Q 78.609375 0.875 78.609375 0.78125 
Q 78.609375 0 77.78125 0 
z
M 12.015625 8.015625 
L 64.703125 8.015625 
L 38.375 61.078125 
z
" id="Cmr10-a2"/>
      <path d="M 1.421875 0 
L 1.421875 5.078125 
L 8.296875 5.078125 
L 8.296875 60.6875 
Q 8.296875 62.546875 6.34375 63.015625 
Q 4.390625 63.484375 1.421875 63.484375 
L 1.421875 68.609375 
L 19.484375 69.390625 
L 19.484375 25.296875 
L 33.59375 38.484375 
Q 33.59375 38.921875 31.875 39.109375 
Q 30.171875 39.3125 29.109375 39.3125 
L 29.109375 44.390625 
L 48.78125 44.390625 
L 48.78125 39.3125 
Q 42 39.3125 41.015625 38.375 
L 29.78125 27.875 
L 44.484375 6 
Q 45.515625 5.078125 51.125 5.078125 
L 51.125 0 
L 28.71875 0 
L 28.71875 5.078125 
Q 32.421875 5.078125 32.421875 5.90625 
L 22.3125 20.90625 
L 19 17.828125 
L 19 5.078125 
L 25.78125 5.078125 
L 25.78125 0 
z
" id="Cmb10-6b"/>
      <path d="M 5.078125 1.703125 
Q 5.078125 3.171875 6.390625 4.5 
L 34.515625 32.078125 
L 24.609375 59.90625 
Q 23.4375 63.09375 22.140625 64.9375 
Q 20.84375 66.796875 18.40625 66.796875 
Q 17.28125 66.796875 17.28125 68.109375 
Q 17.390625 68.703125 17.78125 69.046875 
Q 18.171875 69.390625 18.796875 69.390625 
Q 29.296875 69.390625 31.5 63.1875 
L 51.8125 6.5 
Q 53.125 2.25 54.5 0.78125 
Q 54.984375 0.046875 54.984375 -0.203125 
Q 54.984375 -1.125 54.203125 -1.125 
L 48.78125 -1.125 
Q 46.296875 -0.390625 44.828125 3.21875 
L 35.6875 28.8125 
L 11.53125 0.390625 
Q 9.71875 -1.3125 8.296875 -1.3125 
Q 7.03125 -1.3125 6.046875 -0.4375 
Q 5.078125 0.4375 5.078125 1.703125 
" id="Cmmi10-b8"/>
     </defs>
     <g transform="translate(289.36125 410.7009375)scale(0.18 -0.18)">
      <use xlink:href="#Cmmi10-b8"/>
      <use transform="translate(58.30078125 -17.006249999999994)scale(0.7)" xlink:href="#Cmb10-6b"/>
      <use transform="translate(101.5580078125 0.0)" xlink:href="#Cmmi10-3d"/>
      <use transform="translate(151.5580078125 0.0)" xlink:href="#Cmr10-a2"/>
      <use transform="translate(239.3229296875 -17.006249999999994)scale(0.7)" xlink:href="#Cmb10-6b"/>
     </g>
    </g>
   </g>
   <g id="matplotlib.axis_3">
    <g id="ytick_5">
     <g id="line2d_31">
      <g>
       <use style="stroke:#000000;stroke-width:0.5;" x="83.4103125" xlink:href="#m95f985c205" y="370.7803125"/>
      </g>
     </g>
     <g id="line2d_32">
      <g>
       <use style="stroke:#000000;stroke-width:0.5;" x="546.2521875" xlink:href="#m6d2e48e15f" y="370.7803125"/>
      </g>
     </g>
     <g id="text_15">
      <!-- 0.00 -->
      <defs>
       <path d="M 10.6875 12.40625 
L 21 12.40625 
L 21 0 
L 10.6875 0 
z
" id="BitstreamVeraSans-Roman-2e"/>
      </defs>
      <g transform="translate(39.3321875 375.7471875)scale(0.18 -0.18)">
       <use xlink:href="#BitstreamVeraSans-Roman-30"/>
       <use x="63.623046875" xlink:href="#BitstreamVeraSans-Roman-2e"/>
       <use x="95.41015625" xlink:href="#BitstreamVeraSans-Roman-30"/>
       <use x="159.033203125" xlink:href="#BitstreamVeraSans-Roman-30"/>
      </g>
     </g>
    </g>
    <g id="ytick_6">
     <g id="line2d_33">
      <g>
       <use style="stroke:#000000;stroke-width:0.5;" x="83.4103125" xlink:href="#m95f985c205" y="319.383515625"/>
      </g>
     </g>
     <g id="line2d_34">
      <g>
       <use style="stroke:#000000;stroke-width:0.5;" x="546.2521875" xlink:href="#m6d2e48e15f" y="319.383515625"/>
      </g>
     </g>
     <g id="text_16">
      <!-- 0.01 -->
      <g transform="translate(39.3321875 324.350390625)scale(0.18 -0.18)">
       <use xlink:href="#BitstreamVeraSans-Roman-30"/>
       <use x="63.623046875" xlink:href="#BitstreamVeraSans-Roman-2e"/>
       <use x="95.41015625" xlink:href="#BitstreamVeraSans-Roman-30"/>
       <use x="159.033203125" xlink:href="#BitstreamVeraSans-Roman-31"/>
      </g>
     </g>
    </g>
    <g id="ytick_7">
     <g id="line2d_35">
      <g>
       <use style="stroke:#000000;stroke-width:0.5;" x="83.4103125" xlink:href="#m95f985c205" y="267.98671875"/>
      </g>
     </g>
     <g id="line2d_36">
      <g>
       <use style="stroke:#000000;stroke-width:0.5;" x="546.2521875" xlink:href="#m6d2e48e15f" y="267.98671875"/>
      </g>
     </g>
     <g id="text_17">
      <!-- 0.02 -->
      <g transform="translate(39.3321875 272.95359375)scale(0.18 -0.18)">
       <use xlink:href="#BitstreamVeraSans-Roman-30"/>
       <use x="63.623046875" xlink:href="#BitstreamVeraSans-Roman-2e"/>
       <use x="95.41015625" xlink:href="#BitstreamVeraSans-Roman-30"/>
       <use x="159.033203125" xlink:href="#BitstreamVeraSans-Roman-32"/>
      </g>
     </g>
    </g>
    <g id="ytick_8">
     <g id="line2d_37">
      <g>
       <use style="stroke:#000000;stroke-width:0.5;" x="83.4103125" xlink:href="#m95f985c205" y="216.589921875"/>
      </g>
     </g>
     <g id="line2d_38">
      <g>
       <use style="stroke:#000000;stroke-width:0.5;" x="546.2521875" xlink:href="#m6d2e48e15f" y="216.589921875"/>
      </g>
     </g>
     <g id="text_18">
      <!-- 0.03 -->
      <g transform="translate(39.3321875 221.556796875)scale(0.18 -0.18)">
       <use xlink:href="#BitstreamVeraSans-Roman-30"/>
       <use x="63.623046875" xlink:href="#BitstreamVeraSans-Roman-2e"/>
       <use x="95.41015625" xlink:href="#BitstreamVeraSans-Roman-30"/>
       <use x="159.033203125" xlink:href="#BitstreamVeraSans-Roman-33"/>
      </g>
     </g>
    </g>
    <g id="text_19">
     <!-- $\left| \left( c / ℏ \right) P_-\right|^2$ $\left(\mathregular{GeV}^2\right)$ -->
     <defs>
      <path d="M 10.203125 23 
Q 9.375 23 8.828125 23.625 
Q 8.296875 24.265625 8.296875 25 
Q 8.296875 25.734375 8.828125 26.359375 
Q 9.375 27 10.203125 27 
L 67.578125 27 
Q 68.359375 27 68.875 26.359375 
Q 69.390625 25.734375 69.390625 25 
Q 69.390625 24.265625 68.875 23.625 
Q 68.359375 23 67.578125 23 
z
" id="Cmsy10-a1"/>
     </defs>
     <g transform="translate(29.8321875 368.565117187)rotate(-90.0)scale(0.18 -0.18)">
      <use transform="translate(0.0 0.109375)" xlink:href="#Cmsy10-6a"/>
      <use transform="translate(27.685546875 0.109375)" xlink:href="#Cmr10-28"/>
      <use transform="translate(66.50390625 0.109375)" xlink:href="#Cmmi10-63"/>
      <use transform="translate(109.716796875 0.109375)" xlink:href="#Cmmi10-3d"/>
      <use transform="translate(159.716796875 0.109375)" xlink:href="#STIXGeneral-Regular-210f"/>
      <use transform="translate(217.61679077148438 0.109375)" xlink:href="#Cmr10-29"/>
      <use transform="translate(256.4351501464844 0.109375)" xlink:href="#Cmmi10-50"/>
      <use transform="translate(332.9351501464844 -16.896874999999994)scale(0.7)" xlink:href="#Cmsy10-a1"/>
      <use transform="translate(405.9833923339844 0.109375)" xlink:href="#Cmsy10-6a"/>
      <use transform="translate(438.1330798339844 38.3734375)scale(0.7)" xlink:href="#Cmr10-32"/>
      <use transform="translate(479.5104235839844 0.109375)" xlink:href="#BitstreamVeraSans-Roman-20"/>
      <use transform="translate(511.2975329589844 20.265625)scale(0.863125)" xlink:href="#Cmr10-28"/>
      <use transform="translate(544.8026293945313 0.109375)" xlink:href="#BitstreamVeraSans-Roman-47"/>
      <use transform="translate(622.2928637695313 0.109375)" xlink:href="#BitstreamVeraSans-Roman-65"/>
      <use transform="translate(683.8163012695313 0.109375)" xlink:href="#BitstreamVeraSans-Roman-56"/>
      <use transform="translate(756.6886450195314 38.3734375)scale(0.7)" xlink:href="#Cmr10-32"/>
      <use transform="translate(798.0659887695313 20.265625)scale(0.863125)" xlink:href="#Cmr10-29"/>
     </g>
    </g>
   </g>
  </g>
 </g>
 <defs>
  <clipPath id="peb572ea57c">
   <rect height="154.190390625" width="462.841875" x="83.4103125" y="216.589921875"/>
  </clipPath>
  <clipPath id="pb75105a1c1">
   <rect height="154.190390625" width="462.841875" x="83.4103125" y="27.27984375"/>
  </clipPath>
 </defs>
</svg>
