<?xml version="1.0" encoding="utf-8" standalone="no"?>
<!DOCTYPE svg PUBLIC "-//W3C//DTD SVG 1.1//EN"
  "http://www.w3.org/Graphics/SVG/1.1/DTD/svg11.dtd">
<!-- Created with matplotlib (http://matplotlib.org/) -->
<svg height="432pt" version="1.1" viewBox="0 0 576 432" width="576pt" xmlns="http://www.w3.org/2000/svg" xmlns:xlink="http://www.w3.org/1999/xlink">
 <defs>
  <style type="text/css">
*{stroke-linecap:butt;stroke-linejoin:round;stroke-miterlimit:100000;}
  </style>
 </defs>
 <g id="figure_1">
  <g id="patch_1">
   <path d="M 0 432 
L 576 432 
L 576 0 
L 0 0 
L 0 432 
z
" style="fill:none;"/>
  </g>
  <g id="axes_1">
   <g id="patch_2">
    <path d="M 73.1025 181.920234 
L 543.67875 181.920234 
L 543.67875 27.279844 
L 73.1025 27.279844 
L 73.1025 181.920234 
z
" style="fill:none;"/>
   </g>
   <g id="line2d_1">
    <path clip-path="url(#p4156a23353)" d="M 73.1025 172.171886 
L 77.855795 172.017408 
L 82.609091 171.860907 
L 87.362386 171.702343 
L 92.115682 171.541675 
L 96.868977 171.378862 
L 101.622273 171.213861 
L 106.375568 171.046629 
L 111.128864 170.877121 
L 115.882159 170.705291 
L 120.635455 170.531092 
L 125.38875 170.354474 
L 130.142045 170.175389 
L 134.895341 169.993785 
L 139.648636 169.809609 
L 144.401932 169.622808 
L 149.155227 169.433325 
L 153.908523 169.241104 
L 158.661818 169.046086 
L 163.415114 168.84821 
L 168.168409 168.647414 
L 172.921705 168.443635 
L 177.675 168.236806 
L 182.428295 168.026859 
L 187.181591 167.813726 
L 191.934886 167.597334 
L 196.688182 167.37761 
L 201.441477 167.154476 
L 206.194773 166.927856 
L 210.948068 166.697667 
L 215.701364 166.463826 
L 220.454659 166.226249 
L 225.207955 165.984845 
L 229.96125 165.739525 
L 234.714545 165.490193 
L 239.467841 165.236752 
L 244.221136 164.979102 
L 248.974432 164.717139 
L 253.727727 164.450757 
L 258.481023 164.179845 
L 263.234318 163.904289 
L 267.987614 163.62397 
L 272.740909 163.338768 
L 277.494205 163.048555 
L 282.2475 162.753202 
L 287.000795 162.452573 
L 291.754091 162.14653 
L 296.507386 161.834928 
L 301.260682 161.517618 
L 306.013977 161.194444 
L 310.767273 160.865246 
L 315.520568 160.529859 
L 320.273864 160.18811 
L 325.027159 159.83982 
L 329.780455 159.484805 
L 334.53375 159.122872 
L 339.287045 158.753823 
L 344.040341 158.377449 
L 348.793636 157.993537 
L 353.546932 157.601864 
L 358.300227 157.202196 
L 363.053523 156.794294 
L 367.806818 156.377907 
L 372.560114 155.952773 
L 377.313409 155.518622 
L 382.066705 155.075171 
L 386.82 154.622126 
L 391.573295 154.159181 
L 396.326591 153.686015 
L 401.079886 153.202297 
L 405.833182 152.70768 
L 410.586477 152.201799 
L 415.339773 151.684278 
L 420.093068 151.154722 
L 424.846364 150.612717 
L 429.599659 150.057832 
L 434.352955 149.489617 
L 439.10625 148.907598 
L 443.859545 148.311282 
L 448.612841 147.700152 
L 453.366136 147.073665 
L 458.119432 146.431254 
L 462.872727 145.772321 
L 467.626023 145.096241 
L 472.379318 144.402359 
L 477.132614 143.689983 
L 481.885909 142.958389 
L 486.639205 142.206813 
L 491.3925 141.434454 
L 496.145795 140.640466 
L 500.899091 139.823958 
L 505.652386 138.983992 
L 510.405682 138.119577 
L 515.158977 137.229668 
L 519.912273 136.31316 
L 524.665568 135.368886 
L 529.418864 134.39561 
L 534.172159 133.392024 
L 538.925455 132.356744 
L 543.67875 131.288301 
" style="fill:none;stroke:#000000;stroke-linecap:square;stroke-width:2.0;"/>
   </g>
   <g id="line2d_2">
    <path clip-path="url(#p4156a23353)" d="M 73.1025 124.032706 
L 77.855795 123.756192 
L 82.609091 123.476458 
L 87.362386 123.19345 
L 92.115682 122.907109 
L 96.868977 122.617378 
L 101.622273 122.324197 
L 106.375568 122.027505 
L 111.128864 121.72724 
L 115.882159 121.423337 
L 120.635455 121.115732 
L 125.38875 120.804357 
L 130.142045 120.489145 
L 134.895341 120.170023 
L 139.648636 119.846922 
L 144.401932 119.519766 
L 149.155227 119.188481 
L 153.908523 118.85299 
L 158.661818 118.513212 
L 163.415114 118.169068 
L 168.168409 117.820473 
L 172.921705 117.467342 
L 177.675 117.109588 
L 182.428295 116.74712 
L 187.181591 116.379848 
L 191.934886 116.007676 
L 196.688182 115.630508 
L 201.441477 115.248244 
L 206.194773 114.860782 
L 210.948068 114.468017 
L 215.701364 114.069843 
L 220.454659 113.666147 
L 225.207955 113.256818 
L 229.96125 112.841738 
L 234.714545 112.420788 
L 239.467841 111.993845 
L 244.221136 111.560783 
L 248.974432 111.121471 
L 253.727727 110.675776 
L 258.481023 110.223561 
L 263.234318 109.764685 
L 267.987614 109.299002 
L 272.740909 108.826363 
L 277.494205 108.346614 
L 282.2475 107.859597 
L 287.000795 107.365149 
L 291.754091 106.863102 
L 296.507386 106.353283 
L 301.260682 105.835515 
L 306.013977 105.309615 
L 310.767273 104.775392 
L 315.520568 104.232653 
L 320.273864 103.681197 
L 325.027159 103.120816 
L 329.780455 102.551298 
L 334.53375 101.972422 
L 339.287045 101.383961 
L 344.040341 100.785681 
L 348.793636 100.177338 
L 353.546932 99.558684 
L 358.300227 98.929461 
L 363.053523 98.2894 
L 367.806818 97.638228 
L 372.560114 96.975659 
L 377.313409 96.301398 
L 382.066705 95.615141 
L 386.82 94.916573 
L 391.573295 94.205369 
L 396.326591 93.48119 
L 401.079886 92.743688 
L 405.833182 91.992501 
L 410.586477 91.227254 
L 415.339773 90.44756 
L 420.093068 89.653017 
L 424.846364 88.843206 
L 429.599659 88.017697 
L 434.352955 87.17604 
L 439.10625 86.31777 
L 443.859545 85.442404 
L 448.612841 84.549441 
L 453.366136 83.638358 
L 458.119432 82.708615 
L 462.872727 81.759649 
L 467.626023 80.790875 
L 472.379318 79.801684 
L 477.132614 78.791443 
L 481.885909 77.759493 
L 486.639205 76.705147 
L 491.3925 75.627691 
L 496.145795 74.526379 
L 500.899091 73.400435 
L 505.652386 72.249049 
L 510.405682 71.071376 
L 515.158977 69.866534 
L 519.912273 68.633601 
L 524.665568 67.371615 
L 529.418864 66.079572 
L 534.172159 64.756419 
L 538.925455 63.401057 
L 543.67875 62.012334 
" style="fill:none;stroke:#000000;stroke-dasharray:6.000000,6.000000;stroke-dashoffset:0.0;stroke-width:2.0;"/>
   </g>
   <g id="line2d_3">
    <path clip-path="url(#p4156a23353)" d="M 73.1025 146.430337 
L 77.855795 146.223011 
L 82.609091 146.01318 
L 87.362386 145.8008 
L 92.115682 145.585824 
L 96.868977 145.368205 
L 101.622273 145.147894 
L 106.375568 144.924843 
L 111.128864 144.699001 
L 115.882159 144.470315 
L 120.635455 144.238732 
L 125.38875 144.004198 
L 130.142045 143.766657 
L 134.895341 143.526052 
L 139.648636 143.282323 
L 144.401932 143.035411 
L 149.155227 142.785253 
L 153.908523 142.531786 
L 158.661818 142.274945 
L 163.415114 142.014664 
L 168.168409 141.750874 
L 172.921705 141.483504 
L 177.675 141.212482 
L 182.428295 140.937735 
L 187.181591 140.659186 
L 191.934886 140.376757 
L 196.688182 140.090367 
L 201.441477 139.799935 
L 206.194773 139.505375 
L 210.948068 139.206601 
L 215.701364 138.903522 
L 220.454659 138.596047 
L 225.207955 138.28408 
L 229.96125 137.967526 
L 234.714545 137.646282 
L 239.467841 137.320247 
L 244.221136 136.989314 
L 248.974432 136.653374 
L 253.727727 136.312315 
L 258.481023 135.96602 
L 263.234318 135.614371 
L 267.987614 135.257245 
L 272.740909 134.894515 
L 277.494205 134.52605 
L 282.2475 134.151717 
L 287.000795 133.771377 
L 291.754091 133.384886 
L 296.507386 132.992097 
L 301.260682 132.592858 
L 306.013977 132.187013 
L 310.767273 131.774398 
L 315.520568 131.354847 
L 320.273864 130.928187 
L 325.027159 130.494239 
L 329.780455 130.052819 
L 334.53375 129.603736 
L 339.287045 129.146794 
L 344.040341 128.681788 
L 348.793636 128.208507 
L 353.546932 127.726735 
L 358.300227 127.236245 
L 363.053523 126.736803 
L 367.806818 126.228168 
L 372.560114 125.710089 
L 377.313409 125.182307 
L 382.066705 124.644553 
L 386.82 124.096548 
L 391.573295 123.538003 
L 396.326591 122.968619 
L 401.079886 122.388083 
L 405.833182 121.796074 
L 410.586477 121.192256 
L 415.339773 120.57628 
L 420.093068 119.947785 
L 424.846364 119.306395 
L 429.599659 118.651719 
L 434.352955 117.98335 
L 439.10625 117.300865 
L 443.859545 116.603824 
L 448.612841 115.891769 
L 453.366136 115.164221 
L 458.119432 114.420683 
L 462.872727 113.660636 
L 467.626023 112.88354 
L 472.379318 112.08883 
L 477.132614 111.275917 
L 481.885909 110.444185 
L 486.639205 109.592993 
L 491.3925 108.721669 
L 496.145795 107.82951 
L 500.899091 106.915782 
L 505.652386 105.979718 
L 510.405682 105.020511 
L 515.158977 104.037319 
L 519.912273 103.029259 
L 524.665568 101.995403 
L 529.418864 100.934781 
L 534.172159 99.846371 
L 538.925455 98.729102 
L 543.67875 97.581847 
" style="fill:none;stroke:#000000;stroke-dasharray:1.000000,3.000000;stroke-dashoffset:0.0;stroke-width:2.0;"/>
   </g>
   <g id="patch_3">
    <path d="M 73.1025 181.920234 
L 73.1025 27.279844 
" style="fill:none;stroke:#000000;stroke-linecap:square;stroke-linejoin:miter;"/>
   </g>
   <g id="patch_4">
    <path d="M 73.1025 27.279844 
L 543.67875 27.279844 
" style="fill:none;stroke:#000000;stroke-linecap:square;stroke-linejoin:miter;"/>
   </g>
   <g id="patch_5">
    <path d="M 543.67875 181.920234 
L 543.67875 27.279844 
" style="fill:none;stroke:#000000;stroke-linecap:square;stroke-linejoin:miter;"/>
   </g>
   <g id="patch_6">
    <path d="M 73.1025 181.920234 
L 543.67875 181.920234 
" style="fill:none;stroke:#000000;stroke-linecap:square;stroke-linejoin:miter;"/>
   </g>
   <g id="matplotlib.axis_1">
    <g id="ytick_1">
     <g id="line2d_4">
      <defs>
       <path d="M 0 0 
L 4 0 
" id="m67847687f7" style="stroke:#000000;stroke-width:0.5;"/>
      </defs>
      <g>
       <use style="stroke:#000000;stroke-width:0.5;" x="73.1025" xlink:href="#m67847687f7" y="181.920234375"/>
      </g>
     </g>
     <g id="line2d_5">
      <defs>
       <path d="M 0 0 
L -4 0 
" id="m6f25b1577b" style="stroke:#000000;stroke-width:0.5;"/>
      </defs>
      <g>
       <use style="stroke:#000000;stroke-width:0.5;" x="543.67875" xlink:href="#m6f25b1577b" y="181.920234375"/>
      </g>
     </g>
     <g id="text_1">
      <!-- 0.5 -->
      <defs>
       <path d="M 31.78125 66.40625 
Q 24.171875 66.40625 20.328125 58.90625 
Q 16.5 51.421875 16.5 36.375 
Q 16.5 21.390625 20.328125 13.890625 
Q 24.171875 6.390625 31.78125 6.390625 
Q 39.453125 6.390625 43.28125 13.890625 
Q 47.125 21.390625 47.125 36.375 
Q 47.125 51.421875 43.28125 58.90625 
Q 39.453125 66.40625 31.78125 66.40625 
M 31.78125 74.21875 
Q 44.046875 74.21875 50.515625 64.515625 
Q 56.984375 54.828125 56.984375 36.375 
Q 56.984375 17.96875 50.515625 8.265625 
Q 44.046875 -1.421875 31.78125 -1.421875 
Q 19.53125 -1.421875 13.0625 8.265625 
Q 6.59375 17.96875 6.59375 36.375 
Q 6.59375 54.828125 13.0625 64.515625 
Q 19.53125 74.21875 31.78125 74.21875 
" id="BitstreamVeraSans-Roman-30"/>
       <path d="M 10.6875 12.40625 
L 21 12.40625 
L 21 0 
L 10.6875 0 
z
" id="BitstreamVeraSans-Roman-2e"/>
       <path d="M 10.796875 72.90625 
L 49.515625 72.90625 
L 49.515625 64.59375 
L 19.828125 64.59375 
L 19.828125 46.734375 
Q 21.96875 47.46875 24.109375 47.828125 
Q 26.265625 48.1875 28.421875 48.1875 
Q 40.625 48.1875 47.75 41.5 
Q 54.890625 34.8125 54.890625 23.390625 
Q 54.890625 11.625 47.5625 5.09375 
Q 40.234375 -1.421875 26.90625 -1.421875 
Q 22.3125 -1.421875 17.546875 -0.640625 
Q 12.796875 0.140625 7.71875 1.703125 
L 7.71875 11.625 
Q 12.109375 9.234375 16.796875 8.0625 
Q 21.484375 6.890625 26.703125 6.890625 
Q 35.15625 6.890625 40.078125 11.328125 
Q 45.015625 15.765625 45.015625 23.390625 
Q 45.015625 31 40.078125 35.4375 
Q 35.15625 39.890625 26.703125 39.890625 
Q 22.75 39.890625 18.8125 39.015625 
Q 14.890625 38.140625 10.796875 36.28125 
z
" id="BitstreamVeraSans-Roman-35"/>
      </defs>
      <g transform="translate(40.476875 186.887109375)scale(0.18 -0.18)">
       <use xlink:href="#BitstreamVeraSans-Roman-30"/>
       <use x="63.623046875" xlink:href="#BitstreamVeraSans-Roman-2e"/>
       <use x="95.41015625" xlink:href="#BitstreamVeraSans-Roman-35"/>
      </g>
     </g>
    </g>
    <g id="ytick_2">
     <g id="line2d_6">
      <g>
       <use style="stroke:#000000;stroke-width:0.5;" x="73.1025" xlink:href="#m67847687f7" y="143.260136719"/>
      </g>
     </g>
     <g id="line2d_7">
      <g>
       <use style="stroke:#000000;stroke-width:0.5;" x="543.67875" xlink:href="#m6f25b1577b" y="143.260136719"/>
      </g>
     </g>
     <g id="text_2">
      <!-- 1.0 -->
      <defs>
       <path d="M 12.40625 8.296875 
L 28.515625 8.296875 
L 28.515625 63.921875 
L 10.984375 60.40625 
L 10.984375 69.390625 
L 28.421875 72.90625 
L 38.28125 72.90625 
L 38.28125 8.296875 
L 54.390625 8.296875 
L 54.390625 0 
L 12.40625 0 
z
" id="BitstreamVeraSans-Roman-31"/>
      </defs>
      <g transform="translate(40.476875 148.227011719)scale(0.18 -0.18)">
       <use xlink:href="#BitstreamVeraSans-Roman-31"/>
       <use x="63.623046875" xlink:href="#BitstreamVeraSans-Roman-2e"/>
       <use x="95.41015625" xlink:href="#BitstreamVeraSans-Roman-30"/>
      </g>
     </g>
    </g>
    <g id="ytick_3">
     <g id="line2d_8">
      <g>
       <use style="stroke:#000000;stroke-width:0.5;" x="73.1025" xlink:href="#m67847687f7" y="104.600039063"/>
      </g>
     </g>
     <g id="line2d_9">
      <g>
       <use style="stroke:#000000;stroke-width:0.5;" x="543.67875" xlink:href="#m6f25b1577b" y="104.600039063"/>
      </g>
     </g>
     <g id="text_3">
      <!-- 1.5 -->
      <g transform="translate(40.476875 109.566914063)scale(0.18 -0.18)">
       <use xlink:href="#BitstreamVeraSans-Roman-31"/>
       <use x="63.623046875" xlink:href="#BitstreamVeraSans-Roman-2e"/>
       <use x="95.41015625" xlink:href="#BitstreamVeraSans-Roman-35"/>
      </g>
     </g>
    </g>
    <g id="ytick_4">
     <g id="line2d_10">
      <g>
       <use style="stroke:#000000;stroke-width:0.5;" x="73.1025" xlink:href="#m67847687f7" y="65.9399414063"/>
      </g>
     </g>
     <g id="line2d_11">
      <g>
       <use style="stroke:#000000;stroke-width:0.5;" x="543.67875" xlink:href="#m6f25b1577b" y="65.9399414063"/>
      </g>
     </g>
     <g id="text_4">
      <!-- 2.0 -->
      <defs>
       <path d="M 19.1875 8.296875 
L 53.609375 8.296875 
L 53.609375 0 
L 7.328125 0 
L 7.328125 8.296875 
Q 12.9375 14.109375 22.625 23.890625 
Q 32.328125 33.6875 34.8125 36.53125 
Q 39.546875 41.84375 41.421875 45.53125 
Q 43.3125 49.21875 43.3125 52.78125 
Q 43.3125 58.59375 39.234375 62.25 
Q 35.15625 65.921875 28.609375 65.921875 
Q 23.96875 65.921875 18.8125 64.3125 
Q 13.671875 62.703125 7.8125 59.421875 
L 7.8125 69.390625 
Q 13.765625 71.78125 18.9375 73 
Q 24.125 74.21875 28.421875 74.21875 
Q 39.75 74.21875 46.484375 68.546875 
Q 53.21875 62.890625 53.21875 53.421875 
Q 53.21875 48.921875 51.53125 44.890625 
Q 49.859375 40.875 45.40625 35.40625 
Q 44.1875 33.984375 37.640625 27.21875 
Q 31.109375 20.453125 19.1875 8.296875 
" id="BitstreamVeraSans-Roman-32"/>
      </defs>
      <g transform="translate(40.476875 70.9068164063)scale(0.18 -0.18)">
       <use xlink:href="#BitstreamVeraSans-Roman-32"/>
       <use x="63.623046875" xlink:href="#BitstreamVeraSans-Roman-2e"/>
       <use x="95.41015625" xlink:href="#BitstreamVeraSans-Roman-30"/>
      </g>
     </g>
    </g>
    <g id="ytick_5">
     <g id="line2d_12">
      <g>
       <use style="stroke:#000000;stroke-width:0.5;" x="73.1025" xlink:href="#m67847687f7" y="27.27984375"/>
      </g>
     </g>
     <g id="line2d_13">
      <g>
       <use style="stroke:#000000;stroke-width:0.5;" x="543.67875" xlink:href="#m6f25b1577b" y="27.27984375"/>
      </g>
     </g>
     <g id="text_5">
      <!-- 2.5 -->
      <g transform="translate(40.476875 32.24671875)scale(0.18 -0.18)">
       <use xlink:href="#BitstreamVeraSans-Roman-32"/>
       <use x="63.623046875" xlink:href="#BitstreamVeraSans-Roman-2e"/>
       <use x="95.41015625" xlink:href="#BitstreamVeraSans-Roman-35"/>
      </g>
     </g>
    </g>
    <g id="text_6">
     <!-- $\left| \left( c / ℏ \right) P_+\right|^2$ $\left(\mathregular{GeV}^2\right)$ -->
     <defs>
      <path d="M 11.71875 11.921875 
Q 11.71875 7.5625 13.9375 4.53125 
Q 16.15625 1.515625 20.3125 1.515625 
Q 26.265625 1.515625 31.75 4.25 
Q 37.25 6.984375 40.71875 11.8125 
Q 41.015625 12.109375 41.5 12.109375 
Q 42 12.109375 42.5 11.546875 
Q 43.015625 10.984375 43.015625 10.5 
Q 43.015625 10.109375 42.828125 9.90625 
Q 39.15625 4.78125 32.953125 1.828125 
Q 26.765625 -1.125 20.125 -1.125 
Q 15.328125 -1.125 11.671875 1.140625 
Q 8.015625 3.421875 6 7.21875 
Q 4 11.03125 4 15.828125 
Q 4 22.5625 7.765625 29.203125 
Q 11.53125 35.84375 17.78125 40.015625 
Q 24.03125 44.1875 30.90625 44.1875 
Q 35.40625 44.1875 38.984375 42.015625 
Q 42.578125 39.84375 42.578125 35.59375 
Q 42.578125 32.859375 40.984375 30.921875 
Q 39.40625 29 36.71875 29 
Q 35.109375 29 34 30 
Q 32.90625 31 32.90625 32.625 
Q 32.90625 34.96875 34.609375 36.625 
Q 36.328125 38.28125 38.625 38.28125 
L 38.8125 38.28125 
Q 37.640625 39.984375 35.421875 40.796875 
Q 33.203125 41.609375 30.8125 41.609375 
Q 24.953125 41.609375 20.546875 36.59375 
Q 16.15625 31.59375 13.9375 24.625 
Q 11.71875 17.671875 11.71875 11.921875 
" id="Cmmi10-63"/>
      <path id="BitstreamVeraSans-Roman-20"/>
      <path d="M 31 -24.8125 
Q 25.4375 -20.40625 21.40625 -14.71875 
Q 17.390625 -9.03125 14.8125 -2.578125 
Q 12.25 3.859375 10.984375 10.890625 
Q 9.71875 17.921875 9.71875 25 
Q 9.71875 32.171875 10.984375 39.203125 
Q 12.25 46.234375 14.859375 52.734375 
Q 17.484375 59.234375 21.53125 64.890625 
Q 25.59375 70.5625 31 74.8125 
Q 31 75 31.5 75 
L 32.421875 75 
Q 32.71875 75 32.953125 74.734375 
Q 33.203125 74.46875 33.203125 74.125 
Q 33.203125 73.6875 33.015625 73.484375 
Q 28.125 68.703125 24.875 63.234375 
Q 21.625 57.765625 19.640625 51.578125 
Q 17.671875 45.40625 16.796875 38.78125 
Q 15.921875 32.171875 15.921875 25 
Q 15.921875 -6.78125 32.90625 -23.296875 
Q 33.203125 -23.578125 33.203125 -24.125 
Q 33.203125 -24.359375 32.9375 -24.671875 
Q 32.671875 -25 32.421875 -25 
L 31.5 -25 
Q 31 -25 31 -24.8125 
" id="Cmr10-28"/>
      <path d="M 11.921875 -23.1875 
L 11.921875 73.1875 
Q 11.921875 73.96875 12.5 74.484375 
Q 13.09375 75 13.921875 75 
Q 14.65625 75 15.28125 74.484375 
Q 15.921875 73.96875 15.921875 73.1875 
L 15.921875 -23.1875 
Q 15.921875 -23.96875 15.28125 -24.484375 
Q 14.65625 -25 13.921875 -25 
Q 13.09375 -25 12.5 -24.484375 
Q 11.921875 -23.96875 11.921875 -23.1875 
" id="Cmsy10-6a"/>
      <path d="M 7.515625 23 
Q 6.6875 23 6.140625 23.625 
Q 5.609375 24.265625 5.609375 25 
Q 5.609375 25.734375 6.140625 26.359375 
Q 6.6875 27 7.515625 27 
L 36.921875 27 
L 36.921875 56.5 
Q 36.921875 57.28125 37.5 57.78125 
Q 38.09375 58.296875 38.921875 58.296875 
Q 39.65625 58.296875 40.28125 57.78125 
Q 40.921875 57.28125 40.921875 56.5 
L 40.921875 27 
L 70.3125 27 
Q 71.046875 27 71.578125 26.359375 
Q 72.125 25.734375 72.125 25 
Q 72.125 24.265625 71.578125 23.625 
Q 71.046875 23 70.3125 23 
L 40.921875 23 
L 40.921875 -6.5 
Q 40.921875 -7.28125 40.28125 -7.78125 
Q 39.65625 -8.296875 38.921875 -8.296875 
Q 38.09375 -8.296875 37.5 -7.78125 
Q 36.921875 -7.28125 36.921875 -6.5 
L 36.921875 23 
z
" id="Cmr10-2b"/>
      <path d="M 4.984375 0 
L 4.984375 2.6875 
Q 4.984375 2.9375 5.171875 3.21875 
L 20.703125 20.40625 
Q 24.21875 24.21875 26.40625 26.796875 
Q 28.609375 29.390625 30.75 32.765625 
Q 32.90625 36.140625 34.15625 39.625 
Q 35.40625 43.109375 35.40625 47.015625 
Q 35.40625 51.125 33.890625 54.859375 
Q 32.375 58.59375 29.375 60.84375 
Q 26.375 63.09375 22.125 63.09375 
Q 17.78125 63.09375 14.3125 60.46875 
Q 10.84375 57.859375 9.421875 53.71875 
Q 9.8125 53.8125 10.5 53.8125 
Q 12.75 53.8125 14.328125 52.296875 
Q 15.921875 50.78125 15.921875 48.390625 
Q 15.921875 46.09375 14.328125 44.5 
Q 12.75 42.921875 10.5 42.921875 
Q 8.15625 42.921875 6.5625 44.546875 
Q 4.984375 46.1875 4.984375 48.390625 
Q 4.984375 52.15625 6.390625 55.4375 
Q 7.8125 58.734375 10.46875 61.296875 
Q 13.140625 63.875 16.484375 65.234375 
Q 19.828125 66.609375 23.578125 66.609375 
Q 29.296875 66.609375 34.21875 64.1875 
Q 39.15625 61.765625 42.03125 57.34375 
Q 44.921875 52.9375 44.921875 47.015625 
Q 44.921875 42.671875 43.015625 38.765625 
Q 41.109375 34.859375 38.125 31.65625 
Q 35.15625 28.46875 30.515625 24.40625 
Q 25.875 20.359375 24.421875 19 
L 13.09375 8.109375 
L 22.703125 8.109375 
Q 29.78125 8.109375 34.546875 8.21875 
Q 39.3125 8.34375 39.59375 8.59375 
Q 40.765625 9.859375 42 17.828125 
L 44.921875 17.828125 
L 42.09375 0 
z
" id="Cmr10-32"/>
      <path d="M 5.609375 -23 
Q 5.609375 -22.703125 5.71875 -22.609375 
L 40.484375 73.78125 
Q 40.671875 74.359375 41.15625 74.671875 
Q 41.65625 75 42.28125 75 
Q 43.171875 75 43.71875 74.453125 
Q 44.28125 73.921875 44.28125 73 
L 44.28125 72.609375 
L 9.515625 -23.78125 
Q 8.9375 -25 7.625 -25 
Q 6.78125 -25 6.1875 -24.40625 
Q 5.609375 -23.828125 5.609375 -23 
" id="Cmmi10-3d"/>
      <path d="M 4.890625 0 
Q 3.90625 0 3.90625 1.3125 
Q 3.953125 1.5625 4.09375 2.171875 
Q 4.25 2.78125 4.515625 3.140625 
Q 4.78125 3.515625 5.171875 3.515625 
Q 11.28125 3.515625 13.71875 4.203125 
Q 14.984375 4.640625 15.578125 6.890625 
L 29.296875 61.8125 
Q 29.5 62.796875 29.5 63.1875 
Q 29.5 64.265625 28.328125 64.40625 
Q 26.421875 64.796875 21.09375 64.796875 
Q 20.125 64.796875 20.125 66.109375 
Q 20.171875 66.359375 20.3125 66.96875 
Q 20.453125 67.578125 20.71875 67.9375 
Q 21 68.3125 21.390625 68.3125 
L 55.90625 68.3125 
Q 60.640625 68.3125 65.078125 66.625 
Q 69.53125 64.9375 72.359375 61.46875 
Q 75.203125 58.015625 75.203125 53.078125 
Q 75.203125 46.734375 70.734375 41.75 
Q 66.265625 36.765625 59.59375 33.984375 
Q 52.9375 31.203125 46.6875 31.203125 
L 30.421875 31.203125 
L 24.3125 6.5 
Q 24.125 5.515625 24.125 5.078125 
Q 24.125 4.6875 24.234375 4.421875 
Q 24.359375 4.15625 24.578125 4.078125 
Q 24.8125 4 25.296875 3.90625 
Q 27.203125 3.515625 32.515625 3.515625 
Q 33.5 3.515625 33.5 2.203125 
Q 33.15625 0.78125 32.953125 0.390625 
Q 32.765625 0 31.78125 0 
z
M 30.90625 34.1875 
L 44.921875 34.1875 
Q 54.640625 34.1875 59.71875 39.40625 
Q 62.3125 42 63.9375 46.875 
Q 65.578125 51.765625 65.578125 55.71875 
Q 65.578125 60.640625 61.8125 62.71875 
Q 58.0625 64.796875 52.484375 64.796875 
L 42.921875 64.796875 
Q 40.1875 64.796875 39.296875 64.328125 
Q 38.421875 63.875 37.703125 61.375 
z
" id="Cmmi10-50"/>
      <path d="M 56.203125 29.59375 
L 56.203125 25.203125 
L 14.890625 25.203125 
Q 15.484375 15.921875 20.484375 11.0625 
Q 25.484375 6.203125 34.421875 6.203125 
Q 39.59375 6.203125 44.453125 7.46875 
Q 49.3125 8.734375 54.109375 11.28125 
L 54.109375 2.78125 
Q 49.265625 0.734375 44.1875 -0.34375 
Q 39.109375 -1.421875 33.890625 -1.421875 
Q 20.796875 -1.421875 13.15625 6.1875 
Q 5.515625 13.8125 5.515625 26.8125 
Q 5.515625 40.234375 12.765625 48.109375 
Q 20.015625 56 32.328125 56 
Q 43.359375 56 49.78125 48.890625 
Q 56.203125 41.796875 56.203125 29.59375 
M 47.21875 32.234375 
Q 47.125 39.59375 43.09375 43.984375 
Q 39.0625 48.390625 32.421875 48.390625 
Q 24.90625 48.390625 20.390625 44.140625 
Q 15.875 39.890625 15.1875 32.171875 
z
" id="BitstreamVeraSans-Roman-65"/>
      <path d="M 53.203125 11.703125 
L 54.703125 10.703125 
Q 46.796875 -1 39.796875 -1 
Q 34.5 -1 34.5 4.59375 
Q 34.5 6.703125 36.90625 15.59375 
L 40.90625 30 
Q 41.796875 33.40625 41.796875 36.203125 
Q 41.796875 40.59375 38.09375 40.59375 
Q 35.703125 40.59375 32 37.046875 
Q 28.296875 33.5 24.09375 27.296875 
Q 20.703125 22.296875 18.5 16.890625 
Q 16.296875 11.5 13.09375 0 
L 4.703125 0 
L 17.40625 46.90625 
L 8 43.5 
L 8.90625 47.796875 
L 18.59375 51.296875 
L 20.5 57.296875 
Q 20.90625 58.5 20.90625 60.203125 
Q 20.90625 62.40625 15.203125 62.40625 
L 15.203125 63.90625 
Q 23.5 65.59375 30.90625 68.296875 
L 31.703125 68.09375 
Q 30.59375 64.796875 29.09375 59.296875 
L 27.796875 54.703125 
L 42.203125 60 
L 41 55.59375 
L 26.59375 50.40625 
L 19.59375 24.59375 
L 19.703125 24.59375 
Q 30.703125 46 41.59375 46 
Q 50.40625 46 50.40625 37.203125 
Q 50.40625 33.796875 49.296875 30.09375 
L 44.203125 12.203125 
Q 43.09375 8.5 43.09375 6.703125 
Q 43.09375 5 44.40625 5 
Q 47.5 5 53.203125 11.703125 
" id="STIXGeneral-Regular-210f"/>
      <path d="M 28.609375 0 
L 0.78125 72.90625 
L 11.078125 72.90625 
L 34.1875 11.53125 
L 57.328125 72.90625 
L 67.578125 72.90625 
L 39.796875 0 
z
" id="BitstreamVeraSans-Roman-56"/>
      <path d="M 59.515625 10.40625 
L 59.515625 29.984375 
L 43.40625 29.984375 
L 43.40625 38.09375 
L 69.28125 38.09375 
L 69.28125 6.78125 
Q 63.578125 2.734375 56.6875 0.65625 
Q 49.8125 -1.421875 42 -1.421875 
Q 24.90625 -1.421875 15.25 8.5625 
Q 5.609375 18.5625 5.609375 36.375 
Q 5.609375 54.25 15.25 64.234375 
Q 24.90625 74.21875 42 74.21875 
Q 49.125 74.21875 55.546875 72.453125 
Q 61.96875 70.703125 67.390625 67.28125 
L 67.390625 56.78125 
Q 61.921875 61.421875 55.765625 63.765625 
Q 49.609375 66.109375 42.828125 66.109375 
Q 29.4375 66.109375 22.71875 58.640625 
Q 16.015625 51.171875 16.015625 36.375 
Q 16.015625 21.625 22.71875 14.15625 
Q 29.4375 6.6875 42.828125 6.6875 
Q 48.046875 6.6875 52.140625 7.59375 
Q 56.25 8.5 59.515625 10.40625 
" id="BitstreamVeraSans-Roman-47"/>
      <path d="M 6.5 -25 
Q 5.609375 -25 5.609375 -24.125 
Q 5.609375 -23.6875 5.8125 -23.484375 
Q 22.90625 -6.78125 22.90625 25 
Q 22.90625 56.78125 6 73.296875 
Q 5.609375 73.53125 5.609375 74.125 
Q 5.609375 74.46875 5.875 74.734375 
Q 6.15625 75 6.5 75 
L 7.421875 75 
Q 7.71875 75 7.90625 74.8125 
Q 15.09375 69.140625 19.875 61.03125 
Q 24.65625 52.9375 26.875 43.75 
Q 29.109375 34.578125 29.109375 25 
Q 29.109375 17.921875 27.90625 11.0625 
Q 26.703125 4.203125 24.09375 -2.453125 
Q 21.484375 -9.125 17.484375 -14.765625 
Q 13.484375 -20.40625 7.90625 -24.8125 
Q 7.71875 -25 7.421875 -25 
z
" id="Cmr10-29"/>
     </defs>
     <g transform="translate(30.976875 179.480039063)rotate(-90.0)scale(0.18 -0.18)">
      <use transform="translate(0.0 0.109375)" xlink:href="#Cmsy10-6a"/>
      <use transform="translate(27.685546875 0.109375)" xlink:href="#Cmr10-28"/>
      <use transform="translate(66.50390625 0.109375)" xlink:href="#Cmmi10-63"/>
      <use transform="translate(109.716796875 0.109375)" xlink:href="#Cmmi10-3d"/>
      <use transform="translate(159.716796875 0.109375)" xlink:href="#STIXGeneral-Regular-210f"/>
      <use transform="translate(217.61679077148438 0.109375)" xlink:href="#Cmr10-29"/>
      <use transform="translate(256.4351501464844 0.109375)" xlink:href="#Cmmi10-50"/>
      <use transform="translate(332.9351501464844 -16.896874999999994)scale(0.7)" xlink:href="#Cmr10-2b"/>
      <use transform="translate(405.9833923339844 0.109375)" xlink:href="#Cmsy10-6a"/>
      <use transform="translate(438.1330798339844 38.3734375)scale(0.7)" xlink:href="#Cmr10-32"/>
      <use transform="translate(479.5104235839844 0.109375)" xlink:href="#BitstreamVeraSans-Roman-20"/>
      <use transform="translate(511.2975329589844 20.265625)scale(0.863125)" xlink:href="#Cmr10-28"/>
      <use transform="translate(544.8026293945313 0.109375)" xlink:href="#BitstreamVeraSans-Roman-47"/>
      <use transform="translate(622.2928637695313 0.109375)" xlink:href="#BitstreamVeraSans-Roman-65"/>
      <use transform="translate(683.8163012695313 0.109375)" xlink:href="#BitstreamVeraSans-Roman-56"/>
      <use transform="translate(756.6886450195314 38.3734375)scale(0.7)" xlink:href="#Cmr10-32"/>
      <use transform="translate(798.0659887695313 20.265625)scale(0.863125)" xlink:href="#Cmr10-29"/>
     </g>
    </g>
   </g>
   <g id="legend_1">
    <g id="patch_7">
     <path d="M 383.11875 142.959844 
L 532.87875 142.959844 
L 532.87875 38.079844 
L 383.11875 38.079844 
z
" style="fill:#ffffff;stroke:#000000;stroke-linejoin:miter;"/>
    </g>
    <g id="line2d_14">
     <path d="M 398.23875 56.159844 
L 428.47875 56.159844 
" style="fill:none;stroke:#000000;stroke-linecap:square;stroke-width:2.0;"/>
    </g>
    <g id="line2d_15"/>
    <g id="text_7">
     <!-- $\mathregular{MoSe_2}$ -->
     <defs>
      <path d="M 53.515625 70.515625 
L 53.515625 60.890625 
Q 47.90625 63.578125 42.921875 64.890625 
Q 37.9375 66.21875 33.296875 66.21875 
Q 25.25 66.21875 20.875 63.09375 
Q 16.5 59.96875 16.5 54.203125 
Q 16.5 49.359375 19.40625 46.890625 
Q 22.3125 44.4375 30.421875 42.921875 
L 36.375 41.703125 
Q 47.40625 39.59375 52.65625 34.296875 
Q 57.90625 29 57.90625 20.125 
Q 57.90625 9.515625 50.796875 4.046875 
Q 43.703125 -1.421875 29.984375 -1.421875 
Q 24.8125 -1.421875 18.96875 -0.25 
Q 13.140625 0.921875 6.890625 3.21875 
L 6.890625 13.375 
Q 12.890625 10.015625 18.65625 8.296875 
Q 24.421875 6.59375 29.984375 6.59375 
Q 38.421875 6.59375 43.015625 9.90625 
Q 47.609375 13.234375 47.609375 19.390625 
Q 47.609375 24.75 44.3125 27.78125 
Q 41.015625 30.8125 33.5 32.328125 
L 27.484375 33.5 
Q 16.453125 35.6875 11.515625 40.375 
Q 6.59375 45.0625 6.59375 53.421875 
Q 6.59375 63.09375 13.40625 68.65625 
Q 20.21875 74.21875 32.171875 74.21875 
Q 37.3125 74.21875 42.625 73.28125 
Q 47.953125 72.359375 53.515625 70.515625 
" id="BitstreamVeraSans-Roman-53"/>
      <path d="M 9.8125 72.90625 
L 24.515625 72.90625 
L 43.109375 23.296875 
L 61.8125 72.90625 
L 76.515625 72.90625 
L 76.515625 0 
L 66.890625 0 
L 66.890625 64.015625 
L 48.09375 14.015625 
L 38.1875 14.015625 
L 19.390625 64.015625 
L 19.390625 0 
L 9.8125 0 
z
" id="BitstreamVeraSans-Roman-4d"/>
      <path d="M 30.609375 48.390625 
Q 23.390625 48.390625 19.1875 42.75 
Q 14.984375 37.109375 14.984375 27.296875 
Q 14.984375 17.484375 19.15625 11.84375 
Q 23.34375 6.203125 30.609375 6.203125 
Q 37.796875 6.203125 41.984375 11.859375 
Q 46.1875 17.53125 46.1875 27.296875 
Q 46.1875 37.015625 41.984375 42.703125 
Q 37.796875 48.390625 30.609375 48.390625 
M 30.609375 56 
Q 42.328125 56 49.015625 48.375 
Q 55.71875 40.765625 55.71875 27.296875 
Q 55.71875 13.875 49.015625 6.21875 
Q 42.328125 -1.421875 30.609375 -1.421875 
Q 18.84375 -1.421875 12.171875 6.21875 
Q 5.515625 13.875 5.515625 27.296875 
Q 5.515625 40.765625 12.171875 48.375 
Q 18.84375 56 30.609375 56 
" id="BitstreamVeraSans-Roman-6f"/>
     </defs>
     <g transform="translate(452.23875 63.71984375)scale(0.21599999999999997 -0.21599999999999997)">
      <use transform="translate(0.0 0.78125)" xlink:href="#BitstreamVeraSans-Roman-4d"/>
      <use transform="translate(86.279296875 0.78125)" xlink:href="#BitstreamVeraSans-Roman-6f"/>
      <use transform="translate(147.4609375 0.78125)" xlink:href="#BitstreamVeraSans-Roman-53"/>
      <use transform="translate(210.9375 0.78125)" xlink:href="#BitstreamVeraSans-Roman-65"/>
      <use transform="translate(277.9734375 -20.21875)scale(0.7)" xlink:href="#BitstreamVeraSans-Roman-32"/>
     </g>
    </g>
    <g id="line2d_16">
     <path d="M 398.23875 88.959844 
L 428.47875 88.959844 
" style="fill:none;stroke:#000000;stroke-dasharray:6.000000,6.000000;stroke-dashoffset:0.0;stroke-width:2.0;"/>
    </g>
    <g id="line2d_17"/>
    <g id="text_8">
     <!-- $\mathregular{WS_2}$ -->
     <defs>
      <path d="M 3.328125 72.90625 
L 13.28125 72.90625 
L 28.609375 11.28125 
L 43.890625 72.90625 
L 54.984375 72.90625 
L 70.3125 11.28125 
L 85.59375 72.90625 
L 95.609375 72.90625 
L 77.296875 0 
L 64.890625 0 
L 49.515625 63.28125 
L 33.984375 0 
L 21.578125 0 
z
" id="BitstreamVeraSans-Roman-57"/>
     </defs>
     <g transform="translate(452.23875 96.51984375)scale(0.21599999999999997 -0.21599999999999997)">
      <use transform="translate(0.0 0.78125)" xlink:href="#BitstreamVeraSans-Roman-57"/>
      <use transform="translate(98.876953125 0.78125)" xlink:href="#BitstreamVeraSans-Roman-53"/>
      <use transform="translate(167.866015625 -20.21875)scale(0.7)" xlink:href="#BitstreamVeraSans-Roman-32"/>
     </g>
    </g>
    <g id="line2d_18">
     <path d="M 398.23875 121.759844 
L 428.47875 121.759844 
" style="fill:none;stroke:#000000;stroke-dasharray:1.000000,3.000000;stroke-dashoffset:0.0;stroke-width:2.0;"/>
    </g>
    <g id="line2d_19"/>
    <g id="text_9">
     <!-- $\mathregular{WSe_2}$ -->
     <g transform="translate(452.23875 129.31984375)scale(0.21599999999999997 -0.21599999999999997)">
      <use transform="translate(0.0 0.78125)" xlink:href="#BitstreamVeraSans-Roman-57"/>
      <use transform="translate(98.876953125 0.78125)" xlink:href="#BitstreamVeraSans-Roman-53"/>
      <use transform="translate(162.353515625 0.78125)" xlink:href="#BitstreamVeraSans-Roman-65"/>
      <use transform="translate(229.389453125 -20.21875)scale(0.7)" xlink:href="#BitstreamVeraSans-Roman-32"/>
     </g>
    </g>
   </g>
  </g>
  <g id="axes_2">
   <g id="patch_8">
    <path d="M 73.1025 371.680313 
L 543.67875 371.680313 
L 543.67875 217.039922 
L 73.1025 217.039922 
L 73.1025 371.680313 
z
" style="fill:none;"/>
   </g>
   <g id="line2d_20">
    <path clip-path="url(#p78bfca5dbc)" d="M 73.1025 308.832673 
L 77.855795 309.285959 
L 82.609091 309.74278 
L 87.362386 310.203168 
L 92.115682 310.667155 
L 96.868977 311.134773 
L 101.622273 311.606055 
L 106.375568 312.081033 
L 111.128864 312.559739 
L 115.882159 313.042205 
L 120.635455 313.528464 
L 125.38875 314.018548 
L 130.142045 314.512488 
L 134.895341 315.010317 
L 139.648636 315.512066 
L 144.401932 316.017767 
L 149.155227 316.52745 
L 153.908523 317.041147 
L 158.661818 317.558889 
L 163.415114 318.080704 
L 168.168409 318.606624 
L 172.921705 319.136677 
L 177.675 319.670891 
L 182.428295 320.209296 
L 187.181591 320.751918 
L 191.934886 321.298784 
L 196.688182 321.849919 
L 201.441477 322.405349 
L 206.194773 322.965098 
L 210.948068 323.529187 
L 215.701364 324.09764 
L 220.454659 324.670476 
L 225.207955 325.247715 
L 229.96125 325.829373 
L 234.714545 326.415468 
L 239.467841 327.006012 
L 244.221136 327.601018 
L 248.974432 328.200497 
L 253.727727 328.804456 
L 258.481023 329.412901 
L 263.234318 330.025835 
L 267.987614 330.643258 
L 272.740909 331.265168 
L 277.494205 331.891558 
L 282.2475 332.52242 
L 287.000795 333.15774 
L 291.754091 333.797501 
L 296.507386 334.441682 
L 301.260682 335.090257 
L 306.013977 335.743195 
L 310.767273 336.40046 
L 315.520568 337.062011 
L 320.273864 337.7278 
L 325.027159 338.397773 
L 329.780455 339.071868 
L 334.53375 339.750017 
L 339.287045 340.432142 
L 344.040341 341.11816 
L 348.793636 341.807975 
L 353.546932 342.501483 
L 358.300227 343.198568 
L 363.053523 343.899106 
L 367.806818 344.602957 
L 372.560114 345.309969 
L 377.313409 346.019977 
L 382.066705 346.732801 
L 386.82 347.448244 
L 391.573295 348.166092 
L 396.326591 348.886111 
L 401.079886 349.608051 
L 405.833182 350.331636 
L 410.586477 351.05657 
L 415.339773 351.782531 
L 420.093068 352.509171 
L 424.846364 353.236113 
L 429.599659 353.96295 
L 434.352955 354.68924 
L 439.10625 355.414508 
L 443.859545 356.138239 
L 448.612841 356.859878 
L 453.366136 357.578824 
L 458.119432 358.29443 
L 462.872727 359.005994 
L 467.626023 359.712763 
L 472.379318 360.41392 
L 477.132614 361.108583 
L 481.885909 361.795804 
L 486.639205 362.474553 
L 491.3925 363.143723 
L 496.145795 363.802115 
L 500.899091 364.448434 
L 505.652386 365.081282 
L 510.405682 365.699146 
L 515.158977 366.300392 
L 519.912273 366.883251 
L 524.665568 367.445809 
L 529.418864 367.985995 
L 534.172159 368.501567 
L 538.925455 368.990093 
L 543.67875 369.448941 
" style="fill:none;stroke:#000000;stroke-linecap:square;stroke-width:2.0;"/>
   </g>
   <g id="line2d_21">
    <path clip-path="url(#p78bfca5dbc)" d="M 73.1025 249.614375 
L 77.855795 250.415266 
L 82.609091 251.221642 
L 87.362386 252.033546 
L 92.115682 252.851022 
L 96.868977 253.674113 
L 101.622273 254.502861 
L 106.375568 255.33731 
L 111.128864 256.177501 
L 115.882159 257.023479 
L 120.635455 257.875286 
L 125.38875 258.732964 
L 130.142045 259.596555 
L 134.895341 260.466102 
L 139.648636 261.341646 
L 144.401932 262.223229 
L 149.155227 263.110893 
L 153.908523 264.004677 
L 158.661818 264.904623 
L 163.415114 265.81077 
L 168.168409 266.723158 
L 172.921705 267.641825 
L 177.675 268.56681 
L 182.428295 269.49815 
L 187.181591 270.435882 
L 191.934886 271.380041 
L 196.688182 272.330663 
L 201.441477 273.287781 
L 206.194773 274.251428 
L 210.948068 275.221636 
L 215.701364 276.198435 
L 220.454659 277.181855 
L 225.207955 278.171922 
L 229.96125 279.168664 
L 234.714545 280.172104 
L 239.467841 281.182264 
L 244.221136 282.199166 
L 248.974432 283.222828 
L 253.727727 284.253266 
L 258.481023 285.290495 
L 263.234318 286.334525 
L 267.987614 287.385365 
L 272.740909 288.443021 
L 277.494205 289.507495 
L 282.2475 290.578788 
L 287.000795 291.656895 
L 291.754091 292.741807 
L 296.507386 293.833514 
L 301.260682 294.931998 
L 306.013977 296.03724 
L 310.767273 297.149213 
L 315.520568 298.267888 
L 320.273864 299.393228 
L 325.027159 300.525191 
L 329.780455 301.663729 
L 334.53375 302.808788 
L 339.287045 303.960305 
L 344.040341 305.118213 
L 348.793636 306.282433 
L 353.546932 307.452881 
L 358.300227 308.629463 
L 363.053523 309.812074 
L 367.806818 311.000602 
L 372.560114 312.194921 
L 377.313409 313.394895 
L 382.066705 314.600377 
L 386.82 315.811206 
L 391.573295 317.027207 
L 396.326591 318.248191 
L 401.079886 319.473954 
L 405.833182 320.704275 
L 410.586477 321.938914 
L 415.339773 323.177616 
L 420.093068 324.420103 
L 424.846364 325.666078 
L 429.599659 326.915219 
L 434.352955 328.167184 
L 439.10625 329.421602 
L 443.859545 330.678076 
L 448.612841 331.936182 
L 453.366136 333.195464 
L 458.119432 334.455432 
L 462.872727 335.715563 
L 467.626023 336.975296 
L 472.379318 338.234032 
L 477.132614 339.491128 
L 481.885909 340.745895 
L 486.639205 341.9976 
L 491.3925 343.245454 
L 496.145795 344.488617 
L 500.899091 345.726188 
L 505.652386 346.957203 
L 510.405682 348.180635 
L 515.158977 349.39538 
L 519.912273 350.600262 
L 524.665568 351.794021 
L 529.418864 352.975309 
L 534.172159 354.142685 
L 538.925455 355.294606 
L 543.67875 356.429424 
" style="fill:none;stroke:#000000;stroke-dasharray:6.000000,6.000000;stroke-dashoffset:0.0;stroke-width:2.0;"/>
   </g>
   <g id="line2d_22">
    <path clip-path="url(#p78bfca5dbc)" d="M 73.1025 261.047643 
L 77.855795 261.700097 
L 82.609091 262.357547 
L 87.362386 263.020041 
L 92.115682 263.687629 
L 96.868977 264.36036 
L 101.622273 265.038282 
L 106.375568 265.721448 
L 111.128864 266.409906 
L 115.882159 267.103707 
L 120.635455 267.802903 
L 125.38875 268.507545 
L 130.142045 269.217684 
L 134.895341 269.933371 
L 139.648636 270.654659 
L 144.401932 271.381601 
L 149.155227 272.114247 
L 153.908523 272.852651 
L 158.661818 273.596865 
L 163.415114 274.346943 
L 168.168409 275.102936 
L 172.921705 275.864898 
L 177.675 276.632882 
L 182.428295 277.406939 
L 187.181591 278.187124 
L 191.934886 278.973488 
L 196.688182 279.766085 
L 201.441477 280.564965 
L 206.194773 281.370182 
L 210.948068 282.181786 
L 215.701364 282.999829 
L 220.454659 283.824362 
L 225.207955 284.655434 
L 229.96125 285.493097 
L 234.714545 286.337397 
L 239.467841 287.188385 
L 244.221136 288.046106 
L 248.974432 288.910608 
L 253.727727 289.781935 
L 258.481023 290.660132 
L 263.234318 291.545241 
L 267.987614 292.437304 
L 272.740909 293.336362 
L 277.494205 294.242451 
L 282.2475 295.155608 
L 287.000795 296.075868 
L 291.754091 297.003262 
L 296.507386 297.937821 
L 301.260682 298.879571 
L 306.013977 299.828537 
L 310.767273 300.78474 
L 315.520568 301.748197 
L 320.273864 302.718924 
L 325.027159 303.696931 
L 329.780455 304.682225 
L 334.53375 305.674807 
L 339.287045 306.674675 
L 344.040341 307.681822 
L 348.793636 308.696233 
L 353.546932 309.717889 
L 358.300227 310.746765 
L 363.053523 311.782829 
L 367.806818 312.826039 
L 372.560114 313.876349 
L 377.313409 314.933703 
L 382.066705 315.998034 
L 386.82 317.069267 
L 391.573295 318.147317 
L 396.326591 319.232087 
L 401.079886 320.323467 
L 405.833182 321.421336 
L 410.586477 322.525557 
L 415.339773 323.63598 
L 420.093068 324.752438 
L 424.846364 325.874747 
L 429.599659 327.002703 
L 434.352955 328.136086 
L 439.10625 329.27465 
L 443.859545 330.418131 
L 448.612841 331.566238 
L 453.366136 332.718653 
L 458.119432 333.875031 
L 462.872727 335.034998 
L 467.626023 336.198144 
L 472.379318 337.364029 
L 477.132614 338.532171 
L 481.885909 339.70205 
L 486.639205 340.873102 
L 491.3925 342.044716 
L 496.145795 343.216231 
L 500.899091 344.386934 
L 505.652386 345.55605 
L 510.405682 346.722745 
L 515.158977 347.886114 
L 519.912273 349.045182 
L 524.665568 350.198895 
L 529.418864 351.346113 
L 534.172159 352.485606 
L 538.925455 353.616044 
L 543.67875 354.73599 
" style="fill:none;stroke:#000000;stroke-dasharray:1.000000,3.000000;stroke-dashoffset:0.0;stroke-width:2.0;"/>
   </g>
   <g id="patch_9">
    <path d="M 73.1025 371.680313 
L 73.1025 217.039922 
" style="fill:none;stroke:#000000;stroke-linecap:square;stroke-linejoin:miter;"/>
   </g>
   <g id="patch_10">
    <path d="M 73.1025 217.039922 
L 543.67875 217.039922 
" style="fill:none;stroke:#000000;stroke-linecap:square;stroke-linejoin:miter;"/>
   </g>
   <g id="patch_11">
    <path d="M 543.67875 371.680313 
L 543.67875 217.039922 
" style="fill:none;stroke:#000000;stroke-linecap:square;stroke-linejoin:miter;"/>
   </g>
   <g id="patch_12">
    <path d="M 73.1025 371.680313 
L 543.67875 371.680313 
" style="fill:none;stroke:#000000;stroke-linecap:square;stroke-linejoin:miter;"/>
   </g>
   <g id="matplotlib.axis_2">
    <g id="xtick_1">
     <g id="line2d_23">
      <defs>
       <path d="M 0 0 
L 0 -4 
" id="m7c708a134e" style="stroke:#000000;stroke-width:0.5;"/>
      </defs>
      <g>
       <use style="stroke:#000000;stroke-width:0.5;" x="73.1025" xlink:href="#m7c708a134e" y="371.6803125"/>
      </g>
     </g>
     <g id="line2d_24">
      <defs>
       <path d="M 0 0 
L 0 4 
" id="mee6488b008" style="stroke:#000000;stroke-width:0.5;"/>
      </defs>
      <g>
       <use style="stroke:#000000;stroke-width:0.5;" x="73.1025" xlink:href="#mee6488b008" y="217.039921875"/>
      </g>
     </g>
     <g id="text_10">
      <!-- −1.0 -->
      <defs>
       <path d="M 10.59375 35.5 
L 73.1875 35.5 
L 73.1875 27.203125 
L 10.59375 27.203125 
z
" id="BitstreamVeraSans-Roman-2212"/>
      </defs>
      <g transform="translate(51.24796875 389.3575)scale(0.18 -0.18)">
       <use xlink:href="#BitstreamVeraSans-Roman-2212"/>
       <use x="83.7890625" xlink:href="#BitstreamVeraSans-Roman-31"/>
       <use x="147.412109375" xlink:href="#BitstreamVeraSans-Roman-2e"/>
       <use x="179.19921875" xlink:href="#BitstreamVeraSans-Roman-30"/>
      </g>
     </g>
    </g>
    <g id="xtick_2">
     <g id="line2d_25">
      <g>
       <use style="stroke:#000000;stroke-width:0.5;" x="308.390625" xlink:href="#m7c708a134e" y="371.6803125"/>
      </g>
     </g>
     <g id="line2d_26">
      <g>
       <use style="stroke:#000000;stroke-width:0.5;" x="308.390625" xlink:href="#mee6488b008" y="217.039921875"/>
      </g>
     </g>
     <g id="text_11">
      <!-- −0.5 -->
      <g transform="translate(286.53609375 389.3575)scale(0.18 -0.18)">
       <use xlink:href="#BitstreamVeraSans-Roman-2212"/>
       <use x="83.7890625" xlink:href="#BitstreamVeraSans-Roman-30"/>
       <use x="147.412109375" xlink:href="#BitstreamVeraSans-Roman-2e"/>
       <use x="179.19921875" xlink:href="#BitstreamVeraSans-Roman-35"/>
      </g>
     </g>
    </g>
    <g id="xtick_3">
     <g id="line2d_27">
      <g>
       <use style="stroke:#000000;stroke-width:0.5;" x="543.67875" xlink:href="#m7c708a134e" y="371.6803125"/>
      </g>
     </g>
     <g id="line2d_28">
      <g>
       <use style="stroke:#000000;stroke-width:0.5;" x="543.67875" xlink:href="#mee6488b008" y="217.039921875"/>
      </g>
     </g>
     <g id="text_12">
      <!-- 0.0 -->
      <g transform="translate(529.3659375 389.3575)scale(0.18 -0.18)">
       <use xlink:href="#BitstreamVeraSans-Roman-30"/>
       <use x="63.623046875" xlink:href="#BitstreamVeraSans-Roman-2e"/>
       <use x="95.41015625" xlink:href="#BitstreamVeraSans-Roman-30"/>
      </g>
     </g>
    </g>
    <g id="text_13">
     <!-- $E - \mu$ $\left(\mathregular{eV} \right)$ -->
     <defs>
      <path d="M 2.78125 -18.796875 
Q 2.78125 -18.21875 2.875 -18.015625 
L 17.578125 41.015625 
Q 18.015625 42.4375 19.15625 43.3125 
Q 20.3125 44.1875 21.78125 44.1875 
Q 23.046875 44.1875 23.921875 43.421875 
Q 24.8125 42.671875 24.8125 41.40625 
Q 24.8125 41.109375 24.78125 40.9375 
Q 24.75 40.765625 24.703125 40.578125 
L 18.796875 17.1875 
Q 17.828125 13.03125 17.828125 10.015625 
Q 17.828125 6.296875 19.578125 3.90625 
Q 21.34375 1.515625 24.90625 1.515625 
Q 32.171875 1.515625 37.703125 10.59375 
Q 37.75 10.6875 37.765625 10.734375 
Q 37.796875 10.796875 37.796875 10.890625 
L 45.015625 39.890625 
Q 45.359375 41.21875 46.578125 42.15625 
Q 47.796875 43.109375 49.21875 43.109375 
Q 50.390625 43.109375 51.296875 42.328125 
Q 52.203125 41.546875 52.203125 40.28125 
Q 52.203125 39.703125 52.09375 39.5 
L 44.921875 10.6875 
Q 44.1875 7.859375 44.1875 5.8125 
Q 44.1875 1.515625 47.125 1.515625 
Q 50.25 1.515625 51.828125 5.375 
Q 53.421875 9.234375 54.59375 14.703125 
Q 54.78125 15.28125 55.421875 15.28125 
L 56.59375 15.28125 
Q 56.984375 15.28125 57.25 14.96875 
Q 57.515625 14.65625 57.515625 14.3125 
Q 55.765625 7.328125 53.6875 3.09375 
Q 51.609375 -1.125 46.921875 -1.125 
Q 43.609375 -1.125 41.046875 0.78125 
Q 38.484375 2.6875 37.703125 5.90625 
Q 35.203125 2.78125 31.859375 0.828125 
Q 28.515625 -1.125 24.8125 -1.125 
Q 18.5625 -1.125 14.984375 1.8125 
L 9.90625 -18.40625 
Q 9.625 -19.828125 8.453125 -20.703125 
Q 7.28125 -21.578125 5.8125 -21.578125 
Q 4.59375 -21.578125 3.6875 -20.8125 
Q 2.78125 -20.0625 2.78125 -18.796875 
" id="Cmmi10-b9"/>
      <path d="M 4.6875 0 
Q 3.71875 0 3.71875 1.3125 
Q 3.765625 1.5625 3.90625 2.171875 
Q 4.046875 2.78125 4.3125 3.140625 
Q 4.59375 3.515625 4.984375 3.515625 
Q 11.078125 3.515625 13.484375 4.203125 
Q 14.796875 4.640625 15.375 6.890625 
L 29.109375 61.8125 
Q 29.296875 62.796875 29.296875 63.1875 
Q 29.296875 64.265625 28.078125 64.40625 
Q 26.21875 64.796875 20.90625 64.796875 
Q 19.921875 64.796875 19.921875 66.109375 
Q 19.96875 66.359375 20.109375 66.96875 
Q 20.265625 67.578125 20.53125 67.9375 
Q 20.796875 68.3125 21.1875 68.3125 
L 75.390625 68.3125 
Q 76.421875 68.3125 76.421875 67 
L 74.03125 46.296875 
Q 74.03125 46.046875 73.65625 45.71875 
Q 73.296875 45.40625 73 45.40625 
L 72.125 45.40625 
Q 71.09375 45.40625 71.09375 46.6875 
Q 71.6875 51.5625 71.6875 53.90625 
Q 71.6875 57.90625 70.3125 60.125 
Q 68.953125 62.359375 66.671875 63.328125 
Q 64.40625 64.3125 61.640625 64.546875 
Q 58.890625 64.796875 54.390625 64.796875 
L 43.015625 64.796875 
Q 40.28125 64.796875 39.40625 64.328125 
Q 38.53125 63.875 37.796875 61.375 
L 31.78125 37.203125 
L 39.59375 37.203125 
Q 44.671875 37.203125 47.265625 37.90625 
Q 49.859375 38.625 51.359375 40.859375 
Q 52.875 43.109375 54.109375 48 
Q 54.203125 48.34375 54.46875 48.609375 
Q 54.734375 48.875 55.078125 48.875 
L 56 48.875 
Q 56.984375 48.875 56.984375 47.609375 
L 50.78125 22.90625 
Q 50.59375 22.015625 49.8125 22.015625 
L 48.875 22.015625 
Q 47.90625 22.015625 47.90625 23.296875 
Q 48.875 27.296875 48.875 29.203125 
Q 48.875 32.125 46.234375 32.90625 
Q 43.609375 33.6875 39.203125 33.6875 
L 30.90625 33.6875 
L 24.125 6.5 
Q 23.6875 5.28125 23.6875 4.296875 
Q 23.6875 3.515625 27.09375 3.515625 
L 39.203125 3.515625 
Q 46.4375 3.515625 50.921875 4.640625 
Q 55.421875 5.765625 58.375 8.21875 
Q 61.328125 10.6875 63.46875 14.5 
Q 65.625 18.3125 68.703125 25.59375 
Q 68.890625 26.21875 69.578125 26.21875 
L 70.515625 26.21875 
Q 70.90625 26.21875 71.1875 25.875 
Q 71.484375 25.53125 71.484375 25.09375 
Q 71.484375 24.90625 71.390625 24.703125 
L 61.078125 0.59375 
Q 60.890625 0 60.296875 0 
z
" id="Cmmi10-45"/>
      <path d="M 10.203125 23 
Q 9.375 23 8.828125 23.625 
Q 8.296875 24.265625 8.296875 25 
Q 8.296875 25.734375 8.828125 26.359375 
Q 9.375 27 10.203125 27 
L 67.578125 27 
Q 68.359375 27 68.875 26.359375 
Q 69.390625 25.734375 69.390625 25 
Q 69.390625 24.265625 68.875 23.625 
Q 68.359375 23 67.578125 23 
z
" id="Cmsy10-a1"/>
     </defs>
     <g transform="translate(266.360625 411.5615625)scale(0.18 -0.18)">
      <use transform="translate(0.0 0.09375)" xlink:href="#Cmmi10-45"/>
      <use transform="translate(91.337890625 0.09375)" xlink:href="#Cmsy10-a1"/>
      <use transform="translate(186.58203125 0.09375)" xlink:href="#Cmmi10-b9"/>
      <use transform="translate(246.787109375 0.09375)" xlink:href="#BitstreamVeraSans-Roman-20"/>
      <use transform="translate(278.57421875 17.25)scale(0.74328125)" xlink:href="#Cmr10-28"/>
      <use transform="translate(307.4271697998047 0.09375)" xlink:href="#BitstreamVeraSans-Roman-65"/>
      <use transform="translate(368.9506072998047 0.09375)" xlink:href="#BitstreamVeraSans-Roman-56"/>
      <use transform="translate(437.3588104248047 17.25)scale(0.74328125)" xlink:href="#Cmr10-29"/>
     </g>
    </g>
   </g>
   <g id="matplotlib.axis_3">
    <g id="ytick_6">
     <g id="line2d_29">
      <g>
       <use style="stroke:#000000;stroke-width:0.5;" x="73.1025" xlink:href="#m67847687f7" y="371.6803125"/>
      </g>
     </g>
     <g id="line2d_30">
      <g>
       <use style="stroke:#000000;stroke-width:0.5;" x="543.67875" xlink:href="#m6f25b1577b" y="371.6803125"/>
      </g>
     </g>
     <g id="text_14">
      <!-- 0.0 -->
      <g transform="translate(40.476875 376.6471875)scale(0.18 -0.18)">
       <use xlink:href="#BitstreamVeraSans-Roman-30"/>
       <use x="63.623046875" xlink:href="#BitstreamVeraSans-Roman-2e"/>
       <use x="95.41015625" xlink:href="#BitstreamVeraSans-Roman-30"/>
      </g>
     </g>
    </g>
    <g id="ytick_7">
     <g id="line2d_31">
      <g>
       <use style="stroke:#000000;stroke-width:0.5;" x="73.1025" xlink:href="#m67847687f7" y="320.133515625"/>
      </g>
     </g>
     <g id="line2d_32">
      <g>
       <use style="stroke:#000000;stroke-width:0.5;" x="543.67875" xlink:href="#m6f25b1577b" y="320.133515625"/>
      </g>
     </g>
     <g id="text_15">
      <!-- 0.1 -->
      <g transform="translate(40.476875 325.100390625)scale(0.18 -0.18)">
       <use xlink:href="#BitstreamVeraSans-Roman-30"/>
       <use x="63.623046875" xlink:href="#BitstreamVeraSans-Roman-2e"/>
       <use x="95.41015625" xlink:href="#BitstreamVeraSans-Roman-31"/>
      </g>
     </g>
    </g>
    <g id="ytick_8">
     <g id="line2d_33">
      <g>
       <use style="stroke:#000000;stroke-width:0.5;" x="73.1025" xlink:href="#m67847687f7" y="268.58671875"/>
      </g>
     </g>
     <g id="line2d_34">
      <g>
       <use style="stroke:#000000;stroke-width:0.5;" x="543.67875" xlink:href="#m6f25b1577b" y="268.58671875"/>
      </g>
     </g>
     <g id="text_16">
      <!-- 0.2 -->
      <g transform="translate(40.476875 273.55359375)scale(0.18 -0.18)">
       <use xlink:href="#BitstreamVeraSans-Roman-30"/>
       <use x="63.623046875" xlink:href="#BitstreamVeraSans-Roman-2e"/>
       <use x="95.41015625" xlink:href="#BitstreamVeraSans-Roman-32"/>
      </g>
     </g>
    </g>
    <g id="ytick_9">
     <g id="line2d_35">
      <g>
       <use style="stroke:#000000;stroke-width:0.5;" x="73.1025" xlink:href="#m67847687f7" y="217.039921875"/>
      </g>
     </g>
     <g id="line2d_36">
      <g>
       <use style="stroke:#000000;stroke-width:0.5;" x="543.67875" xlink:href="#m6f25b1577b" y="217.039921875"/>
      </g>
     </g>
     <g id="text_17">
      <!-- 0.3 -->
      <defs>
       <path d="M 40.578125 39.3125 
Q 47.65625 37.796875 51.625 33 
Q 55.609375 28.21875 55.609375 21.1875 
Q 55.609375 10.40625 48.1875 4.484375 
Q 40.765625 -1.421875 27.09375 -1.421875 
Q 22.515625 -1.421875 17.65625 -0.515625 
Q 12.796875 0.390625 7.625 2.203125 
L 7.625 11.71875 
Q 11.71875 9.328125 16.59375 8.109375 
Q 21.484375 6.890625 26.8125 6.890625 
Q 36.078125 6.890625 40.9375 10.546875 
Q 45.796875 14.203125 45.796875 21.1875 
Q 45.796875 27.640625 41.28125 31.265625 
Q 36.765625 34.90625 28.71875 34.90625 
L 20.21875 34.90625 
L 20.21875 43.015625 
L 29.109375 43.015625 
Q 36.375 43.015625 40.234375 45.921875 
Q 44.09375 48.828125 44.09375 54.296875 
Q 44.09375 59.90625 40.109375 62.90625 
Q 36.140625 65.921875 28.71875 65.921875 
Q 24.65625 65.921875 20.015625 65.03125 
Q 15.375 64.15625 9.8125 62.3125 
L 9.8125 71.09375 
Q 15.4375 72.65625 20.34375 73.4375 
Q 25.25 74.21875 29.59375 74.21875 
Q 40.828125 74.21875 47.359375 69.109375 
Q 53.90625 64.015625 53.90625 55.328125 
Q 53.90625 49.265625 50.4375 45.09375 
Q 46.96875 40.921875 40.578125 39.3125 
" id="BitstreamVeraSans-Roman-33"/>
      </defs>
      <g transform="translate(40.476875 222.006796875)scale(0.18 -0.18)">
       <use xlink:href="#BitstreamVeraSans-Roman-30"/>
       <use x="63.623046875" xlink:href="#BitstreamVeraSans-Roman-2e"/>
       <use x="95.41015625" xlink:href="#BitstreamVeraSans-Roman-33"/>
      </g>
     </g>
    </g>
    <g id="text_18">
     <!-- $\left| \left( c / ℏ \right) P_-\right|^2$ $\left(\mathregular{GeV}^2\right)$ -->
     <g transform="translate(30.976875 369.240117188)rotate(-90.0)scale(0.18 -0.18)">
      <use transform="translate(0.0 0.109375)" xlink:href="#Cmsy10-6a"/>
      <use transform="translate(27.685546875 0.109375)" xlink:href="#Cmr10-28"/>
      <use transform="translate(66.50390625 0.109375)" xlink:href="#Cmmi10-63"/>
      <use transform="translate(109.716796875 0.109375)" xlink:href="#Cmmi10-3d"/>
      <use transform="translate(159.716796875 0.109375)" xlink:href="#STIXGeneral-Regular-210f"/>
      <use transform="translate(217.61679077148438 0.109375)" xlink:href="#Cmr10-29"/>
      <use transform="translate(256.4351501464844 0.109375)" xlink:href="#Cmmi10-50"/>
      <use transform="translate(332.9351501464844 -16.896874999999994)scale(0.7)" xlink:href="#Cmsy10-a1"/>
      <use transform="translate(405.9833923339844 0.109375)" xlink:href="#Cmsy10-6a"/>
      <use transform="translate(438.1330798339844 38.3734375)scale(0.7)" xlink:href="#Cmr10-32"/>
      <use transform="translate(479.5104235839844 0.109375)" xlink:href="#BitstreamVeraSans-Roman-20"/>
      <use transform="translate(511.2975329589844 20.265625)scale(0.863125)" xlink:href="#Cmr10-28"/>
      <use transform="translate(544.8026293945313 0.109375)" xlink:href="#BitstreamVeraSans-Roman-47"/>
      <use transform="translate(622.2928637695313 0.109375)" xlink:href="#BitstreamVeraSans-Roman-65"/>
      <use transform="translate(683.8163012695313 0.109375)" xlink:href="#BitstreamVeraSans-Roman-56"/>
      <use transform="translate(756.6886450195314 38.3734375)scale(0.7)" xlink:href="#Cmr10-32"/>
      <use transform="translate(798.0659887695313 20.265625)scale(0.863125)" xlink:href="#Cmr10-29"/>
     </g>
    </g>
   </g>
  </g>
 </g>
 <defs>
  <clipPath id="p78bfca5dbc">
   <rect height="154.640390625" width="470.57625" x="73.1025" y="217.039921875"/>
  </clipPath>
  <clipPath id="p4156a23353">
   <rect height="154.640390625" width="470.57625" x="73.1025" y="27.27984375"/>
  </clipPath>
 </defs>
</svg>
