<?xml version="1.0" encoding="utf-8" standalone="no"?>
<!DOCTYPE svg PUBLIC "-//W3C//DTD SVG 1.1//EN"
  "http://www.w3.org/Graphics/SVG/1.1/DTD/svg11.dtd">
<!-- Created with matplotlib (http://matplotlib.org/) -->
<svg height="432pt" version="1.1" viewBox="0 0 576 432" width="576pt" xmlns="http://www.w3.org/2000/svg" xmlns:xlink="http://www.w3.org/1999/xlink">
 <defs>
  <style type="text/css">
*{stroke-linecap:butt;stroke-linejoin:round;stroke-miterlimit:100000;}
  </style>
 </defs>
 <g id="figure_1">
  <g id="patch_1">
   <path d="M 0 432 
L 576 432 
L 576 0 
L 0 0 
L 0 432 
z
" style="fill:none;"/>
  </g>
  <g id="axes_1">
   <g id="patch_2">
    <path d="M 72 388.8 
L 518.4 388.8 
L 518.4 43.2 
L 72 43.2 
L 72 388.8 
z
" style="fill:none;"/>
   </g>
   <g id="line2d_1">
    <defs>
     <path d="M 0 1.5 
C 0.397805 1.5 0.77937 1.341951 1.06066 1.06066 
C 1.341951 0.77937 1.5 0.397805 1.5 0 
C 1.5 -0.397805 1.341951 -0.77937 1.06066 -1.06066 
C 0.77937 -1.341951 0.397805 -1.5 0 -1.5 
C -0.397805 -1.5 -0.77937 -1.341951 -1.06066 -1.06066 
C -1.341951 -0.77937 -1.5 -0.397805 -1.5 0 
C -1.5 0.397805 -1.341951 0.77937 -1.06066 1.06066 
C -0.77937 1.341951 -0.397805 1.5 0 1.5 
z
" id="m5916ef0f36" style="stroke:#2aa198;stroke-width:0.5;"/>
    </defs>
    <g clip-path="url(#pc179814c7c)">
     <use style="fill:#2aa198;stroke:#2aa198;stroke-width:0.5;" x="101.868624" xlink:href="#m5916ef0f36" y="314.6121216"/>
     <use style="fill:#2aa198;stroke:#2aa198;stroke-width:0.5;" x="109.600272" xlink:href="#m5916ef0f36" y="317.4778368"/>
     <use style="fill:#2aa198;stroke:#2aa198;stroke-width:0.5;" x="117.33192" xlink:href="#m5916ef0f36" y="315.4443264"/>
     <use style="fill:#2aa198;stroke:#2aa198;stroke-width:0.5;" x="125.064684" xlink:href="#m5916ef0f36" y="321.1854336"/>
     <use style="fill:#2aa198;stroke:#2aa198;stroke-width:0.5;" x="132.796332" xlink:href="#m5916ef0f36" y="320.9393664"/>
     <use style="fill:#2aa198;stroke:#2aa198;stroke-width:0.5;" x="140.52798" xlink:href="#m5916ef0f36" y="326.5007616"/>
     <use style="fill:#2aa198;stroke:#2aa198;stroke-width:0.5;" x="148.259628" xlink:href="#m5916ef0f36" y="328.810752"/>
     <use style="fill:#2aa198;stroke:#2aa198;stroke-width:0.5;" x="155.992392" xlink:href="#m5916ef0f36" y="329.2821504"/>
     <use style="fill:#2aa198;stroke:#2aa198;stroke-width:0.5;" x="163.72404" xlink:href="#m5916ef0f36" y="336.8245248"/>
     <use style="fill:#2aa198;stroke:#2aa198;stroke-width:0.5;" x="171.455688" xlink:href="#m5916ef0f36" y="348.9398784"/>
     <use style="fill:#2aa198;stroke:#2aa198;stroke-width:0.5;" x="179.187336" xlink:href="#m5916ef0f36" y="345.8045952"/>
     <use style="fill:#2aa198;stroke:#2aa198;stroke-width:0.5;" x="186.9201" xlink:href="#m5916ef0f36" y="364.8803328"/>
     <use style="fill:#2aa198;stroke:#2aa198;stroke-width:0.5;" x="194.651748" xlink:href="#m5916ef0f36" y="377.941248"/>
     <use style="fill:#2aa198;stroke:#2aa198;stroke-width:0.5;" x="202.383396" xlink:href="#m5916ef0f36" y="382.8888576"/>
     <use style="fill:#2aa198;stroke:#2aa198;stroke-width:0.5;" x="210.11616" xlink:href="#m5916ef0f36" y="372.7116288"/>
     <use style="fill:#2aa198;stroke:#2aa198;stroke-width:0.5;" x="217.847808" xlink:href="#m5916ef0f36" y="343.2250368"/>
     <use style="fill:#2aa198;stroke:#2aa198;stroke-width:0.5;" x="225.579456" xlink:href="#m5916ef0f36" y="326.806272"/>
     <use style="fill:#2aa198;stroke:#2aa198;stroke-width:0.5;" x="233.311104" xlink:href="#m5916ef0f36" y="297.2837376"/>
     <use style="fill:#2aa198;stroke:#2aa198;stroke-width:0.5;" x="241.043868" xlink:href="#m5916ef0f36" y="268.9763328"/>
     <use style="fill:#2aa198;stroke:#2aa198;stroke-width:0.5;" x="248.775516" xlink:href="#m5916ef0f36" y="247.9666176"/>
     <use style="fill:#2aa198;stroke:#2aa198;stroke-width:0.5;" x="256.507164" xlink:href="#m5916ef0f36" y="212.5910016"/>
     <use style="fill:#2aa198;stroke:#2aa198;stroke-width:0.5;" x="264.238812" xlink:href="#m5916ef0f36" y="178.1540352"/>
     <use style="fill:#2aa198;stroke:#2aa198;stroke-width:0.5;" x="271.971576" xlink:href="#m5916ef0f36" y="153.5721984"/>
     <use style="fill:#2aa198;stroke:#2aa198;stroke-width:0.5;" x="279.703224" xlink:href="#m5916ef0f36" y="139.3555968"/>
     <use style="fill:#2aa198;stroke:#2aa198;stroke-width:0.5;" x="287.434872" xlink:href="#m5916ef0f36" y="120.0116736"/>
     <use style="fill:#2aa198;stroke:#2aa198;stroke-width:0.5;" x="295.1671896" xlink:href="#m5916ef0f36" y="96.3560448"/>
     <use style="fill:#2aa198;stroke:#2aa198;stroke-width:0.5;" x="302.899284" xlink:href="#m5916ef0f36" y="113.750784"/>
     <use style="fill:#2aa198;stroke:#2aa198;stroke-width:0.5;" x="310.630932" xlink:href="#m5916ef0f36" y="130.04928"/>
     <use style="fill:#2aa198;stroke:#2aa198;stroke-width:0.5;" x="318.36258" xlink:href="#m5916ef0f36" y="148.5651456"/>
     <use style="fill:#2aa198;stroke:#2aa198;stroke-width:0.5;" x="326.095344" xlink:href="#m5916ef0f36" y="171.3443328"/>
     <use style="fill:#2aa198;stroke:#2aa198;stroke-width:0.5;" x="333.826992" xlink:href="#m5916ef0f36" y="192.3042816"/>
     <use style="fill:#2aa198;stroke:#2aa198;stroke-width:0.5;" x="341.55864" xlink:href="#m5916ef0f36" y="226.9665792"/>
     <use style="fill:#2aa198;stroke:#2aa198;stroke-width:0.5;" x="349.291404" xlink:href="#m5916ef0f36" y="261.3814272"/>
     <use style="fill:#2aa198;stroke:#2aa198;stroke-width:0.5;" x="357.023052" xlink:href="#m5916ef0f36" y="289.7524224"/>
     <use style="fill:#2aa198;stroke:#2aa198;stroke-width:0.5;" x="364.7547" xlink:href="#m5916ef0f36" y="316.0677888"/>
     <use style="fill:#2aa198;stroke:#2aa198;stroke-width:0.5;" x="372.486348" xlink:href="#m5916ef0f36" y="351.3964032"/>
     <use style="fill:#2aa198;stroke:#2aa198;stroke-width:0.5;" x="380.219112" xlink:href="#m5916ef0f36" y="359.4848256"/>
     <use style="fill:#2aa198;stroke:#2aa198;stroke-width:0.5;" x="387.95076" xlink:href="#m5916ef0f36" y="386.740224"/>
     <use style="fill:#2aa198;stroke:#2aa198;stroke-width:0.5;" x="395.682408" xlink:href="#m5916ef0f36" y="382.7920896"/>
     <use style="fill:#2aa198;stroke:#2aa198;stroke-width:0.5;" x="403.414056" xlink:href="#m5916ef0f36" y="371.7052416"/>
     <use style="fill:#2aa198;stroke:#2aa198;stroke-width:0.5;" x="411.14682" xlink:href="#m5916ef0f36" y="355.0169088"/>
     <use style="fill:#2aa198;stroke:#2aa198;stroke-width:0.5;" x="418.878468" xlink:href="#m5916ef0f36" y="338.1198336"/>
     <use style="fill:#2aa198;stroke:#2aa198;stroke-width:0.5;" x="426.610116" xlink:href="#m5916ef0f36" y="339.3086976"/>
     <use style="fill:#2aa198;stroke:#2aa198;stroke-width:0.5;" x="434.34288" xlink:href="#m5916ef0f36" y="329.3277696"/>
     <use style="fill:#2aa198;stroke:#2aa198;stroke-width:0.5;" x="442.074528" xlink:href="#m5916ef0f36" y="323.68896"/>
     <use style="fill:#2aa198;stroke:#2aa198;stroke-width:0.5;" x="449.806176" xlink:href="#m5916ef0f36" y="323.571456"/>
     <use style="fill:#2aa198;stroke:#2aa198;stroke-width:0.5;" x="457.537824" xlink:href="#m5916ef0f36" y="320.9780736"/>
     <use style="fill:#2aa198;stroke:#2aa198;stroke-width:0.5;" x="465.270588" xlink:href="#m5916ef0f36" y="321.5213568"/>
     <use style="fill:#2aa198;stroke:#2aa198;stroke-width:0.5;" x="473.002236" xlink:href="#m5916ef0f36" y="315.9447552"/>
     <use style="fill:#2aa198;stroke:#2aa198;stroke-width:0.5;" x="480.733884" xlink:href="#m5916ef0f36" y="323.6447232"/>
     <use style="fill:#2aa198;stroke:#2aa198;stroke-width:0.5;" x="488.465532" xlink:href="#m5916ef0f36" y="321.7909248"/>
    </g>
   </g>
   <g id="line2d_2">
    <path clip-path="url(#pc179814c7c)" d="M 101.868624 319.009828 
L 107.04137 318.690454 
L 112.214116 318.589457 
L 117.386862 318.734688 
L 122.559607 319.156611 
L 126.439167 319.67453 
L 130.318726 320.381853 
L 134.198286 321.29468 
L 138.077845 322.430126 
L 141.957404 323.806354 
L 145.836964 325.442605 
L 149.716523 327.359215 
L 153.596082 329.577624 
L 157.475642 332.120372 
L 161.355201 335.011078 
L 165.234761 338.274394 
L 169.11432 341.935944 
L 172.993879 346.022216 
L 176.873439 350.560423 
L 180.752998 355.578319 
L 184.632558 361.103949 
L 188.512117 367.165337 
L 192.391676 373.790088 
L 196.271236 381.004895 
L 200.150795 388.765067 
L 204.030354 380.296883 
L 207.909914 371.170782 
L 211.789473 361.371209 
L 215.669033 350.888076 
L 219.548592 339.718238 
L 223.428151 327.8672 
L 227.307711 315.351061 
L 231.18727 302.198715 
L 236.360016 283.751363 
L 241.532762 264.40863 
L 247.998694 239.31843 
L 260.930559 188.67235 
L 264.810118 174.219304 
L 268.689678 160.548033 
L 271.27605 152.006715 
L 273.862423 144.024081 
L 276.448796 136.686708 
L 279.035169 130.07955 
L 281.621542 124.283757 
L 284.207915 119.37433 
L 285.501102 117.27317 
L 286.794288 115.417723 
L 288.087474 113.814578 
L 289.380661 112.469513 
L 290.673847 111.387434 
L 291.967034 110.57233 
L 293.26022 110.027228 
L 294.553407 109.754165 
L 295.846593 109.754165 
L 297.13978 110.027228 
L 298.432966 110.57233 
L 299.726153 111.387434 
L 301.019339 112.469513 
L 302.312526 113.814578 
L 303.605712 115.417723 
L 304.898898 117.27317 
L 306.192085 119.37433 
L 307.485271 121.713866 
L 310.071644 127.075373 
L 312.658017 133.286664 
L 315.24439 140.269364 
L 317.830763 147.940137 
L 320.417136 156.212959 
L 324.296695 169.561758 
L 328.176255 183.784487 
L 333.349001 203.644558 
L 351.453611 274.179701 
L 356.626357 293.098116 
L 361.799103 311.035794 
L 365.678662 323.767912 
L 369.558222 335.843024 
L 373.437781 347.241021 
L 377.31734 357.953096 
L 381.1969 367.979712 
L 385.076459 377.328817 
L 388.956018 386.014295 
L 390.249205 388.765067 
L 395.421951 378.532805 
L 399.30151 371.517569 
L 403.18107 365.083628 
L 407.060629 359.203923 
L 410.940188 353.85066 
L 414.819748 348.995768 
L 418.699307 344.611267 
L 422.578866 340.669561 
L 426.458426 337.143658 
L 430.337985 334.007346 
L 434.217545 331.235316 
L 438.097104 328.803252 
L 441.976663 326.687893 
L 445.856223 324.867064 
L 449.735782 323.319692 
L 453.615342 322.025809 
L 457.494901 320.966536 
L 461.37446 320.124061 
L 465.25402 319.481612 
L 469.133579 319.023421 
L 474.306325 318.673677 
L 479.479071 318.592754 
L 484.651817 318.750858 
L 488.531376 319.009828 
L 488.531376 319.009828 
" style="fill:none;stroke:#002b36;stroke-linecap:square;"/>
   </g>
   <g id="patch_3">
    <path d="M 72 43.2 
L 518.4 43.2 
" style="fill:none;stroke:#657b83;stroke-linecap:square;stroke-linejoin:miter;"/>
   </g>
   <g id="patch_4">
    <path d="M 518.4 388.8 
L 518.4 43.2 
" style="fill:none;stroke:#657b83;stroke-linecap:square;stroke-linejoin:miter;"/>
   </g>
   <g id="patch_5">
    <path d="M 72 388.8 
L 72 43.2 
" style="fill:none;stroke:#657b83;stroke-linecap:square;stroke-linejoin:miter;"/>
   </g>
   <g id="patch_6">
    <path d="M 72 388.8 
L 518.4 388.8 
" style="fill:none;stroke:#657b83;stroke-linecap:square;stroke-linejoin:miter;"/>
   </g>
   <g id="matplotlib.axis_1">
    <g id="xtick_1">
     <g id="line2d_3">
      <defs>
       <path d="M 0 0 
L 0 -4 
" id="m1d2225a386" style="stroke:#002b36;stroke-width:0.5;"/>
      </defs>
      <g>
       <use style="fill:#002b36;stroke:#002b36;stroke-width:0.5;" x="72.0" xlink:href="#m1d2225a386" y="388.8"/>
      </g>
     </g>
     <g id="line2d_4">
      <defs>
       <path d="M 0 0 
L 0 4 
" id="m46ab5726c8" style="stroke:#002b36;stroke-width:0.5;"/>
      </defs>
      <g>
       <use style="fill:#002b36;stroke:#002b36;stroke-width:0.5;" x="72.0" xlink:href="#m46ab5726c8" y="43.2"/>
      </g>
     </g>
     <g id="text_1">
      <!-- −0.20 -->
      <defs>
       <path d="M 31.78125 66.40625 
Q 24.171875 66.40625 20.328125 58.90625 
Q 16.5 51.421875 16.5 36.375 
Q 16.5 21.390625 20.328125 13.890625 
Q 24.171875 6.390625 31.78125 6.390625 
Q 39.453125 6.390625 43.28125 13.890625 
Q 47.125 21.390625 47.125 36.375 
Q 47.125 51.421875 43.28125 58.90625 
Q 39.453125 66.40625 31.78125 66.40625 
M 31.78125 74.21875 
Q 44.046875 74.21875 50.515625 64.515625 
Q 56.984375 54.828125 56.984375 36.375 
Q 56.984375 17.96875 50.515625 8.265625 
Q 44.046875 -1.421875 31.78125 -1.421875 
Q 19.53125 -1.421875 13.0625 8.265625 
Q 6.59375 17.96875 6.59375 36.375 
Q 6.59375 54.828125 13.0625 64.515625 
Q 19.53125 74.21875 31.78125 74.21875 
" id="BitstreamVeraSans-Roman-30"/>
       <path d="M 10.6875 12.40625 
L 21 12.40625 
L 21 0 
L 10.6875 0 
z
" id="BitstreamVeraSans-Roman-2e"/>
       <path d="M 19.1875 8.296875 
L 53.609375 8.296875 
L 53.609375 0 
L 7.328125 0 
L 7.328125 8.296875 
Q 12.9375 14.109375 22.625 23.890625 
Q 32.328125 33.6875 34.8125 36.53125 
Q 39.546875 41.84375 41.421875 45.53125 
Q 43.3125 49.21875 43.3125 52.78125 
Q 43.3125 58.59375 39.234375 62.25 
Q 35.15625 65.921875 28.609375 65.921875 
Q 23.96875 65.921875 18.8125 64.3125 
Q 13.671875 62.703125 7.8125 59.421875 
L 7.8125 69.390625 
Q 13.765625 71.78125 18.9375 73 
Q 24.125 74.21875 28.421875 74.21875 
Q 39.75 74.21875 46.484375 68.546875 
Q 53.21875 62.890625 53.21875 53.421875 
Q 53.21875 48.921875 51.53125 44.890625 
Q 49.859375 40.875 45.40625 35.40625 
Q 44.1875 33.984375 37.640625 27.21875 
Q 31.109375 20.453125 19.1875 8.296875 
" id="BitstreamVeraSans-Roman-32"/>
       <path d="M 10.59375 35.5 
L 73.1875 35.5 
L 73.1875 27.203125 
L 10.59375 27.203125 
z
" id="BitstreamVeraSans-Roman-2212"/>
      </defs>
      <g style="fill:#002b36;" transform="translate(53.6128125 401.918125)scale(0.12 -0.12)">
       <use xlink:href="#BitstreamVeraSans-Roman-2212"/>
       <use x="83.7890625" xlink:href="#BitstreamVeraSans-Roman-30"/>
       <use x="147.412109375" xlink:href="#BitstreamVeraSans-Roman-2e"/>
       <use x="179.19921875" xlink:href="#BitstreamVeraSans-Roman-32"/>
       <use x="242.822265625" xlink:href="#BitstreamVeraSans-Roman-30"/>
      </g>
     </g>
    </g>
    <g id="xtick_2">
     <g id="line2d_5">
      <g>
       <use style="fill:#002b36;stroke:#002b36;stroke-width:0.5;" x="127.8" xlink:href="#m1d2225a386" y="388.8"/>
      </g>
     </g>
     <g id="line2d_6">
      <g>
       <use style="fill:#002b36;stroke:#002b36;stroke-width:0.5;" x="127.8" xlink:href="#m46ab5726c8" y="43.2"/>
      </g>
     </g>
     <g id="text_2">
      <!-- −0.15 -->
      <defs>
       <path d="M 12.40625 8.296875 
L 28.515625 8.296875 
L 28.515625 63.921875 
L 10.984375 60.40625 
L 10.984375 69.390625 
L 28.421875 72.90625 
L 38.28125 72.90625 
L 38.28125 8.296875 
L 54.390625 8.296875 
L 54.390625 0 
L 12.40625 0 
z
" id="BitstreamVeraSans-Roman-31"/>
       <path d="M 10.796875 72.90625 
L 49.515625 72.90625 
L 49.515625 64.59375 
L 19.828125 64.59375 
L 19.828125 46.734375 
Q 21.96875 47.46875 24.109375 47.828125 
Q 26.265625 48.1875 28.421875 48.1875 
Q 40.625 48.1875 47.75 41.5 
Q 54.890625 34.8125 54.890625 23.390625 
Q 54.890625 11.625 47.5625 5.09375 
Q 40.234375 -1.421875 26.90625 -1.421875 
Q 22.3125 -1.421875 17.546875 -0.640625 
Q 12.796875 0.140625 7.71875 1.703125 
L 7.71875 11.625 
Q 12.109375 9.234375 16.796875 8.0625 
Q 21.484375 6.890625 26.703125 6.890625 
Q 35.15625 6.890625 40.078125 11.328125 
Q 45.015625 15.765625 45.015625 23.390625 
Q 45.015625 31 40.078125 35.4375 
Q 35.15625 39.890625 26.703125 39.890625 
Q 22.75 39.890625 18.8125 39.015625 
Q 14.890625 38.140625 10.796875 36.28125 
z
" id="BitstreamVeraSans-Roman-35"/>
      </defs>
      <g style="fill:#002b36;" transform="translate(109.4128125 401.918125)scale(0.12 -0.12)">
       <use xlink:href="#BitstreamVeraSans-Roman-2212"/>
       <use x="83.7890625" xlink:href="#BitstreamVeraSans-Roman-30"/>
       <use x="147.412109375" xlink:href="#BitstreamVeraSans-Roman-2e"/>
       <use x="179.19921875" xlink:href="#BitstreamVeraSans-Roman-31"/>
       <use x="242.822265625" xlink:href="#BitstreamVeraSans-Roman-35"/>
      </g>
     </g>
    </g>
    <g id="xtick_3">
     <g id="line2d_7">
      <g>
       <use style="fill:#002b36;stroke:#002b36;stroke-width:0.5;" x="183.6" xlink:href="#m1d2225a386" y="388.8"/>
      </g>
     </g>
     <g id="line2d_8">
      <g>
       <use style="fill:#002b36;stroke:#002b36;stroke-width:0.5;" x="183.6" xlink:href="#m46ab5726c8" y="43.2"/>
      </g>
     </g>
     <g id="text_3">
      <!-- −0.10 -->
      <g style="fill:#002b36;" transform="translate(165.2128125 401.918125)scale(0.12 -0.12)">
       <use xlink:href="#BitstreamVeraSans-Roman-2212"/>
       <use x="83.7890625" xlink:href="#BitstreamVeraSans-Roman-30"/>
       <use x="147.412109375" xlink:href="#BitstreamVeraSans-Roman-2e"/>
       <use x="179.19921875" xlink:href="#BitstreamVeraSans-Roman-31"/>
       <use x="242.822265625" xlink:href="#BitstreamVeraSans-Roman-30"/>
      </g>
     </g>
    </g>
    <g id="xtick_4">
     <g id="line2d_9">
      <g>
       <use style="fill:#002b36;stroke:#002b36;stroke-width:0.5;" x="239.4" xlink:href="#m1d2225a386" y="388.8"/>
      </g>
     </g>
     <g id="line2d_10">
      <g>
       <use style="fill:#002b36;stroke:#002b36;stroke-width:0.5;" x="239.4" xlink:href="#m46ab5726c8" y="43.2"/>
      </g>
     </g>
     <g id="text_4">
      <!-- −0.05 -->
      <g style="fill:#002b36;" transform="translate(221.0128125 401.918125)scale(0.12 -0.12)">
       <use xlink:href="#BitstreamVeraSans-Roman-2212"/>
       <use x="83.7890625" xlink:href="#BitstreamVeraSans-Roman-30"/>
       <use x="147.412109375" xlink:href="#BitstreamVeraSans-Roman-2e"/>
       <use x="179.19921875" xlink:href="#BitstreamVeraSans-Roman-30"/>
       <use x="242.822265625" xlink:href="#BitstreamVeraSans-Roman-35"/>
      </g>
     </g>
    </g>
    <g id="xtick_5">
     <g id="line2d_11">
      <g>
       <use style="fill:#002b36;stroke:#002b36;stroke-width:0.5;" x="295.2" xlink:href="#m1d2225a386" y="388.8"/>
      </g>
     </g>
     <g id="line2d_12">
      <g>
       <use style="fill:#002b36;stroke:#002b36;stroke-width:0.5;" x="295.2" xlink:href="#m46ab5726c8" y="43.2"/>
      </g>
     </g>
     <g id="text_5">
      <!-- 0.00 -->
      <g style="fill:#002b36;" transform="translate(281.840625 401.918125)scale(0.12 -0.12)">
       <use xlink:href="#BitstreamVeraSans-Roman-30"/>
       <use x="63.623046875" xlink:href="#BitstreamVeraSans-Roman-2e"/>
       <use x="95.41015625" xlink:href="#BitstreamVeraSans-Roman-30"/>
       <use x="159.033203125" xlink:href="#BitstreamVeraSans-Roman-30"/>
      </g>
     </g>
    </g>
    <g id="xtick_6">
     <g id="line2d_13">
      <g>
       <use style="fill:#002b36;stroke:#002b36;stroke-width:0.5;" x="351.0" xlink:href="#m1d2225a386" y="388.8"/>
      </g>
     </g>
     <g id="line2d_14">
      <g>
       <use style="fill:#002b36;stroke:#002b36;stroke-width:0.5;" x="351.0" xlink:href="#m46ab5726c8" y="43.2"/>
      </g>
     </g>
     <g id="text_6">
      <!-- 0.05 -->
      <g style="fill:#002b36;" transform="translate(337.640625 401.918125)scale(0.12 -0.12)">
       <use xlink:href="#BitstreamVeraSans-Roman-30"/>
       <use x="63.623046875" xlink:href="#BitstreamVeraSans-Roman-2e"/>
       <use x="95.41015625" xlink:href="#BitstreamVeraSans-Roman-30"/>
       <use x="159.033203125" xlink:href="#BitstreamVeraSans-Roman-35"/>
      </g>
     </g>
    </g>
    <g id="xtick_7">
     <g id="line2d_15">
      <g>
       <use style="fill:#002b36;stroke:#002b36;stroke-width:0.5;" x="406.8" xlink:href="#m1d2225a386" y="388.8"/>
      </g>
     </g>
     <g id="line2d_16">
      <g>
       <use style="fill:#002b36;stroke:#002b36;stroke-width:0.5;" x="406.8" xlink:href="#m46ab5726c8" y="43.2"/>
      </g>
     </g>
     <g id="text_7">
      <!-- 0.10 -->
      <g style="fill:#002b36;" transform="translate(393.440625 401.918125)scale(0.12 -0.12)">
       <use xlink:href="#BitstreamVeraSans-Roman-30"/>
       <use x="63.623046875" xlink:href="#BitstreamVeraSans-Roman-2e"/>
       <use x="95.41015625" xlink:href="#BitstreamVeraSans-Roman-31"/>
       <use x="159.033203125" xlink:href="#BitstreamVeraSans-Roman-30"/>
      </g>
     </g>
    </g>
    <g id="xtick_8">
     <g id="line2d_17">
      <g>
       <use style="fill:#002b36;stroke:#002b36;stroke-width:0.5;" x="462.6" xlink:href="#m1d2225a386" y="388.8"/>
      </g>
     </g>
     <g id="line2d_18">
      <g>
       <use style="fill:#002b36;stroke:#002b36;stroke-width:0.5;" x="462.6" xlink:href="#m46ab5726c8" y="43.2"/>
      </g>
     </g>
     <g id="text_8">
      <!-- 0.15 -->
      <g style="fill:#002b36;" transform="translate(449.240625 401.918125)scale(0.12 -0.12)">
       <use xlink:href="#BitstreamVeraSans-Roman-30"/>
       <use x="63.623046875" xlink:href="#BitstreamVeraSans-Roman-2e"/>
       <use x="95.41015625" xlink:href="#BitstreamVeraSans-Roman-31"/>
       <use x="159.033203125" xlink:href="#BitstreamVeraSans-Roman-35"/>
      </g>
     </g>
    </g>
    <g id="xtick_9">
     <g id="line2d_19">
      <g>
       <use style="fill:#002b36;stroke:#002b36;stroke-width:0.5;" x="518.4" xlink:href="#m1d2225a386" y="388.8"/>
      </g>
     </g>
     <g id="line2d_20">
      <g>
       <use style="fill:#002b36;stroke:#002b36;stroke-width:0.5;" x="518.4" xlink:href="#m46ab5726c8" y="43.2"/>
      </g>
     </g>
     <g id="text_9">
      <!-- 0.20 -->
      <g style="fill:#002b36;" transform="translate(505.040625 401.918125)scale(0.12 -0.12)">
       <use xlink:href="#BitstreamVeraSans-Roman-30"/>
       <use x="63.623046875" xlink:href="#BitstreamVeraSans-Roman-2e"/>
       <use x="95.41015625" xlink:href="#BitstreamVeraSans-Roman-32"/>
       <use x="159.033203125" xlink:href="#BitstreamVeraSans-Roman-30"/>
      </g>
     </g>
    </g>
    <g id="text_10">
     <!-- Magnetic Field (T) -->
     <defs>
      <path d="M 9.421875 75.984375 
L 18.40625 75.984375 
L 18.40625 0 
L 9.421875 0 
z
" id="BitstreamVeraSans-Roman-6c"/>
      <path d="M 8.015625 75.875 
L 15.828125 75.875 
Q 23.140625 64.359375 26.78125 53.3125 
Q 30.421875 42.28125 30.421875 31.390625 
Q 30.421875 20.453125 26.78125 9.375 
Q 23.140625 -1.703125 15.828125 -13.1875 
L 8.015625 -13.1875 
Q 14.5 -2 17.703125 9.0625 
Q 20.90625 20.125 20.90625 31.390625 
Q 20.90625 42.671875 17.703125 53.65625 
Q 14.5 64.65625 8.015625 75.875 
" id="BitstreamVeraSans-Roman-29"/>
      <path d="M 45.40625 46.390625 
L 45.40625 75.984375 
L 54.390625 75.984375 
L 54.390625 0 
L 45.40625 0 
L 45.40625 8.203125 
Q 42.578125 3.328125 38.25 0.953125 
Q 33.9375 -1.421875 27.875 -1.421875 
Q 17.96875 -1.421875 11.734375 6.484375 
Q 5.515625 14.40625 5.515625 27.296875 
Q 5.515625 40.1875 11.734375 48.09375 
Q 17.96875 56 27.875 56 
Q 33.9375 56 38.25 53.625 
Q 42.578125 51.265625 45.40625 46.390625 
M 14.796875 27.296875 
Q 14.796875 17.390625 18.875 11.75 
Q 22.953125 6.109375 30.078125 6.109375 
Q 37.203125 6.109375 41.296875 11.75 
Q 45.40625 17.390625 45.40625 27.296875 
Q 45.40625 37.203125 41.296875 42.84375 
Q 37.203125 48.484375 30.078125 48.484375 
Q 22.953125 48.484375 18.875 42.84375 
Q 14.796875 37.203125 14.796875 27.296875 
" id="BitstreamVeraSans-Roman-64"/>
      <path d="M 31 75.875 
Q 24.46875 64.65625 21.28125 53.65625 
Q 18.109375 42.671875 18.109375 31.390625 
Q 18.109375 20.125 21.3125 9.0625 
Q 24.515625 -2 31 -13.1875 
L 23.1875 -13.1875 
Q 15.875 -1.703125 12.234375 9.375 
Q 8.59375 20.453125 8.59375 31.390625 
Q 8.59375 42.28125 12.203125 53.3125 
Q 15.828125 64.359375 23.1875 75.875 
z
" id="BitstreamVeraSans-Roman-28"/>
      <path d="M 9.8125 72.90625 
L 51.703125 72.90625 
L 51.703125 64.59375 
L 19.671875 64.59375 
L 19.671875 43.109375 
L 48.578125 43.109375 
L 48.578125 34.8125 
L 19.671875 34.8125 
L 19.671875 0 
L 9.8125 0 
z
" id="BitstreamVeraSans-Roman-46"/>
      <path id="BitstreamVeraSans-Roman-20"/>
      <path d="M 54.890625 33.015625 
L 54.890625 0 
L 45.90625 0 
L 45.90625 32.71875 
Q 45.90625 40.484375 42.875 44.328125 
Q 39.84375 48.1875 33.796875 48.1875 
Q 26.515625 48.1875 22.3125 43.546875 
Q 18.109375 38.921875 18.109375 30.90625 
L 18.109375 0 
L 9.078125 0 
L 9.078125 54.6875 
L 18.109375 54.6875 
L 18.109375 46.1875 
Q 21.34375 51.125 25.703125 53.5625 
Q 30.078125 56 35.796875 56 
Q 45.21875 56 50.046875 50.171875 
Q 54.890625 44.34375 54.890625 33.015625 
" id="BitstreamVeraSans-Roman-6e"/>
      <path d="M -0.296875 72.90625 
L 61.375 72.90625 
L 61.375 64.59375 
L 35.5 64.59375 
L 35.5 0 
L 25.59375 0 
L 25.59375 64.59375 
L -0.296875 64.59375 
z
" id="BitstreamVeraSans-Roman-54"/>
      <path d="M 34.28125 27.484375 
Q 23.390625 27.484375 19.1875 25 
Q 14.984375 22.515625 14.984375 16.5 
Q 14.984375 11.71875 18.140625 8.90625 
Q 21.296875 6.109375 26.703125 6.109375 
Q 34.1875 6.109375 38.703125 11.40625 
Q 43.21875 16.703125 43.21875 25.484375 
L 43.21875 27.484375 
z
M 52.203125 31.203125 
L 52.203125 0 
L 43.21875 0 
L 43.21875 8.296875 
Q 40.140625 3.328125 35.546875 0.953125 
Q 30.953125 -1.421875 24.3125 -1.421875 
Q 15.921875 -1.421875 10.953125 3.296875 
Q 6 8.015625 6 15.921875 
Q 6 25.140625 12.171875 29.828125 
Q 18.359375 34.515625 30.609375 34.515625 
L 43.21875 34.515625 
L 43.21875 35.40625 
Q 43.21875 41.609375 39.140625 45 
Q 35.0625 48.390625 27.6875 48.390625 
Q 23 48.390625 18.546875 47.265625 
Q 14.109375 46.140625 10.015625 43.890625 
L 10.015625 52.203125 
Q 14.9375 54.109375 19.578125 55.046875 
Q 24.21875 56 28.609375 56 
Q 40.484375 56 46.34375 49.84375 
Q 52.203125 43.703125 52.203125 31.203125 
" id="BitstreamVeraSans-Roman-61"/>
      <path d="M 9.421875 54.6875 
L 18.40625 54.6875 
L 18.40625 0 
L 9.421875 0 
z
M 9.421875 75.984375 
L 18.40625 75.984375 
L 18.40625 64.59375 
L 9.421875 64.59375 
z
" id="BitstreamVeraSans-Roman-69"/>
      <path d="M 9.8125 72.90625 
L 24.515625 72.90625 
L 43.109375 23.296875 
L 61.8125 72.90625 
L 76.515625 72.90625 
L 76.515625 0 
L 66.890625 0 
L 66.890625 64.015625 
L 48.09375 14.015625 
L 38.1875 14.015625 
L 19.390625 64.015625 
L 19.390625 0 
L 9.8125 0 
z
" id="BitstreamVeraSans-Roman-4d"/>
      <path d="M 45.40625 27.984375 
Q 45.40625 37.75 41.375 43.109375 
Q 37.359375 48.484375 30.078125 48.484375 
Q 22.859375 48.484375 18.828125 43.109375 
Q 14.796875 37.75 14.796875 27.984375 
Q 14.796875 18.265625 18.828125 12.890625 
Q 22.859375 7.515625 30.078125 7.515625 
Q 37.359375 7.515625 41.375 12.890625 
Q 45.40625 18.265625 45.40625 27.984375 
M 54.390625 6.78125 
Q 54.390625 -7.171875 48.1875 -13.984375 
Q 42 -20.796875 29.203125 -20.796875 
Q 24.46875 -20.796875 20.265625 -20.09375 
Q 16.0625 -19.390625 12.109375 -17.921875 
L 12.109375 -9.1875 
Q 16.0625 -11.328125 19.921875 -12.34375 
Q 23.78125 -13.375 27.78125 -13.375 
Q 36.625 -13.375 41.015625 -8.765625 
Q 45.40625 -4.15625 45.40625 5.171875 
L 45.40625 9.625 
Q 42.625 4.78125 38.28125 2.390625 
Q 33.9375 0 27.875 0 
Q 17.828125 0 11.671875 7.65625 
Q 5.515625 15.328125 5.515625 27.984375 
Q 5.515625 40.671875 11.671875 48.328125 
Q 17.828125 56 27.875 56 
Q 33.9375 56 38.28125 53.609375 
Q 42.625 51.21875 45.40625 46.390625 
L 45.40625 54.6875 
L 54.390625 54.6875 
z
" id="BitstreamVeraSans-Roman-67"/>
      <path d="M 56.203125 29.59375 
L 56.203125 25.203125 
L 14.890625 25.203125 
Q 15.484375 15.921875 20.484375 11.0625 
Q 25.484375 6.203125 34.421875 6.203125 
Q 39.59375 6.203125 44.453125 7.46875 
Q 49.3125 8.734375 54.109375 11.28125 
L 54.109375 2.78125 
Q 49.265625 0.734375 44.1875 -0.34375 
Q 39.109375 -1.421875 33.890625 -1.421875 
Q 20.796875 -1.421875 13.15625 6.1875 
Q 5.515625 13.8125 5.515625 26.8125 
Q 5.515625 40.234375 12.765625 48.109375 
Q 20.015625 56 32.328125 56 
Q 43.359375 56 49.78125 48.890625 
Q 56.203125 41.796875 56.203125 29.59375 
M 47.21875 32.234375 
Q 47.125 39.59375 43.09375 43.984375 
Q 39.0625 48.390625 32.421875 48.390625 
Q 24.90625 48.390625 20.390625 44.140625 
Q 15.875 39.890625 15.1875 32.171875 
z
" id="BitstreamVeraSans-Roman-65"/>
      <path d="M 48.78125 52.59375 
L 48.78125 44.1875 
Q 44.96875 46.296875 41.140625 47.34375 
Q 37.3125 48.390625 33.40625 48.390625 
Q 24.65625 48.390625 19.8125 42.84375 
Q 14.984375 37.3125 14.984375 27.296875 
Q 14.984375 17.28125 19.8125 11.734375 
Q 24.65625 6.203125 33.40625 6.203125 
Q 37.3125 6.203125 41.140625 7.25 
Q 44.96875 8.296875 48.78125 10.40625 
L 48.78125 2.09375 
Q 45.015625 0.34375 40.984375 -0.53125 
Q 36.96875 -1.421875 32.421875 -1.421875 
Q 20.0625 -1.421875 12.78125 6.34375 
Q 5.515625 14.109375 5.515625 27.296875 
Q 5.515625 40.671875 12.859375 48.328125 
Q 20.21875 56 33.015625 56 
Q 37.15625 56 41.109375 55.140625 
Q 45.0625 54.296875 48.78125 52.59375 
" id="BitstreamVeraSans-Roman-63"/>
      <path d="M 18.3125 70.21875 
L 18.3125 54.6875 
L 36.8125 54.6875 
L 36.8125 47.703125 
L 18.3125 47.703125 
L 18.3125 18.015625 
Q 18.3125 11.328125 20.140625 9.421875 
Q 21.96875 7.515625 27.59375 7.515625 
L 36.8125 7.515625 
L 36.8125 0 
L 27.59375 0 
Q 17.1875 0 13.234375 3.875 
Q 9.28125 7.765625 9.28125 18.015625 
L 9.28125 47.703125 
L 2.6875 47.703125 
L 2.6875 54.6875 
L 9.28125 54.6875 
L 9.28125 70.21875 
z
" id="BitstreamVeraSans-Roman-74"/>
     </defs>
     <g style="fill:#002b36;" transform="translate(241.2853125 418.531875)scale(0.12 -0.12)">
      <use xlink:href="#BitstreamVeraSans-Roman-4d"/>
      <use x="86.279296875" xlink:href="#BitstreamVeraSans-Roman-61"/>
      <use x="147.55859375" xlink:href="#BitstreamVeraSans-Roman-67"/>
      <use x="211.03515625" xlink:href="#BitstreamVeraSans-Roman-6e"/>
      <use x="274.4140625" xlink:href="#BitstreamVeraSans-Roman-65"/>
      <use x="335.9375" xlink:href="#BitstreamVeraSans-Roman-74"/>
      <use x="375.146484375" xlink:href="#BitstreamVeraSans-Roman-69"/>
      <use x="402.9296875" xlink:href="#BitstreamVeraSans-Roman-63"/>
      <use x="457.91015625" xlink:href="#BitstreamVeraSans-Roman-20"/>
      <use x="489.697265625" xlink:href="#BitstreamVeraSans-Roman-46"/>
      <use x="547.107421875" xlink:href="#BitstreamVeraSans-Roman-69"/>
      <use x="574.890625" xlink:href="#BitstreamVeraSans-Roman-65"/>
      <use x="636.4140625" xlink:href="#BitstreamVeraSans-Roman-6c"/>
      <use x="664.197265625" xlink:href="#BitstreamVeraSans-Roman-64"/>
      <use x="727.673828125" xlink:href="#BitstreamVeraSans-Roman-20"/>
      <use x="759.4609375" xlink:href="#BitstreamVeraSans-Roman-28"/>
      <use x="798.474609375" xlink:href="#BitstreamVeraSans-Roman-54"/>
      <use x="859.55859375" xlink:href="#BitstreamVeraSans-Roman-29"/>
     </g>
    </g>
   </g>
   <g id="matplotlib.axis_2">
    <g id="ytick_1">
     <g id="line2d_21">
      <defs>
       <path d="M 0 0 
L 4 0 
" id="m47d0b3f865" style="stroke:#002b36;stroke-width:0.5;"/>
      </defs>
      <g>
       <use style="fill:#002b36;stroke:#002b36;stroke-width:0.5;" x="72.0" xlink:href="#m47d0b3f865" y="388.8"/>
      </g>
     </g>
     <g id="line2d_22">
      <defs>
       <path d="M 0 0 
L -4 0 
" id="m60ce6dcad8" style="stroke:#002b36;stroke-width:0.5;"/>
      </defs>
      <g>
       <use style="fill:#002b36;stroke:#002b36;stroke-width:0.5;" x="518.4" xlink:href="#m60ce6dcad8" y="388.8"/>
      </g>
     </g>
     <g id="text_11">
      <!-- 0.0 -->
      <g style="fill:#002b36;" transform="translate(48.91625 392.11125)scale(0.12 -0.12)">
       <use xlink:href="#BitstreamVeraSans-Roman-30"/>
       <use x="63.623046875" xlink:href="#BitstreamVeraSans-Roman-2e"/>
       <use x="95.41015625" xlink:href="#BitstreamVeraSans-Roman-30"/>
      </g>
     </g>
    </g>
    <g id="ytick_2">
     <g id="line2d_23">
      <g>
       <use style="fill:#002b36;stroke:#002b36;stroke-width:0.5;" x="72.0" xlink:href="#m47d0b3f865" y="319.68"/>
      </g>
     </g>
     <g id="line2d_24">
      <g>
       <use style="fill:#002b36;stroke:#002b36;stroke-width:0.5;" x="518.4" xlink:href="#m60ce6dcad8" y="319.68"/>
      </g>
     </g>
     <g id="text_12">
      <!-- 0.5 -->
      <g style="fill:#002b36;" transform="translate(48.91625 322.99125)scale(0.12 -0.12)">
       <use xlink:href="#BitstreamVeraSans-Roman-30"/>
       <use x="63.623046875" xlink:href="#BitstreamVeraSans-Roman-2e"/>
       <use x="95.41015625" xlink:href="#BitstreamVeraSans-Roman-35"/>
      </g>
     </g>
    </g>
    <g id="ytick_3">
     <g id="line2d_25">
      <g>
       <use style="fill:#002b36;stroke:#002b36;stroke-width:0.5;" x="72.0" xlink:href="#m47d0b3f865" y="250.56"/>
      </g>
     </g>
     <g id="line2d_26">
      <g>
       <use style="fill:#002b36;stroke:#002b36;stroke-width:0.5;" x="518.4" xlink:href="#m60ce6dcad8" y="250.56"/>
      </g>
     </g>
     <g id="text_13">
      <!-- 1.0 -->
      <g style="fill:#002b36;" transform="translate(48.91625 253.87125)scale(0.12 -0.12)">
       <use xlink:href="#BitstreamVeraSans-Roman-31"/>
       <use x="63.623046875" xlink:href="#BitstreamVeraSans-Roman-2e"/>
       <use x="95.41015625" xlink:href="#BitstreamVeraSans-Roman-30"/>
      </g>
     </g>
    </g>
    <g id="ytick_4">
     <g id="line2d_27">
      <g>
       <use style="fill:#002b36;stroke:#002b36;stroke-width:0.5;" x="72.0" xlink:href="#m47d0b3f865" y="181.44"/>
      </g>
     </g>
     <g id="line2d_28">
      <g>
       <use style="fill:#002b36;stroke:#002b36;stroke-width:0.5;" x="518.4" xlink:href="#m60ce6dcad8" y="181.44"/>
      </g>
     </g>
     <g id="text_14">
      <!-- 1.5 -->
      <g style="fill:#002b36;" transform="translate(48.91625 184.75125)scale(0.12 -0.12)">
       <use xlink:href="#BitstreamVeraSans-Roman-31"/>
       <use x="63.623046875" xlink:href="#BitstreamVeraSans-Roman-2e"/>
       <use x="95.41015625" xlink:href="#BitstreamVeraSans-Roman-35"/>
      </g>
     </g>
    </g>
    <g id="ytick_5">
     <g id="line2d_29">
      <g>
       <use style="fill:#002b36;stroke:#002b36;stroke-width:0.5;" x="72.0" xlink:href="#m47d0b3f865" y="112.32"/>
      </g>
     </g>
     <g id="line2d_30">
      <g>
       <use style="fill:#002b36;stroke:#002b36;stroke-width:0.5;" x="518.4" xlink:href="#m60ce6dcad8" y="112.32"/>
      </g>
     </g>
     <g id="text_15">
      <!-- 2.0 -->
      <g style="fill:#002b36;" transform="translate(48.91625 115.63125)scale(0.12 -0.12)">
       <use xlink:href="#BitstreamVeraSans-Roman-32"/>
       <use x="63.623046875" xlink:href="#BitstreamVeraSans-Roman-2e"/>
       <use x="95.41015625" xlink:href="#BitstreamVeraSans-Roman-30"/>
      </g>
     </g>
    </g>
    <g id="ytick_6">
     <g id="line2d_31">
      <g>
       <use style="fill:#002b36;stroke:#002b36;stroke-width:0.5;" x="72.0" xlink:href="#m47d0b3f865" y="43.2"/>
      </g>
     </g>
     <g id="line2d_32">
      <g>
       <use style="fill:#002b36;stroke:#002b36;stroke-width:0.5;" x="518.4" xlink:href="#m60ce6dcad8" y="43.2"/>
      </g>
     </g>
     <g id="text_16">
      <!-- 2.5 -->
      <g style="fill:#002b36;" transform="translate(48.91625 46.51125)scale(0.12 -0.12)">
       <use xlink:href="#BitstreamVeraSans-Roman-32"/>
       <use x="63.623046875" xlink:href="#BitstreamVeraSans-Roman-2e"/>
       <use x="95.41015625" xlink:href="#BitstreamVeraSans-Roman-35"/>
      </g>
     </g>
    </g>
    <g id="text_17">
     <!-- Nonlocal resistance (mΩ) -->
     <defs>
      <path d="M 52 44.1875 
Q 55.375 50.25 60.0625 53.125 
Q 64.75 56 71.09375 56 
Q 79.640625 56 84.28125 50.015625 
Q 88.921875 44.046875 88.921875 33.015625 
L 88.921875 0 
L 79.890625 0 
L 79.890625 32.71875 
Q 79.890625 40.578125 77.09375 44.375 
Q 74.3125 48.1875 68.609375 48.1875 
Q 61.625 48.1875 57.5625 43.546875 
Q 53.515625 38.921875 53.515625 30.90625 
L 53.515625 0 
L 44.484375 0 
L 44.484375 32.71875 
Q 44.484375 40.625 41.703125 44.40625 
Q 38.921875 48.1875 33.109375 48.1875 
Q 26.21875 48.1875 22.15625 43.53125 
Q 18.109375 38.875 18.109375 30.90625 
L 18.109375 0 
L 9.078125 0 
L 9.078125 54.6875 
L 18.109375 54.6875 
L 18.109375 46.1875 
Q 21.1875 51.21875 25.484375 53.609375 
Q 29.78125 56 35.6875 56 
Q 41.65625 56 45.828125 52.96875 
Q 50 49.953125 52 44.1875 
" id="BitstreamVeraSans-Roman-6d"/>
      <path d="M 44.28125 53.078125 
L 44.28125 44.578125 
Q 40.484375 46.53125 36.375 47.5 
Q 32.28125 48.484375 27.875 48.484375 
Q 21.1875 48.484375 17.84375 46.4375 
Q 14.5 44.390625 14.5 40.28125 
Q 14.5 37.15625 16.890625 35.375 
Q 19.28125 33.59375 26.515625 31.984375 
L 29.59375 31.296875 
Q 39.15625 29.25 43.1875 25.515625 
Q 47.21875 21.78125 47.21875 15.09375 
Q 47.21875 7.46875 41.1875 3.015625 
Q 35.15625 -1.421875 24.609375 -1.421875 
Q 20.21875 -1.421875 15.453125 -0.5625 
Q 10.6875 0.296875 5.421875 2 
L 5.421875 11.28125 
Q 10.40625 8.6875 15.234375 7.390625 
Q 20.0625 6.109375 24.8125 6.109375 
Q 31.15625 6.109375 34.5625 8.28125 
Q 37.984375 10.453125 37.984375 14.40625 
Q 37.984375 18.0625 35.515625 20.015625 
Q 33.0625 21.96875 24.703125 23.78125 
L 21.578125 24.515625 
Q 13.234375 26.265625 9.515625 29.90625 
Q 5.8125 33.546875 5.8125 39.890625 
Q 5.8125 47.609375 11.28125 51.796875 
Q 16.75 56 26.8125 56 
Q 31.78125 56 36.171875 55.265625 
Q 40.578125 54.546875 44.28125 53.078125 
" id="BitstreamVeraSans-Roman-73"/>
      <path d="M 72.609375 8.6875 
L 72.609375 0 
L 43.3125 0 
L 43.3125 8.6875 
Q 51.953125 13.421875 56.78125 21.53125 
Q 61.625 29.640625 61.625 39.5 
Q 61.625 51.21875 55.171875 58.296875 
Q 48.734375 65.375 38.1875 65.375 
Q 27.640625 65.375 21.171875 58.265625 
Q 14.703125 51.171875 14.703125 39.5 
Q 14.703125 29.640625 19.5625 21.53125 
Q 24.421875 13.421875 33.109375 8.6875 
L 33.109375 0 
L 3.8125 0 
L 3.8125 8.6875 
L 19.390625 8.6875 
Q 11.671875 15.484375 8.125 22.75 
Q 4.59375 30.03125 4.59375 39.015625 
Q 4.59375 54.546875 13.9375 64.15625 
Q 23.296875 73.78125 38.1875 73.78125 
Q 52.984375 73.78125 62.375 64.1875 
Q 71.78125 54.59375 71.78125 39.5 
Q 71.78125 30.03125 68.3125 22.796875 
Q 64.84375 15.578125 56.984375 8.6875 
z
" id="BitstreamVeraSans-Roman-3a9"/>
      <path d="M 9.8125 72.90625 
L 23.09375 72.90625 
L 55.421875 11.921875 
L 55.421875 72.90625 
L 64.984375 72.90625 
L 64.984375 0 
L 51.703125 0 
L 19.390625 60.984375 
L 19.390625 0 
L 9.8125 0 
z
" id="BitstreamVeraSans-Roman-4e"/>
      <path d="M 30.609375 48.390625 
Q 23.390625 48.390625 19.1875 42.75 
Q 14.984375 37.109375 14.984375 27.296875 
Q 14.984375 17.484375 19.15625 11.84375 
Q 23.34375 6.203125 30.609375 6.203125 
Q 37.796875 6.203125 41.984375 11.859375 
Q 46.1875 17.53125 46.1875 27.296875 
Q 46.1875 37.015625 41.984375 42.703125 
Q 37.796875 48.390625 30.609375 48.390625 
M 30.609375 56 
Q 42.328125 56 49.015625 48.375 
Q 55.71875 40.765625 55.71875 27.296875 
Q 55.71875 13.875 49.015625 6.21875 
Q 42.328125 -1.421875 30.609375 -1.421875 
Q 18.84375 -1.421875 12.171875 6.21875 
Q 5.515625 13.875 5.515625 27.296875 
Q 5.515625 40.765625 12.171875 48.375 
Q 18.84375 56 30.609375 56 
" id="BitstreamVeraSans-Roman-6f"/>
      <path d="M 41.109375 46.296875 
Q 39.59375 47.171875 37.8125 47.578125 
Q 36.03125 48 33.890625 48 
Q 26.265625 48 22.1875 43.046875 
Q 18.109375 38.09375 18.109375 28.8125 
L 18.109375 0 
L 9.078125 0 
L 9.078125 54.6875 
L 18.109375 54.6875 
L 18.109375 46.1875 
Q 20.953125 51.171875 25.484375 53.578125 
Q 30.03125 56 36.53125 56 
Q 37.453125 56 38.578125 55.875 
Q 39.703125 55.765625 41.0625 55.515625 
z
" id="BitstreamVeraSans-Roman-72"/>
     </defs>
     <g style="fill:#002b36;" transform="translate(41.420625 291.7659375)rotate(-90.0)scale(0.12 -0.12)">
      <use xlink:href="#BitstreamVeraSans-Roman-4e"/>
      <use x="74.8046875" xlink:href="#BitstreamVeraSans-Roman-6f"/>
      <use x="135.986328125" xlink:href="#BitstreamVeraSans-Roman-6e"/>
      <use x="199.365234375" xlink:href="#BitstreamVeraSans-Roman-6c"/>
      <use x="227.1484375" xlink:href="#BitstreamVeraSans-Roman-6f"/>
      <use x="288.330078125" xlink:href="#BitstreamVeraSans-Roman-63"/>
      <use x="343.310546875" xlink:href="#BitstreamVeraSans-Roman-61"/>
      <use x="404.58984375" xlink:href="#BitstreamVeraSans-Roman-6c"/>
      <use x="432.373046875" xlink:href="#BitstreamVeraSans-Roman-20"/>
      <use x="464.16015625" xlink:href="#BitstreamVeraSans-Roman-72"/>
      <use x="505.2421875" xlink:href="#BitstreamVeraSans-Roman-65"/>
      <use x="566.765625" xlink:href="#BitstreamVeraSans-Roman-73"/>
      <use x="618.865234375" xlink:href="#BitstreamVeraSans-Roman-69"/>
      <use x="646.6484375" xlink:href="#BitstreamVeraSans-Roman-73"/>
      <use x="698.748046875" xlink:href="#BitstreamVeraSans-Roman-74"/>
      <use x="737.95703125" xlink:href="#BitstreamVeraSans-Roman-61"/>
      <use x="799.236328125" xlink:href="#BitstreamVeraSans-Roman-6e"/>
      <use x="862.615234375" xlink:href="#BitstreamVeraSans-Roman-63"/>
      <use x="917.595703125" xlink:href="#BitstreamVeraSans-Roman-65"/>
      <use x="979.119140625" xlink:href="#BitstreamVeraSans-Roman-20"/>
      <use x="1010.90625" xlink:href="#BitstreamVeraSans-Roman-28"/>
      <use x="1049.919921875" xlink:href="#BitstreamVeraSans-Roman-6d"/>
      <use x="1147.33203125" xlink:href="#BitstreamVeraSans-Roman-3a9"/>
      <use x="1223.748046875" xlink:href="#BitstreamVeraSans-Roman-29"/>
     </g>
    </g>
   </g>
  </g>
 </g>
 <defs>
  <clipPath id="pc179814c7c">
   <rect height="345.6" width="446.4" x="72.0" y="43.2"/>
  </clipPath>
 </defs>
</svg>
