<?xml version="1.0" encoding="utf-8" standalone="no"?>
<!DOCTYPE svg PUBLIC "-//W3C//DTD SVG 1.1//EN"
  "http://www.w3.org/Graphics/SVG/1.1/DTD/svg11.dtd">
<!-- Created with matplotlib (http://matplotlib.org/) -->
<svg height="432pt" version="1.1" viewBox="0 0 576 432" width="576pt" xmlns="http://www.w3.org/2000/svg" xmlns:xlink="http://www.w3.org/1999/xlink">
 <defs>
  <style type="text/css">
*{stroke-linecap:butt;stroke-linejoin:round;stroke-miterlimit:100000;}
  </style>
 </defs>
 <g id="figure_1">
  <g id="patch_1">
   <path d="M 0 432 
L 576 432 
L 576 0 
L 0 0 
L 0 432 
z
" style="fill:none;"/>
  </g>
  <g id="axes_1">
   <g id="patch_2">
    <path d="M 83.410313 181.920234 
L 533.370937 181.920234 
L 533.370937 27.279844 
L 83.410313 27.279844 
L 83.410313 181.920234 
z
" style="fill:none;"/>
   </g>
   <g id="line2d_1">
    <path clip-path="url(#p9e8d443b20)" d="M 83.410313 167.368354 
L 87.955369 167.354326 
L 92.500426 167.340294 
L 97.045483 167.326257 
L 101.59054 167.312215 
L 106.135597 167.298169 
L 110.680653 167.284119 
L 115.22571 167.270065 
L 119.770767 167.256005 
L 124.315824 167.241942 
L 128.860881 167.227874 
L 133.405938 167.213801 
L 137.950994 167.199725 
L 142.496051 167.185643 
L 147.041108 167.171557 
L 151.586165 167.157467 
L 156.131222 167.143372 
L 160.676278 167.129273 
L 165.221335 167.11517 
L 169.766392 167.101062 
L 174.311449 167.086949 
L 178.856506 167.072832 
L 183.401563 167.058711 
L 187.946619 167.044585 
L 192.491676 167.030454 
L 197.036733 167.01632 
L 201.58179 167.00218 
L 206.126847 166.988036 
L 210.671903 166.973888 
L 215.21696 166.959735 
L 219.762017 166.945578 
L 224.307074 166.931416 
L 228.852131 166.91725 
L 233.397187 166.90308 
L 237.942244 166.888904 
L 242.487301 166.874725 
L 247.032358 166.860541 
L 251.577415 166.846352 
L 256.122472 166.832159 
L 260.667528 166.817961 
L 265.212585 166.803759 
L 269.757642 166.789552 
L 274.302699 166.775341 
L 278.847756 166.761125 
L 283.392812 166.746905 
L 287.937869 166.73268 
L 292.482926 166.718451 
L 297.027983 166.704217 
L 301.57304 166.689979 
L 306.118097 166.675736 
L 310.663153 166.661489 
L 315.20821 166.647237 
L 319.753267 166.632981 
L 324.298324 166.61872 
L 328.843381 166.604454 
L 333.388438 166.590185 
L 337.933494 166.57591 
L 342.478551 166.561631 
L 347.023608 166.547347 
L 351.568665 166.533059 
L 356.113722 166.518767 
L 360.658778 166.504469 
L 365.203835 166.490168 
L 369.748892 166.475861 
L 374.293949 166.461551 
L 378.839006 166.447235 
L 383.384062 166.432915 
L 387.929119 166.418591 
L 392.474176 166.404262 
L 397.019233 166.389928 
L 401.56429 166.37559 
L 406.109347 166.361247 
L 410.654403 166.3469 
L 415.19946 166.332548 
L 419.744517 166.318191 
L 424.289574 166.30383 
L 428.834631 166.289464 
L 433.379687 166.275094 
L 437.924744 166.260719 
L 442.469801 166.24634 
L 447.014858 166.231956 
L 451.559915 166.217568 
L 456.104972 166.203174 
L 460.650028 166.188777 
L 465.195085 166.174374 
L 469.740142 166.159967 
L 474.285199 166.145556 
L 478.830256 166.13114 
L 483.375312 166.116719 
L 487.920369 166.102294 
L 492.465426 166.087864 
L 497.010483 166.073429 
L 501.55554 166.05899 
L 506.100597 166.044546 
L 510.645653 166.030098 
L 515.19071 166.015645 
L 519.735767 166.001187 
L 524.280824 165.986725 
L 528.825881 165.972258 
L 533.370937 165.957786 
" style="fill:none;stroke:#000000;stroke-linecap:square;stroke-width:2.0;"/>
   </g>
   <g id="line2d_2">
    <path clip-path="url(#p9e8d443b20)" d="M 83.410313 75.423168 
L 87.955369 75.40487 
L 92.500426 75.386567 
L 97.045483 75.36826 
L 101.59054 75.349949 
L 106.135597 75.331633 
L 110.680653 75.313313 
L 115.22571 75.294988 
L 119.770767 75.276659 
L 124.315824 75.258326 
L 128.860881 75.239988 
L 133.405938 75.221645 
L 137.950994 75.203298 
L 142.496051 75.184947 
L 147.041108 75.166591 
L 151.586165 75.14823 
L 156.131222 75.129865 
L 160.676278 75.111496 
L 165.221335 75.093122 
L 169.766392 75.074744 
L 174.311449 75.056361 
L 178.856506 75.037974 
L 183.401563 75.019582 
L 187.946619 75.001186 
L 192.491676 74.982785 
L 197.036733 74.96438 
L 201.58179 74.94597 
L 206.126847 74.927556 
L 210.671903 74.909137 
L 215.21696 74.890714 
L 219.762017 74.872286 
L 224.307074 74.853854 
L 228.852131 74.835418 
L 233.397187 74.816977 
L 237.942244 74.798531 
L 242.487301 74.780081 
L 247.032358 74.761626 
L 251.577415 74.743167 
L 256.122472 74.724703 
L 260.667528 74.706235 
L 265.212585 74.687762 
L 269.757642 74.669285 
L 274.302699 74.650803 
L 278.847756 74.632317 
L 283.392812 74.613826 
L 287.937869 74.595331 
L 292.482926 74.576831 
L 297.027983 74.558327 
L 301.57304 74.539818 
L 306.118097 74.521305 
L 310.663153 74.502787 
L 315.20821 74.484264 
L 319.753267 74.465737 
L 324.298324 74.447206 
L 328.843381 74.42867 
L 333.388438 74.410129 
L 337.933494 74.391584 
L 342.478551 74.373035 
L 347.023608 74.354481 
L 351.568665 74.335922 
L 356.113722 74.317359 
L 360.658778 74.298791 
L 365.203835 74.280218 
L 369.748892 74.261642 
L 374.293949 74.24306 
L 378.839006 74.224474 
L 383.384062 74.205884 
L 387.929119 74.187288 
L 392.474176 74.168689 
L 397.019233 74.150085 
L 401.56429 74.131476 
L 406.109347 74.112862 
L 410.654403 74.094245 
L 415.19946 74.075622 
L 419.744517 74.056995 
L 424.289574 74.038364 
L 428.834631 74.019727 
L 433.379687 74.001087 
L 437.924744 73.982441 
L 442.469801 73.963791 
L 447.014858 73.945137 
L 451.559915 73.926478 
L 456.104972 73.907814 
L 460.650028 73.889146 
L 465.195085 73.870473 
L 469.740142 73.851796 
L 474.285199 73.833114 
L 478.830256 73.814428 
L 483.375312 73.795736 
L 487.920369 73.777041 
L 492.465426 73.75834 
L 497.010483 73.739636 
L 501.55554 73.720926 
L 506.100597 73.702212 
L 510.645653 73.683493 
L 515.19071 73.66477 
L 519.735767 73.646042 
L 524.280824 73.62731 
L 528.825881 73.608573 
L 533.370937 73.589831 
" style="fill:none;stroke:#000000;stroke-dasharray:6.000000,6.000000;stroke-dashoffset:0.0;stroke-width:2.0;"/>
   </g>
   <g id="line2d_3">
    <path clip-path="url(#p9e8d443b20)" d="M 83.410313 122.530425 
L 87.955369 122.515325 
L 92.500426 122.50022 
L 97.045483 122.485112 
L 101.59054 122.47 
L 106.135597 122.454883 
L 110.680653 122.439763 
L 115.22571 122.424639 
L 119.770767 122.409511 
L 124.315824 122.394378 
L 128.860881 122.379242 
L 133.405938 122.364102 
L 137.950994 122.348957 
L 142.496051 122.333809 
L 147.041108 122.318657 
L 151.586165 122.3035 
L 156.131222 122.28834 
L 160.676278 122.273175 
L 165.221335 122.258007 
L 169.766392 122.242834 
L 174.311449 122.227658 
L 178.856506 122.212477 
L 183.401563 122.197293 
L 187.946619 122.182104 
L 192.491676 122.166911 
L 197.036733 122.151715 
L 201.58179 122.136514 
L 206.126847 122.121309 
L 210.671903 122.1061 
L 215.21696 122.090888 
L 219.762017 122.075671 
L 224.307074 122.06045 
L 228.852131 122.045225 
L 233.397187 122.029996 
L 237.942244 122.014763 
L 242.487301 121.999525 
L 247.032358 121.984284 
L 251.577415 121.969039 
L 256.122472 121.95379 
L 260.667528 121.938536 
L 265.212585 121.923279 
L 269.757642 121.908017 
L 274.302699 121.892752 
L 278.847756 121.877482 
L 283.392812 121.862209 
L 287.937869 121.846931 
L 292.482926 121.831649 
L 297.027983 121.816363 
L 301.57304 121.801073 
L 306.118097 121.785779 
L 310.663153 121.770481 
L 315.20821 121.755179 
L 319.753267 121.739873 
L 324.298324 121.724562 
L 328.843381 121.709248 
L 333.388438 121.693929 
L 337.933494 121.678607 
L 342.478551 121.66328 
L 347.023608 121.647949 
L 351.568665 121.632614 
L 356.113722 121.617275 
L 360.658778 121.601932 
L 365.203835 121.586585 
L 369.748892 121.571234 
L 374.293949 121.555879 
L 378.839006 121.540519 
L 383.384062 121.525156 
L 387.929119 121.509788 
L 392.474176 121.494416 
L 397.019233 121.479041 
L 401.56429 121.463661 
L 406.109347 121.448277 
L 410.654403 121.432888 
L 415.19946 121.417496 
L 419.744517 121.4021 
L 424.289574 121.386699 
L 428.834631 121.371295 
L 433.379687 121.355886 
L 437.924744 121.340473 
L 442.469801 121.325056 
L 447.014858 121.309635 
L 451.559915 121.29421 
L 456.104972 121.27878 
L 460.650028 121.263347 
L 465.195085 121.247909 
L 469.740142 121.232468 
L 474.285199 121.217022 
L 478.830256 121.201572 
L 483.375312 121.186118 
L 487.920369 121.170659 
L 492.465426 121.155197 
L 497.010483 121.13973 
L 501.55554 121.12426 
L 506.100597 121.108785 
L 510.645653 121.093306 
L 515.19071 121.077823 
L 519.735767 121.062335 
L 524.280824 121.046844 
L 528.825881 121.031348 
L 533.370937 121.015848 
" style="fill:none;stroke:#000000;stroke-dasharray:1.000000,3.000000;stroke-dashoffset:0.0;stroke-width:2.0;"/>
   </g>
   <g id="patch_3">
    <path d="M 83.410313 181.920234 
L 83.410313 27.279844 
" style="fill:none;stroke:#000000;stroke-linecap:square;stroke-linejoin:miter;"/>
   </g>
   <g id="patch_4">
    <path d="M 83.410313 181.920234 
L 533.370937 181.920234 
" style="fill:none;stroke:#000000;stroke-linecap:square;stroke-linejoin:miter;"/>
   </g>
   <g id="patch_5">
    <path d="M 83.410313 27.279844 
L 533.370937 27.279844 
" style="fill:none;stroke:#000000;stroke-linecap:square;stroke-linejoin:miter;"/>
   </g>
   <g id="patch_6">
    <path d="M 533.370937 181.920234 
L 533.370937 27.279844 
" style="fill:none;stroke:#000000;stroke-linecap:square;stroke-linejoin:miter;"/>
   </g>
   <g id="matplotlib.axis_1">
    <g id="ytick_1">
     <g id="line2d_4">
      <defs>
       <path d="M 0 0 
L 4 0 
" id="mcb0cc034ed" style="stroke:#000000;stroke-width:0.5;"/>
      </defs>
      <g>
       <use style="stroke:#000000;stroke-width:0.5;" x="83.4103125" xlink:href="#mcb0cc034ed" y="181.920234375"/>
      </g>
     </g>
     <g id="line2d_5">
      <defs>
       <path d="M 0 0 
L -4 0 
" id="madb3dd8b24" style="stroke:#000000;stroke-width:0.5;"/>
      </defs>
      <g>
       <use style="stroke:#000000;stroke-width:0.5;" x="533.3709375" xlink:href="#madb3dd8b24" y="181.920234375"/>
      </g>
     </g>
     <g id="text_1">
      <!-- 1.0 -->
      <defs>
       <path d="M 12.40625 8.296875 
L 28.515625 8.296875 
L 28.515625 63.921875 
L 10.984375 60.40625 
L 10.984375 69.390625 
L 28.421875 72.90625 
L 38.28125 72.90625 
L 38.28125 8.296875 
L 54.390625 8.296875 
L 54.390625 0 
L 12.40625 0 
z
" id="BitstreamVeraSans-Roman-31"/>
       <path d="M 31.78125 66.40625 
Q 24.171875 66.40625 20.328125 58.90625 
Q 16.5 51.421875 16.5 36.375 
Q 16.5 21.390625 20.328125 13.890625 
Q 24.171875 6.390625 31.78125 6.390625 
Q 39.453125 6.390625 43.28125 13.890625 
Q 47.125 21.390625 47.125 36.375 
Q 47.125 51.421875 43.28125 58.90625 
Q 39.453125 66.40625 31.78125 66.40625 
M 31.78125 74.21875 
Q 44.046875 74.21875 50.515625 64.515625 
Q 56.984375 54.828125 56.984375 36.375 
Q 56.984375 17.96875 50.515625 8.265625 
Q 44.046875 -1.421875 31.78125 -1.421875 
Q 19.53125 -1.421875 13.0625 8.265625 
Q 6.59375 17.96875 6.59375 36.375 
Q 6.59375 54.828125 13.0625 64.515625 
Q 19.53125 74.21875 31.78125 74.21875 
" id="BitstreamVeraSans-Roman-30"/>
       <path d="M 10.6875 12.40625 
L 21 12.40625 
L 21 0 
L 10.6875 0 
z
" id="BitstreamVeraSans-Roman-2e"/>
      </defs>
      <g transform="translate(50.7846875 186.887109375)scale(0.18 -0.18)">
       <use xlink:href="#BitstreamVeraSans-Roman-31"/>
       <use x="63.623046875" xlink:href="#BitstreamVeraSans-Roman-2e"/>
       <use x="95.41015625" xlink:href="#BitstreamVeraSans-Roman-30"/>
      </g>
     </g>
    </g>
    <g id="ytick_2">
     <g id="line2d_6">
      <g>
       <use style="stroke:#000000;stroke-width:0.5;" x="83.4103125" xlink:href="#mcb0cc034ed" y="130.3734375"/>
      </g>
     </g>
     <g id="line2d_7">
      <g>
       <use style="stroke:#000000;stroke-width:0.5;" x="533.3709375" xlink:href="#madb3dd8b24" y="130.3734375"/>
      </g>
     </g>
     <g id="text_2">
      <!-- 1.5 -->
      <defs>
       <path d="M 10.796875 72.90625 
L 49.515625 72.90625 
L 49.515625 64.59375 
L 19.828125 64.59375 
L 19.828125 46.734375 
Q 21.96875 47.46875 24.109375 47.828125 
Q 26.265625 48.1875 28.421875 48.1875 
Q 40.625 48.1875 47.75 41.5 
Q 54.890625 34.8125 54.890625 23.390625 
Q 54.890625 11.625 47.5625 5.09375 
Q 40.234375 -1.421875 26.90625 -1.421875 
Q 22.3125 -1.421875 17.546875 -0.640625 
Q 12.796875 0.140625 7.71875 1.703125 
L 7.71875 11.625 
Q 12.109375 9.234375 16.796875 8.0625 
Q 21.484375 6.890625 26.703125 6.890625 
Q 35.15625 6.890625 40.078125 11.328125 
Q 45.015625 15.765625 45.015625 23.390625 
Q 45.015625 31 40.078125 35.4375 
Q 35.15625 39.890625 26.703125 39.890625 
Q 22.75 39.890625 18.8125 39.015625 
Q 14.890625 38.140625 10.796875 36.28125 
z
" id="BitstreamVeraSans-Roman-35"/>
      </defs>
      <g transform="translate(50.7846875 135.3403125)scale(0.18 -0.18)">
       <use xlink:href="#BitstreamVeraSans-Roman-31"/>
       <use x="63.623046875" xlink:href="#BitstreamVeraSans-Roman-2e"/>
       <use x="95.41015625" xlink:href="#BitstreamVeraSans-Roman-35"/>
      </g>
     </g>
    </g>
    <g id="ytick_3">
     <g id="line2d_8">
      <g>
       <use style="stroke:#000000;stroke-width:0.5;" x="83.4103125" xlink:href="#mcb0cc034ed" y="78.826640625"/>
      </g>
     </g>
     <g id="line2d_9">
      <g>
       <use style="stroke:#000000;stroke-width:0.5;" x="533.3709375" xlink:href="#madb3dd8b24" y="78.826640625"/>
      </g>
     </g>
     <g id="text_3">
      <!-- 2.0 -->
      <defs>
       <path d="M 19.1875 8.296875 
L 53.609375 8.296875 
L 53.609375 0 
L 7.328125 0 
L 7.328125 8.296875 
Q 12.9375 14.109375 22.625 23.890625 
Q 32.328125 33.6875 34.8125 36.53125 
Q 39.546875 41.84375 41.421875 45.53125 
Q 43.3125 49.21875 43.3125 52.78125 
Q 43.3125 58.59375 39.234375 62.25 
Q 35.15625 65.921875 28.609375 65.921875 
Q 23.96875 65.921875 18.8125 64.3125 
Q 13.671875 62.703125 7.8125 59.421875 
L 7.8125 69.390625 
Q 13.765625 71.78125 18.9375 73 
Q 24.125 74.21875 28.421875 74.21875 
Q 39.75 74.21875 46.484375 68.546875 
Q 53.21875 62.890625 53.21875 53.421875 
Q 53.21875 48.921875 51.53125 44.890625 
Q 49.859375 40.875 45.40625 35.40625 
Q 44.1875 33.984375 37.640625 27.21875 
Q 31.109375 20.453125 19.1875 8.296875 
" id="BitstreamVeraSans-Roman-32"/>
      </defs>
      <g transform="translate(50.7846875 83.793515625)scale(0.18 -0.18)">
       <use xlink:href="#BitstreamVeraSans-Roman-32"/>
       <use x="63.623046875" xlink:href="#BitstreamVeraSans-Roman-2e"/>
       <use x="95.41015625" xlink:href="#BitstreamVeraSans-Roman-30"/>
      </g>
     </g>
    </g>
    <g id="ytick_4">
     <g id="line2d_10">
      <g>
       <use style="stroke:#000000;stroke-width:0.5;" x="83.4103125" xlink:href="#mcb0cc034ed" y="27.27984375"/>
      </g>
     </g>
     <g id="line2d_11">
      <g>
       <use style="stroke:#000000;stroke-width:0.5;" x="533.3709375" xlink:href="#madb3dd8b24" y="27.27984375"/>
      </g>
     </g>
     <g id="text_4">
      <!-- 2.5 -->
      <g transform="translate(50.7846875 32.24671875)scale(0.18 -0.18)">
       <use xlink:href="#BitstreamVeraSans-Roman-32"/>
       <use x="63.623046875" xlink:href="#BitstreamVeraSans-Roman-2e"/>
       <use x="95.41015625" xlink:href="#BitstreamVeraSans-Roman-35"/>
      </g>
     </g>
    </g>
    <g id="text_5">
     <!-- $\left| \left( c / ℏ \right) P_+\right|^2$ $\left(\mathregular{GeV}^2\right)$ -->
     <defs>
      <path d="M 53.203125 11.703125 
L 54.703125 10.703125 
Q 46.796875 -1 39.796875 -1 
Q 34.5 -1 34.5 4.59375 
Q 34.5 6.703125 36.90625 15.59375 
L 40.90625 30 
Q 41.796875 33.40625 41.796875 36.203125 
Q 41.796875 40.59375 38.09375 40.59375 
Q 35.703125 40.59375 32 37.046875 
Q 28.296875 33.5 24.09375 27.296875 
Q 20.703125 22.296875 18.5 16.890625 
Q 16.296875 11.5 13.09375 0 
L 4.703125 0 
L 17.40625 46.90625 
L 8 43.5 
L 8.90625 47.796875 
L 18.59375 51.296875 
L 20.5 57.296875 
Q 20.90625 58.5 20.90625 60.203125 
Q 20.90625 62.40625 15.203125 62.40625 
L 15.203125 63.90625 
Q 23.5 65.59375 30.90625 68.296875 
L 31.703125 68.09375 
Q 30.59375 64.796875 29.09375 59.296875 
L 27.796875 54.703125 
L 42.203125 60 
L 41 55.59375 
L 26.59375 50.40625 
L 19.59375 24.59375 
L 19.703125 24.59375 
Q 30.703125 46 41.59375 46 
Q 50.40625 46 50.40625 37.203125 
Q 50.40625 33.796875 49.296875 30.09375 
L 44.203125 12.203125 
Q 43.09375 8.5 43.09375 6.703125 
Q 43.09375 5 44.40625 5 
Q 47.5 5 53.203125 11.703125 
" id="STIXGeneral-Regular-210f"/>
      <path d="M 28.609375 0 
L 0.78125 72.90625 
L 11.078125 72.90625 
L 34.1875 11.53125 
L 57.328125 72.90625 
L 67.578125 72.90625 
L 39.796875 0 
z
" id="BitstreamVeraSans-Roman-56"/>
      <path d="M 4.890625 0 
Q 3.90625 0 3.90625 1.3125 
Q 3.953125 1.5625 4.09375 2.171875 
Q 4.25 2.78125 4.515625 3.140625 
Q 4.78125 3.515625 5.171875 3.515625 
Q 11.28125 3.515625 13.71875 4.203125 
Q 14.984375 4.640625 15.578125 6.890625 
L 29.296875 61.8125 
Q 29.5 62.796875 29.5 63.1875 
Q 29.5 64.265625 28.328125 64.40625 
Q 26.421875 64.796875 21.09375 64.796875 
Q 20.125 64.796875 20.125 66.109375 
Q 20.171875 66.359375 20.3125 66.96875 
Q 20.453125 67.578125 20.71875 67.9375 
Q 21 68.3125 21.390625 68.3125 
L 55.90625 68.3125 
Q 60.640625 68.3125 65.078125 66.625 
Q 69.53125 64.9375 72.359375 61.46875 
Q 75.203125 58.015625 75.203125 53.078125 
Q 75.203125 46.734375 70.734375 41.75 
Q 66.265625 36.765625 59.59375 33.984375 
Q 52.9375 31.203125 46.6875 31.203125 
L 30.421875 31.203125 
L 24.3125 6.5 
Q 24.125 5.515625 24.125 5.078125 
Q 24.125 4.6875 24.234375 4.421875 
Q 24.359375 4.15625 24.578125 4.078125 
Q 24.8125 4 25.296875 3.90625 
Q 27.203125 3.515625 32.515625 3.515625 
Q 33.5 3.515625 33.5 2.203125 
Q 33.15625 0.78125 32.953125 0.390625 
Q 32.765625 0 31.78125 0 
z
M 30.90625 34.1875 
L 44.921875 34.1875 
Q 54.640625 34.1875 59.71875 39.40625 
Q 62.3125 42 63.9375 46.875 
Q 65.578125 51.765625 65.578125 55.71875 
Q 65.578125 60.640625 61.8125 62.71875 
Q 58.0625 64.796875 52.484375 64.796875 
L 42.921875 64.796875 
Q 40.1875 64.796875 39.296875 64.328125 
Q 38.421875 63.875 37.703125 61.375 
z
" id="Cmmi10-50"/>
      <path d="M 56.203125 29.59375 
L 56.203125 25.203125 
L 14.890625 25.203125 
Q 15.484375 15.921875 20.484375 11.0625 
Q 25.484375 6.203125 34.421875 6.203125 
Q 39.59375 6.203125 44.453125 7.46875 
Q 49.3125 8.734375 54.109375 11.28125 
L 54.109375 2.78125 
Q 49.265625 0.734375 44.1875 -0.34375 
Q 39.109375 -1.421875 33.890625 -1.421875 
Q 20.796875 -1.421875 13.15625 6.1875 
Q 5.515625 13.8125 5.515625 26.8125 
Q 5.515625 40.234375 12.765625 48.109375 
Q 20.015625 56 32.328125 56 
Q 43.359375 56 49.78125 48.890625 
Q 56.203125 41.796875 56.203125 29.59375 
M 47.21875 32.234375 
Q 47.125 39.59375 43.09375 43.984375 
Q 39.0625 48.390625 32.421875 48.390625 
Q 24.90625 48.390625 20.390625 44.140625 
Q 15.875 39.890625 15.1875 32.171875 
z
" id="BitstreamVeraSans-Roman-65"/>
      <path d="M 11.71875 11.921875 
Q 11.71875 7.5625 13.9375 4.53125 
Q 16.15625 1.515625 20.3125 1.515625 
Q 26.265625 1.515625 31.75 4.25 
Q 37.25 6.984375 40.71875 11.8125 
Q 41.015625 12.109375 41.5 12.109375 
Q 42 12.109375 42.5 11.546875 
Q 43.015625 10.984375 43.015625 10.5 
Q 43.015625 10.109375 42.828125 9.90625 
Q 39.15625 4.78125 32.953125 1.828125 
Q 26.765625 -1.125 20.125 -1.125 
Q 15.328125 -1.125 11.671875 1.140625 
Q 8.015625 3.421875 6 7.21875 
Q 4 11.03125 4 15.828125 
Q 4 22.5625 7.765625 29.203125 
Q 11.53125 35.84375 17.78125 40.015625 
Q 24.03125 44.1875 30.90625 44.1875 
Q 35.40625 44.1875 38.984375 42.015625 
Q 42.578125 39.84375 42.578125 35.59375 
Q 42.578125 32.859375 40.984375 30.921875 
Q 39.40625 29 36.71875 29 
Q 35.109375 29 34 30 
Q 32.90625 31 32.90625 32.625 
Q 32.90625 34.96875 34.609375 36.625 
Q 36.328125 38.28125 38.625 38.28125 
L 38.8125 38.28125 
Q 37.640625 39.984375 35.421875 40.796875 
Q 33.203125 41.609375 30.8125 41.609375 
Q 24.953125 41.609375 20.546875 36.59375 
Q 16.15625 31.59375 13.9375 24.625 
Q 11.71875 17.671875 11.71875 11.921875 
" id="Cmmi10-63"/>
      <path id="BitstreamVeraSans-Roman-20"/>
      <path d="M 7.515625 23 
Q 6.6875 23 6.140625 23.625 
Q 5.609375 24.265625 5.609375 25 
Q 5.609375 25.734375 6.140625 26.359375 
Q 6.6875 27 7.515625 27 
L 36.921875 27 
L 36.921875 56.5 
Q 36.921875 57.28125 37.5 57.78125 
Q 38.09375 58.296875 38.921875 58.296875 
Q 39.65625 58.296875 40.28125 57.78125 
Q 40.921875 57.28125 40.921875 56.5 
L 40.921875 27 
L 70.3125 27 
Q 71.046875 27 71.578125 26.359375 
Q 72.125 25.734375 72.125 25 
Q 72.125 24.265625 71.578125 23.625 
Q 71.046875 23 70.3125 23 
L 40.921875 23 
L 40.921875 -6.5 
Q 40.921875 -7.28125 40.28125 -7.78125 
Q 39.65625 -8.296875 38.921875 -8.296875 
Q 38.09375 -8.296875 37.5 -7.78125 
Q 36.921875 -7.28125 36.921875 -6.5 
L 36.921875 23 
z
" id="Cmr10-2b"/>
      <path d="M 59.515625 10.40625 
L 59.515625 29.984375 
L 43.40625 29.984375 
L 43.40625 38.09375 
L 69.28125 38.09375 
L 69.28125 6.78125 
Q 63.578125 2.734375 56.6875 0.65625 
Q 49.8125 -1.421875 42 -1.421875 
Q 24.90625 -1.421875 15.25 8.5625 
Q 5.609375 18.5625 5.609375 36.375 
Q 5.609375 54.25 15.25 64.234375 
Q 24.90625 74.21875 42 74.21875 
Q 49.125 74.21875 55.546875 72.453125 
Q 61.96875 70.703125 67.390625 67.28125 
L 67.390625 56.78125 
Q 61.921875 61.421875 55.765625 63.765625 
Q 49.609375 66.109375 42.828125 66.109375 
Q 29.4375 66.109375 22.71875 58.640625 
Q 16.015625 51.171875 16.015625 36.375 
Q 16.015625 21.625 22.71875 14.15625 
Q 29.4375 6.6875 42.828125 6.6875 
Q 48.046875 6.6875 52.140625 7.59375 
Q 56.25 8.5 59.515625 10.40625 
" id="BitstreamVeraSans-Roman-47"/>
      <path d="M 4.984375 0 
L 4.984375 2.6875 
Q 4.984375 2.9375 5.171875 3.21875 
L 20.703125 20.40625 
Q 24.21875 24.21875 26.40625 26.796875 
Q 28.609375 29.390625 30.75 32.765625 
Q 32.90625 36.140625 34.15625 39.625 
Q 35.40625 43.109375 35.40625 47.015625 
Q 35.40625 51.125 33.890625 54.859375 
Q 32.375 58.59375 29.375 60.84375 
Q 26.375 63.09375 22.125 63.09375 
Q 17.78125 63.09375 14.3125 60.46875 
Q 10.84375 57.859375 9.421875 53.71875 
Q 9.8125 53.8125 10.5 53.8125 
Q 12.75 53.8125 14.328125 52.296875 
Q 15.921875 50.78125 15.921875 48.390625 
Q 15.921875 46.09375 14.328125 44.5 
Q 12.75 42.921875 10.5 42.921875 
Q 8.15625 42.921875 6.5625 44.546875 
Q 4.984375 46.1875 4.984375 48.390625 
Q 4.984375 52.15625 6.390625 55.4375 
Q 7.8125 58.734375 10.46875 61.296875 
Q 13.140625 63.875 16.484375 65.234375 
Q 19.828125 66.609375 23.578125 66.609375 
Q 29.296875 66.609375 34.21875 64.1875 
Q 39.15625 61.765625 42.03125 57.34375 
Q 44.921875 52.9375 44.921875 47.015625 
Q 44.921875 42.671875 43.015625 38.765625 
Q 41.109375 34.859375 38.125 31.65625 
Q 35.15625 28.46875 30.515625 24.40625 
Q 25.875 20.359375 24.421875 19 
L 13.09375 8.109375 
L 22.703125 8.109375 
Q 29.78125 8.109375 34.546875 8.21875 
Q 39.3125 8.34375 39.59375 8.59375 
Q 40.765625 9.859375 42 17.828125 
L 44.921875 17.828125 
L 42.09375 0 
z
" id="Cmr10-32"/>
      <path d="M 5.609375 -23 
Q 5.609375 -22.703125 5.71875 -22.609375 
L 40.484375 73.78125 
Q 40.671875 74.359375 41.15625 74.671875 
Q 41.65625 75 42.28125 75 
Q 43.171875 75 43.71875 74.453125 
Q 44.28125 73.921875 44.28125 73 
L 44.28125 72.609375 
L 9.515625 -23.78125 
Q 8.9375 -25 7.625 -25 
Q 6.78125 -25 6.1875 -24.40625 
Q 5.609375 -23.828125 5.609375 -23 
" id="Cmmi10-3d"/>
      <path d="M 11.921875 -23.1875 
L 11.921875 73.1875 
Q 11.921875 73.96875 12.5 74.484375 
Q 13.09375 75 13.921875 75 
Q 14.65625 75 15.28125 74.484375 
Q 15.921875 73.96875 15.921875 73.1875 
L 15.921875 -23.1875 
Q 15.921875 -23.96875 15.28125 -24.484375 
Q 14.65625 -25 13.921875 -25 
Q 13.09375 -25 12.5 -24.484375 
Q 11.921875 -23.96875 11.921875 -23.1875 
" id="Cmsy10-6a"/>
      <path d="M 31 -24.8125 
Q 25.4375 -20.40625 21.40625 -14.71875 
Q 17.390625 -9.03125 14.8125 -2.578125 
Q 12.25 3.859375 10.984375 10.890625 
Q 9.71875 17.921875 9.71875 25 
Q 9.71875 32.171875 10.984375 39.203125 
Q 12.25 46.234375 14.859375 52.734375 
Q 17.484375 59.234375 21.53125 64.890625 
Q 25.59375 70.5625 31 74.8125 
Q 31 75 31.5 75 
L 32.421875 75 
Q 32.71875 75 32.953125 74.734375 
Q 33.203125 74.46875 33.203125 74.125 
Q 33.203125 73.6875 33.015625 73.484375 
Q 28.125 68.703125 24.875 63.234375 
Q 21.625 57.765625 19.640625 51.578125 
Q 17.671875 45.40625 16.796875 38.78125 
Q 15.921875 32.171875 15.921875 25 
Q 15.921875 -6.78125 32.90625 -23.296875 
Q 33.203125 -23.578125 33.203125 -24.125 
Q 33.203125 -24.359375 32.9375 -24.671875 
Q 32.671875 -25 32.421875 -25 
L 31.5 -25 
Q 31 -25 31 -24.8125 
" id="Cmr10-28"/>
      <path d="M 6.5 -25 
Q 5.609375 -25 5.609375 -24.125 
Q 5.609375 -23.6875 5.8125 -23.484375 
Q 22.90625 -6.78125 22.90625 25 
Q 22.90625 56.78125 6 73.296875 
Q 5.609375 73.53125 5.609375 74.125 
Q 5.609375 74.46875 5.875 74.734375 
Q 6.15625 75 6.5 75 
L 7.421875 75 
Q 7.71875 75 7.90625 74.8125 
Q 15.09375 69.140625 19.875 61.03125 
Q 24.65625 52.9375 26.875 43.75 
Q 29.109375 34.578125 29.109375 25 
Q 29.109375 17.921875 27.90625 11.0625 
Q 26.703125 4.203125 24.09375 -2.453125 
Q 21.484375 -9.125 17.484375 -14.765625 
Q 13.484375 -20.40625 7.90625 -24.8125 
Q 7.71875 -25 7.421875 -25 
z
" id="Cmr10-29"/>
     </defs>
     <g transform="translate(41.2846875 179.480039063)rotate(-90.0)scale(0.18 -0.18)">
      <use transform="translate(0.0 0.109375)" xlink:href="#Cmsy10-6a"/>
      <use transform="translate(27.685546875 0.109375)" xlink:href="#Cmr10-28"/>
      <use transform="translate(66.50390625 0.109375)" xlink:href="#Cmmi10-63"/>
      <use transform="translate(109.716796875 0.109375)" xlink:href="#Cmmi10-3d"/>
      <use transform="translate(159.716796875 0.109375)" xlink:href="#STIXGeneral-Regular-210f"/>
      <use transform="translate(217.61679077148438 0.109375)" xlink:href="#Cmr10-29"/>
      <use transform="translate(256.4351501464844 0.109375)" xlink:href="#Cmmi10-50"/>
      <use transform="translate(332.9351501464844 -16.896874999999994)scale(0.7)" xlink:href="#Cmr10-2b"/>
      <use transform="translate(405.9833923339844 0.109375)" xlink:href="#Cmsy10-6a"/>
      <use transform="translate(438.1330798339844 38.3734375)scale(0.7)" xlink:href="#Cmr10-32"/>
      <use transform="translate(479.5104235839844 0.109375)" xlink:href="#BitstreamVeraSans-Roman-20"/>
      <use transform="translate(511.2975329589844 20.265625)scale(0.863125)" xlink:href="#Cmr10-28"/>
      <use transform="translate(544.8026293945313 0.109375)" xlink:href="#BitstreamVeraSans-Roman-47"/>
      <use transform="translate(622.2928637695313 0.109375)" xlink:href="#BitstreamVeraSans-Roman-65"/>
      <use transform="translate(683.8163012695313 0.109375)" xlink:href="#BitstreamVeraSans-Roman-56"/>
      <use transform="translate(756.6886450195314 38.3734375)scale(0.7)" xlink:href="#Cmr10-32"/>
      <use transform="translate(798.0659887695313 20.265625)scale(0.863125)" xlink:href="#Cmr10-29"/>
     </g>
    </g>
   </g>
   <g id="legend_1">
    <g id="patch_7">
     <path d="M 372.810938 142.959844 
L 522.570938 142.959844 
L 522.570938 38.079844 
L 372.810938 38.079844 
z
" style="fill:#ffffff;stroke:#000000;stroke-linejoin:miter;"/>
    </g>
    <g id="line2d_12">
     <path d="M 387.930938 56.159844 
L 418.170938 56.159844 
" style="fill:none;stroke:#000000;stroke-linecap:square;stroke-width:2.0;"/>
    </g>
    <g id="line2d_13"/>
    <g id="text_6">
     <!-- $\mathregular{MoSe_2}$ -->
     <defs>
      <path d="M 9.8125 72.90625 
L 24.515625 72.90625 
L 43.109375 23.296875 
L 61.8125 72.90625 
L 76.515625 72.90625 
L 76.515625 0 
L 66.890625 0 
L 66.890625 64.015625 
L 48.09375 14.015625 
L 38.1875 14.015625 
L 19.390625 64.015625 
L 19.390625 0 
L 9.8125 0 
z
" id="BitstreamVeraSans-Roman-4d"/>
      <path d="M 53.515625 70.515625 
L 53.515625 60.890625 
Q 47.90625 63.578125 42.921875 64.890625 
Q 37.9375 66.21875 33.296875 66.21875 
Q 25.25 66.21875 20.875 63.09375 
Q 16.5 59.96875 16.5 54.203125 
Q 16.5 49.359375 19.40625 46.890625 
Q 22.3125 44.4375 30.421875 42.921875 
L 36.375 41.703125 
Q 47.40625 39.59375 52.65625 34.296875 
Q 57.90625 29 57.90625 20.125 
Q 57.90625 9.515625 50.796875 4.046875 
Q 43.703125 -1.421875 29.984375 -1.421875 
Q 24.8125 -1.421875 18.96875 -0.25 
Q 13.140625 0.921875 6.890625 3.21875 
L 6.890625 13.375 
Q 12.890625 10.015625 18.65625 8.296875 
Q 24.421875 6.59375 29.984375 6.59375 
Q 38.421875 6.59375 43.015625 9.90625 
Q 47.609375 13.234375 47.609375 19.390625 
Q 47.609375 24.75 44.3125 27.78125 
Q 41.015625 30.8125 33.5 32.328125 
L 27.484375 33.5 
Q 16.453125 35.6875 11.515625 40.375 
Q 6.59375 45.0625 6.59375 53.421875 
Q 6.59375 63.09375 13.40625 68.65625 
Q 20.21875 74.21875 32.171875 74.21875 
Q 37.3125 74.21875 42.625 73.28125 
Q 47.953125 72.359375 53.515625 70.515625 
" id="BitstreamVeraSans-Roman-53"/>
      <path d="M 30.609375 48.390625 
Q 23.390625 48.390625 19.1875 42.75 
Q 14.984375 37.109375 14.984375 27.296875 
Q 14.984375 17.484375 19.15625 11.84375 
Q 23.34375 6.203125 30.609375 6.203125 
Q 37.796875 6.203125 41.984375 11.859375 
Q 46.1875 17.53125 46.1875 27.296875 
Q 46.1875 37.015625 41.984375 42.703125 
Q 37.796875 48.390625 30.609375 48.390625 
M 30.609375 56 
Q 42.328125 56 49.015625 48.375 
Q 55.71875 40.765625 55.71875 27.296875 
Q 55.71875 13.875 49.015625 6.21875 
Q 42.328125 -1.421875 30.609375 -1.421875 
Q 18.84375 -1.421875 12.171875 6.21875 
Q 5.515625 13.875 5.515625 27.296875 
Q 5.515625 40.765625 12.171875 48.375 
Q 18.84375 56 30.609375 56 
" id="BitstreamVeraSans-Roman-6f"/>
     </defs>
     <g transform="translate(441.9309375 63.71984375)scale(0.21599999999999997 -0.21599999999999997)">
      <use transform="translate(0.0 0.78125)" xlink:href="#BitstreamVeraSans-Roman-4d"/>
      <use transform="translate(86.279296875 0.78125)" xlink:href="#BitstreamVeraSans-Roman-6f"/>
      <use transform="translate(147.4609375 0.78125)" xlink:href="#BitstreamVeraSans-Roman-53"/>
      <use transform="translate(210.9375 0.78125)" xlink:href="#BitstreamVeraSans-Roman-65"/>
      <use transform="translate(277.9734375 -20.21875)scale(0.7)" xlink:href="#BitstreamVeraSans-Roman-32"/>
     </g>
    </g>
    <g id="line2d_14">
     <path d="M 387.930938 88.959844 
L 418.170938 88.959844 
" style="fill:none;stroke:#000000;stroke-dasharray:6.000000,6.000000;stroke-dashoffset:0.0;stroke-width:2.0;"/>
    </g>
    <g id="line2d_15"/>
    <g id="text_7">
     <!-- $\mathregular{WS_2}$ -->
     <defs>
      <path d="M 3.328125 72.90625 
L 13.28125 72.90625 
L 28.609375 11.28125 
L 43.890625 72.90625 
L 54.984375 72.90625 
L 70.3125 11.28125 
L 85.59375 72.90625 
L 95.609375 72.90625 
L 77.296875 0 
L 64.890625 0 
L 49.515625 63.28125 
L 33.984375 0 
L 21.578125 0 
z
" id="BitstreamVeraSans-Roman-57"/>
     </defs>
     <g transform="translate(441.9309375 96.51984375)scale(0.21599999999999997 -0.21599999999999997)">
      <use transform="translate(0.0 0.78125)" xlink:href="#BitstreamVeraSans-Roman-57"/>
      <use transform="translate(98.876953125 0.78125)" xlink:href="#BitstreamVeraSans-Roman-53"/>
      <use transform="translate(167.866015625 -20.21875)scale(0.7)" xlink:href="#BitstreamVeraSans-Roman-32"/>
     </g>
    </g>
    <g id="line2d_16">
     <path d="M 387.930938 121.759844 
L 418.170938 121.759844 
" style="fill:none;stroke:#000000;stroke-dasharray:1.000000,3.000000;stroke-dashoffset:0.0;stroke-width:2.0;"/>
    </g>
    <g id="line2d_17"/>
    <g id="text_8">
     <!-- $\mathregular{WSe_2}$ -->
     <g transform="translate(441.9309375 129.31984375)scale(0.21599999999999997 -0.21599999999999997)">
      <use transform="translate(0.0 0.78125)" xlink:href="#BitstreamVeraSans-Roman-57"/>
      <use transform="translate(98.876953125 0.78125)" xlink:href="#BitstreamVeraSans-Roman-53"/>
      <use transform="translate(162.353515625 0.78125)" xlink:href="#BitstreamVeraSans-Roman-65"/>
      <use transform="translate(229.389453125 -20.21875)scale(0.7)" xlink:href="#BitstreamVeraSans-Roman-32"/>
     </g>
    </g>
   </g>
  </g>
  <g id="axes_2">
   <g id="patch_8">
    <path d="M 83.410313 371.680313 
L 533.370937 371.680313 
L 533.370937 217.039922 
L 83.410313 217.039922 
L 83.410313 371.680313 
z
" style="fill:none;"/>
   </g>
   <g id="line2d_18">
    <path clip-path="url(#p67d8cd5690)" d="M 83.410313 351.539218 
L 87.955369 351.574746 
L 92.500426 351.610251 
L 97.045483 351.645734 
L 101.59054 351.681194 
L 106.135597 351.716632 
L 110.680653 351.752048 
L 115.22571 351.787442 
L 119.770767 351.822813 
L 124.315824 351.858161 
L 128.860881 351.893487 
L 133.405938 351.928791 
L 137.950994 351.964072 
L 142.496051 351.999331 
L 147.041108 352.034567 
L 151.586165 352.06978 
L 156.131222 352.104971 
L 160.676278 352.14014 
L 165.221335 352.175285 
L 169.766392 352.210408 
L 174.311449 352.245509 
L 178.856506 352.280587 
L 183.401563 352.315642 
L 187.946619 352.350674 
L 192.491676 352.385684 
L 197.036733 352.420671 
L 201.58179 352.455635 
L 206.126847 352.490576 
L 210.671903 352.525494 
L 215.21696 352.56039 
L 219.762017 352.595263 
L 224.307074 352.630112 
L 228.852131 352.664939 
L 233.397187 352.699743 
L 237.942244 352.734524 
L 242.487301 352.769282 
L 247.032358 352.804017 
L 251.577415 352.838729 
L 256.122472 352.873418 
L 260.667528 352.908084 
L 265.212585 352.942727 
L 269.757642 352.977347 
L 274.302699 353.011944 
L 278.847756 353.046517 
L 283.392812 353.081067 
L 287.937869 353.115595 
L 292.482926 353.150098 
L 297.027983 353.184579 
L 301.57304 353.219037 
L 306.118097 353.253471 
L 310.663153 353.287882 
L 315.20821 353.322269 
L 319.753267 353.356633 
L 324.298324 353.390974 
L 328.843381 353.425292 
L 333.388438 353.459586 
L 337.933494 353.493857 
L 342.478551 353.528104 
L 347.023608 353.562328 
L 351.568665 353.596528 
L 356.113722 353.630705 
L 360.658778 353.664858 
L 365.203835 353.698987 
L 369.748892 353.733094 
L 374.293949 353.767176 
L 378.839006 353.801235 
L 383.384062 353.83527 
L 387.929119 353.869282 
L 392.474176 353.90327 
L 397.019233 353.937234 
L 401.56429 353.971174 
L 406.109347 354.005091 
L 410.654403 354.038984 
L 415.19946 354.072853 
L 419.744517 354.106699 
L 424.289574 354.14052 
L 428.834631 354.174318 
L 433.379687 354.208092 
L 437.924744 354.241842 
L 442.469801 354.275568 
L 447.014858 354.30927 
L 451.559915 354.342948 
L 456.104972 354.376602 
L 460.650028 354.410232 
L 465.195085 354.443838 
L 469.740142 354.47742 
L 474.285199 354.510978 
L 478.830256 354.544512 
L 483.375312 354.578021 
L 487.920369 354.611507 
L 492.465426 354.644968 
L 497.010483 354.678405 
L 501.55554 354.711818 
L 506.100597 354.745207 
L 510.645653 354.778572 
L 515.19071 354.811912 
L 519.735767 354.845228 
L 524.280824 354.878519 
L 528.825881 354.911787 
L 533.370937 354.94503 
" style="fill:none;stroke:#000000;stroke-linecap:square;stroke-width:2.0;"/>
   </g>
   <g id="line2d_19">
    <path clip-path="url(#p67d8cd5690)" d="M 83.410313 248.873285 
L 87.955369 248.95904 
L 92.500426 249.044782 
L 97.045483 249.130511 
L 101.59054 249.216227 
L 106.135597 249.30193 
L 110.680653 249.387621 
L 115.22571 249.473298 
L 119.770767 249.558963 
L 124.315824 249.644615 
L 128.860881 249.730253 
L 133.405938 249.815879 
L 137.950994 249.901492 
L 142.496051 249.987092 
L 147.041108 250.072679 
L 151.586165 250.158252 
L 156.131222 250.243813 
L 160.676278 250.329361 
L 165.221335 250.414896 
L 169.766392 250.500417 
L 174.311449 250.585926 
L 178.856506 250.671421 
L 183.401563 250.756903 
L 187.946619 250.842373 
L 192.491676 250.927829 
L 197.036733 251.013272 
L 201.58179 251.098702 
L 206.126847 251.184118 
L 210.671903 251.269522 
L 215.21696 251.354912 
L 219.762017 251.440289 
L 224.307074 251.525653 
L 228.852131 251.611003 
L 233.397187 251.696341 
L 237.942244 251.781665 
L 242.487301 251.866975 
L 247.032358 251.952273 
L 251.577415 252.037557 
L 256.122472 252.122828 
L 260.667528 252.208086 
L 265.212585 252.29333 
L 269.757642 252.378561 
L 274.302699 252.463778 
L 278.847756 252.548982 
L 283.392812 252.634173 
L 287.937869 252.71935 
L 292.482926 252.804514 
L 297.027983 252.889665 
L 301.57304 252.974802 
L 306.118097 253.059925 
L 310.663153 253.145035 
L 315.20821 253.230132 
L 319.753267 253.315215 
L 324.298324 253.400285 
L 328.843381 253.485341 
L 333.388438 253.570383 
L 337.933494 253.655412 
L 342.478551 253.740428 
L 347.023608 253.82543 
L 351.568665 253.910418 
L 356.113722 253.995393 
L 360.658778 254.080354 
L 365.203835 254.165301 
L 369.748892 254.250235 
L 374.293949 254.335155 
L 378.839006 254.420061 
L 383.384062 254.504954 
L 387.929119 254.589833 
L 392.474176 254.674699 
L 397.019233 254.75955 
L 401.56429 254.844388 
L 406.109347 254.929212 
L 410.654403 255.014023 
L 415.19946 255.098819 
L 419.744517 255.183602 
L 424.289574 255.268371 
L 428.834631 255.353126 
L 433.379687 255.437867 
L 437.924744 255.522595 
L 442.469801 255.607309 
L 447.014858 255.692008 
L 451.559915 255.776694 
L 456.104972 255.861366 
L 460.650028 255.946024 
L 465.195085 256.030668 
L 469.740142 256.115299 
L 474.285199 256.199915 
L 478.830256 256.284517 
L 483.375312 256.369105 
L 487.920369 256.45368 
L 492.465426 256.53824 
L 497.010483 256.622786 
L 501.55554 256.707318 
L 506.100597 256.791837 
L 510.645653 256.876341 
L 515.19071 256.960831 
L 519.735767 257.045307 
L 524.280824 257.129769 
L 528.825881 257.214216 
L 533.370937 257.29865 
" style="fill:none;stroke:#000000;stroke-dasharray:6.000000,6.000000;stroke-dashoffset:0.0;stroke-width:2.0;"/>
   </g>
   <g id="line2d_20">
    <path clip-path="url(#p67d8cd5690)" d="M 83.410313 236.2827 
L 87.955369 236.367096 
L 92.500426 236.451485 
L 97.045483 236.535865 
L 101.59054 236.620238 
L 106.135597 236.704602 
L 110.680653 236.788959 
L 115.22571 236.873308 
L 119.770767 236.957649 
L 124.315824 237.041982 
L 128.860881 237.126306 
L 133.405938 237.210623 
L 137.950994 237.294932 
L 142.496051 237.379233 
L 147.041108 237.463526 
L 151.586165 237.547811 
L 156.131222 237.632088 
L 160.676278 237.716356 
L 165.221335 237.800617 
L 169.766392 237.88487 
L 174.311449 237.969114 
L 178.856506 238.053351 
L 183.401563 238.137579 
L 187.946619 238.221799 
L 192.491676 238.306011 
L 197.036733 238.390215 
L 201.58179 238.474411 
L 206.126847 238.558599 
L 210.671903 238.642778 
L 215.21696 238.726949 
L 219.762017 238.811112 
L 224.307074 238.895267 
L 228.852131 238.979414 
L 233.397187 239.063552 
L 237.942244 239.147682 
L 242.487301 239.231804 
L 247.032358 239.315918 
L 251.577415 239.400023 
L 256.122472 239.48412 
L 260.667528 239.568209 
L 265.212585 239.652289 
L 269.757642 239.736361 
L 274.302699 239.820425 
L 278.847756 239.90448 
L 283.392812 239.988527 
L 287.937869 240.072566 
L 292.482926 240.156596 
L 297.027983 240.240618 
L 301.57304 240.324632 
L 306.118097 240.408637 
L 310.663153 240.492633 
L 315.20821 240.576621 
L 319.753267 240.660601 
L 324.298324 240.744572 
L 328.843381 240.828535 
L 333.388438 240.912489 
L 337.933494 240.996435 
L 342.478551 241.080372 
L 347.023608 241.164301 
L 351.568665 241.248221 
L 356.113722 241.332133 
L 360.658778 241.416036 
L 365.203835 241.499931 
L 369.748892 241.583817 
L 374.293949 241.667694 
L 378.839006 241.751563 
L 383.384062 241.835423 
L 387.929119 241.919274 
L 392.474176 242.003117 
L 397.019233 242.086951 
L 401.56429 242.170777 
L 406.109347 242.254594 
L 410.654403 242.338402 
L 415.19946 242.422201 
L 419.744517 242.505992 
L 424.289574 242.589774 
L 428.834631 242.673547 
L 433.379687 242.757312 
L 437.924744 242.841068 
L 442.469801 242.924815 
L 447.014858 243.008553 
L 451.559915 243.092282 
L 456.104972 243.176003 
L 460.650028 243.259715 
L 465.195085 243.343417 
L 469.740142 243.427112 
L 474.285199 243.510797 
L 478.830256 243.594473 
L 483.375312 243.678141 
L 487.920369 243.761799 
L 492.465426 243.845449 
L 497.010483 243.92909 
L 501.55554 244.012722 
L 506.100597 244.096345 
L 510.645653 244.179959 
L 515.19071 244.263564 
L 519.735767 244.34716 
L 524.280824 244.430747 
L 528.825881 244.514325 
L 533.370937 244.597894 
" style="fill:none;stroke:#000000;stroke-dasharray:1.000000,3.000000;stroke-dashoffset:0.0;stroke-width:2.0;"/>
   </g>
   <g id="patch_9">
    <path d="M 83.410313 371.680313 
L 83.410313 217.039922 
" style="fill:none;stroke:#000000;stroke-linecap:square;stroke-linejoin:miter;"/>
   </g>
   <g id="patch_10">
    <path d="M 83.410313 371.680313 
L 533.370937 371.680313 
" style="fill:none;stroke:#000000;stroke-linecap:square;stroke-linejoin:miter;"/>
   </g>
   <g id="patch_11">
    <path d="M 83.410313 217.039922 
L 533.370937 217.039922 
" style="fill:none;stroke:#000000;stroke-linecap:square;stroke-linejoin:miter;"/>
   </g>
   <g id="patch_12">
    <path d="M 533.370937 371.680313 
L 533.370937 217.039922 
" style="fill:none;stroke:#000000;stroke-linecap:square;stroke-linejoin:miter;"/>
   </g>
   <g id="matplotlib.axis_2">
    <g id="xtick_1">
     <g id="line2d_21">
      <defs>
       <path d="M 0 0 
L 0 -4 
" id="m660b1ec5bb" style="stroke:#000000;stroke-width:0.5;"/>
      </defs>
      <g>
       <use style="stroke:#000000;stroke-width:0.5;" x="83.4103125" xlink:href="#m660b1ec5bb" y="371.6803125"/>
      </g>
     </g>
     <g id="line2d_22">
      <defs>
       <path d="M 0 0 
L 0 4 
" id="m6a5b014bea" style="stroke:#000000;stroke-width:0.5;"/>
      </defs>
      <g>
       <use style="stroke:#000000;stroke-width:0.5;" x="83.4103125" xlink:href="#m6a5b014bea" y="217.039921875"/>
      </g>
     </g>
     <g id="text_9">
      <!-- −0.010 -->
      <defs>
       <path d="M 10.59375 35.5 
L 73.1875 35.5 
L 73.1875 27.203125 
L 10.59375 27.203125 
z
" id="BitstreamVeraSans-Roman-2212"/>
      </defs>
      <g transform="translate(50.10328125 389.3575)scale(0.18 -0.18)">
       <use xlink:href="#BitstreamVeraSans-Roman-2212"/>
       <use x="83.7890625" xlink:href="#BitstreamVeraSans-Roman-30"/>
       <use x="147.412109375" xlink:href="#BitstreamVeraSans-Roman-2e"/>
       <use x="179.19921875" xlink:href="#BitstreamVeraSans-Roman-30"/>
       <use x="242.822265625" xlink:href="#BitstreamVeraSans-Roman-31"/>
       <use x="306.4453125" xlink:href="#BitstreamVeraSans-Roman-30"/>
      </g>
     </g>
    </g>
    <g id="xtick_2">
     <g id="line2d_23">
      <g>
       <use style="stroke:#000000;stroke-width:0.5;" x="308.390625" xlink:href="#m660b1ec5bb" y="371.6803125"/>
      </g>
     </g>
     <g id="line2d_24">
      <g>
       <use style="stroke:#000000;stroke-width:0.5;" x="308.390625" xlink:href="#m6a5b014bea" y="217.039921875"/>
      </g>
     </g>
     <g id="text_10">
      <!-- −0.005 -->
      <g transform="translate(275.08359375 389.3575)scale(0.18 -0.18)">
       <use xlink:href="#BitstreamVeraSans-Roman-2212"/>
       <use x="83.7890625" xlink:href="#BitstreamVeraSans-Roman-30"/>
       <use x="147.412109375" xlink:href="#BitstreamVeraSans-Roman-2e"/>
       <use x="179.19921875" xlink:href="#BitstreamVeraSans-Roman-30"/>
       <use x="242.822265625" xlink:href="#BitstreamVeraSans-Roman-30"/>
       <use x="306.4453125" xlink:href="#BitstreamVeraSans-Roman-35"/>
      </g>
     </g>
    </g>
    <g id="xtick_3">
     <g id="line2d_25">
      <g>
       <use style="stroke:#000000;stroke-width:0.5;" x="533.3709375" xlink:href="#m660b1ec5bb" y="371.6803125"/>
      </g>
     </g>
     <g id="line2d_26">
      <g>
       <use style="stroke:#000000;stroke-width:0.5;" x="533.3709375" xlink:href="#m6a5b014bea" y="217.039921875"/>
      </g>
     </g>
     <g id="text_11">
      <!-- 0.000 -->
      <g transform="translate(507.605625 389.3575)scale(0.18 -0.18)">
       <use xlink:href="#BitstreamVeraSans-Roman-30"/>
       <use x="63.623046875" xlink:href="#BitstreamVeraSans-Roman-2e"/>
       <use x="95.41015625" xlink:href="#BitstreamVeraSans-Roman-30"/>
       <use x="159.033203125" xlink:href="#BitstreamVeraSans-Roman-30"/>
       <use x="222.65625" xlink:href="#BitstreamVeraSans-Roman-30"/>
      </g>
     </g>
    </g>
    <g id="text_12">
     <!-- $E - \mu$ $\left(\mathregular{eV} \right)$ -->
     <defs>
      <path d="M 10.203125 23 
Q 9.375 23 8.828125 23.625 
Q 8.296875 24.265625 8.296875 25 
Q 8.296875 25.734375 8.828125 26.359375 
Q 9.375 27 10.203125 27 
L 67.578125 27 
Q 68.359375 27 68.875 26.359375 
Q 69.390625 25.734375 69.390625 25 
Q 69.390625 24.265625 68.875 23.625 
Q 68.359375 23 67.578125 23 
z
" id="Cmsy10-a1"/>
      <path d="M 2.78125 -18.796875 
Q 2.78125 -18.21875 2.875 -18.015625 
L 17.578125 41.015625 
Q 18.015625 42.4375 19.15625 43.3125 
Q 20.3125 44.1875 21.78125 44.1875 
Q 23.046875 44.1875 23.921875 43.421875 
Q 24.8125 42.671875 24.8125 41.40625 
Q 24.8125 41.109375 24.78125 40.9375 
Q 24.75 40.765625 24.703125 40.578125 
L 18.796875 17.1875 
Q 17.828125 13.03125 17.828125 10.015625 
Q 17.828125 6.296875 19.578125 3.90625 
Q 21.34375 1.515625 24.90625 1.515625 
Q 32.171875 1.515625 37.703125 10.59375 
Q 37.75 10.6875 37.765625 10.734375 
Q 37.796875 10.796875 37.796875 10.890625 
L 45.015625 39.890625 
Q 45.359375 41.21875 46.578125 42.15625 
Q 47.796875 43.109375 49.21875 43.109375 
Q 50.390625 43.109375 51.296875 42.328125 
Q 52.203125 41.546875 52.203125 40.28125 
Q 52.203125 39.703125 52.09375 39.5 
L 44.921875 10.6875 
Q 44.1875 7.859375 44.1875 5.8125 
Q 44.1875 1.515625 47.125 1.515625 
Q 50.25 1.515625 51.828125 5.375 
Q 53.421875 9.234375 54.59375 14.703125 
Q 54.78125 15.28125 55.421875 15.28125 
L 56.59375 15.28125 
Q 56.984375 15.28125 57.25 14.96875 
Q 57.515625 14.65625 57.515625 14.3125 
Q 55.765625 7.328125 53.6875 3.09375 
Q 51.609375 -1.125 46.921875 -1.125 
Q 43.609375 -1.125 41.046875 0.78125 
Q 38.484375 2.6875 37.703125 5.90625 
Q 35.203125 2.78125 31.859375 0.828125 
Q 28.515625 -1.125 24.8125 -1.125 
Q 18.5625 -1.125 14.984375 1.8125 
L 9.90625 -18.40625 
Q 9.625 -19.828125 8.453125 -20.703125 
Q 7.28125 -21.578125 5.8125 -21.578125 
Q 4.59375 -21.578125 3.6875 -20.8125 
Q 2.78125 -20.0625 2.78125 -18.796875 
" id="Cmmi10-b9"/>
      <path d="M 4.6875 0 
Q 3.71875 0 3.71875 1.3125 
Q 3.765625 1.5625 3.90625 2.171875 
Q 4.046875 2.78125 4.3125 3.140625 
Q 4.59375 3.515625 4.984375 3.515625 
Q 11.078125 3.515625 13.484375 4.203125 
Q 14.796875 4.640625 15.375 6.890625 
L 29.109375 61.8125 
Q 29.296875 62.796875 29.296875 63.1875 
Q 29.296875 64.265625 28.078125 64.40625 
Q 26.21875 64.796875 20.90625 64.796875 
Q 19.921875 64.796875 19.921875 66.109375 
Q 19.96875 66.359375 20.109375 66.96875 
Q 20.265625 67.578125 20.53125 67.9375 
Q 20.796875 68.3125 21.1875 68.3125 
L 75.390625 68.3125 
Q 76.421875 68.3125 76.421875 67 
L 74.03125 46.296875 
Q 74.03125 46.046875 73.65625 45.71875 
Q 73.296875 45.40625 73 45.40625 
L 72.125 45.40625 
Q 71.09375 45.40625 71.09375 46.6875 
Q 71.6875 51.5625 71.6875 53.90625 
Q 71.6875 57.90625 70.3125 60.125 
Q 68.953125 62.359375 66.671875 63.328125 
Q 64.40625 64.3125 61.640625 64.546875 
Q 58.890625 64.796875 54.390625 64.796875 
L 43.015625 64.796875 
Q 40.28125 64.796875 39.40625 64.328125 
Q 38.53125 63.875 37.796875 61.375 
L 31.78125 37.203125 
L 39.59375 37.203125 
Q 44.671875 37.203125 47.265625 37.90625 
Q 49.859375 38.625 51.359375 40.859375 
Q 52.875 43.109375 54.109375 48 
Q 54.203125 48.34375 54.46875 48.609375 
Q 54.734375 48.875 55.078125 48.875 
L 56 48.875 
Q 56.984375 48.875 56.984375 47.609375 
L 50.78125 22.90625 
Q 50.59375 22.015625 49.8125 22.015625 
L 48.875 22.015625 
Q 47.90625 22.015625 47.90625 23.296875 
Q 48.875 27.296875 48.875 29.203125 
Q 48.875 32.125 46.234375 32.90625 
Q 43.609375 33.6875 39.203125 33.6875 
L 30.90625 33.6875 
L 24.125 6.5 
Q 23.6875 5.28125 23.6875 4.296875 
Q 23.6875 3.515625 27.09375 3.515625 
L 39.203125 3.515625 
Q 46.4375 3.515625 50.921875 4.640625 
Q 55.421875 5.765625 58.375 8.21875 
Q 61.328125 10.6875 63.46875 14.5 
Q 65.625 18.3125 68.703125 25.59375 
Q 68.890625 26.21875 69.578125 26.21875 
L 70.515625 26.21875 
Q 70.90625 26.21875 71.1875 25.875 
Q 71.484375 25.53125 71.484375 25.09375 
Q 71.484375 24.90625 71.390625 24.703125 
L 61.078125 0.59375 
Q 60.890625 0 60.296875 0 
z
" id="Cmmi10-45"/>
     </defs>
     <g transform="translate(266.360625 411.5615625)scale(0.18 -0.18)">
      <use transform="translate(0.0 0.09375)" xlink:href="#Cmmi10-45"/>
      <use transform="translate(91.337890625 0.09375)" xlink:href="#Cmsy10-a1"/>
      <use transform="translate(186.58203125 0.09375)" xlink:href="#Cmmi10-b9"/>
      <use transform="translate(246.787109375 0.09375)" xlink:href="#BitstreamVeraSans-Roman-20"/>
      <use transform="translate(278.57421875 17.25)scale(0.74328125)" xlink:href="#Cmr10-28"/>
      <use transform="translate(307.4271697998047 0.09375)" xlink:href="#BitstreamVeraSans-Roman-65"/>
      <use transform="translate(368.9506072998047 0.09375)" xlink:href="#BitstreamVeraSans-Roman-56"/>
      <use transform="translate(437.3588104248047 17.25)scale(0.74328125)" xlink:href="#Cmr10-29"/>
     </g>
    </g>
   </g>
   <g id="matplotlib.axis_3">
    <g id="ytick_5">
     <g id="line2d_27">
      <g>
       <use style="stroke:#000000;stroke-width:0.5;" x="83.4103125" xlink:href="#mcb0cc034ed" y="371.6803125"/>
      </g>
     </g>
     <g id="line2d_28">
      <g>
       <use style="stroke:#000000;stroke-width:0.5;" x="533.3709375" xlink:href="#madb3dd8b24" y="371.6803125"/>
      </g>
     </g>
     <g id="text_13">
      <!-- 0.00 -->
      <g transform="translate(39.3321875 376.6471875)scale(0.18 -0.18)">
       <use xlink:href="#BitstreamVeraSans-Roman-30"/>
       <use x="63.623046875" xlink:href="#BitstreamVeraSans-Roman-2e"/>
       <use x="95.41015625" xlink:href="#BitstreamVeraSans-Roman-30"/>
       <use x="159.033203125" xlink:href="#BitstreamVeraSans-Roman-30"/>
      </g>
     </g>
    </g>
    <g id="ytick_6">
     <g id="line2d_29">
      <g>
       <use style="stroke:#000000;stroke-width:0.5;" x="83.4103125" xlink:href="#mcb0cc034ed" y="333.020214844"/>
      </g>
     </g>
     <g id="line2d_30">
      <g>
       <use style="stroke:#000000;stroke-width:0.5;" x="533.3709375" xlink:href="#madb3dd8b24" y="333.020214844"/>
      </g>
     </g>
     <g id="text_14">
      <!-- 0.01 -->
      <g transform="translate(39.3321875 337.987089844)scale(0.18 -0.18)">
       <use xlink:href="#BitstreamVeraSans-Roman-30"/>
       <use x="63.623046875" xlink:href="#BitstreamVeraSans-Roman-2e"/>
       <use x="95.41015625" xlink:href="#BitstreamVeraSans-Roman-30"/>
       <use x="159.033203125" xlink:href="#BitstreamVeraSans-Roman-31"/>
      </g>
     </g>
    </g>
    <g id="ytick_7">
     <g id="line2d_31">
      <g>
       <use style="stroke:#000000;stroke-width:0.5;" x="83.4103125" xlink:href="#mcb0cc034ed" y="294.360117188"/>
      </g>
     </g>
     <g id="line2d_32">
      <g>
       <use style="stroke:#000000;stroke-width:0.5;" x="533.3709375" xlink:href="#madb3dd8b24" y="294.360117188"/>
      </g>
     </g>
     <g id="text_15">
      <!-- 0.02 -->
      <g transform="translate(39.3321875 299.326992187)scale(0.18 -0.18)">
       <use xlink:href="#BitstreamVeraSans-Roman-30"/>
       <use x="63.623046875" xlink:href="#BitstreamVeraSans-Roman-2e"/>
       <use x="95.41015625" xlink:href="#BitstreamVeraSans-Roman-30"/>
       <use x="159.033203125" xlink:href="#BitstreamVeraSans-Roman-32"/>
      </g>
     </g>
    </g>
    <g id="ytick_8">
     <g id="line2d_33">
      <g>
       <use style="stroke:#000000;stroke-width:0.5;" x="83.4103125" xlink:href="#mcb0cc034ed" y="255.700019531"/>
      </g>
     </g>
     <g id="line2d_34">
      <g>
       <use style="stroke:#000000;stroke-width:0.5;" x="533.3709375" xlink:href="#madb3dd8b24" y="255.700019531"/>
      </g>
     </g>
     <g id="text_16">
      <!-- 0.03 -->
      <defs>
       <path d="M 40.578125 39.3125 
Q 47.65625 37.796875 51.625 33 
Q 55.609375 28.21875 55.609375 21.1875 
Q 55.609375 10.40625 48.1875 4.484375 
Q 40.765625 -1.421875 27.09375 -1.421875 
Q 22.515625 -1.421875 17.65625 -0.515625 
Q 12.796875 0.390625 7.625 2.203125 
L 7.625 11.71875 
Q 11.71875 9.328125 16.59375 8.109375 
Q 21.484375 6.890625 26.8125 6.890625 
Q 36.078125 6.890625 40.9375 10.546875 
Q 45.796875 14.203125 45.796875 21.1875 
Q 45.796875 27.640625 41.28125 31.265625 
Q 36.765625 34.90625 28.71875 34.90625 
L 20.21875 34.90625 
L 20.21875 43.015625 
L 29.109375 43.015625 
Q 36.375 43.015625 40.234375 45.921875 
Q 44.09375 48.828125 44.09375 54.296875 
Q 44.09375 59.90625 40.109375 62.90625 
Q 36.140625 65.921875 28.71875 65.921875 
Q 24.65625 65.921875 20.015625 65.03125 
Q 15.375 64.15625 9.8125 62.3125 
L 9.8125 71.09375 
Q 15.4375 72.65625 20.34375 73.4375 
Q 25.25 74.21875 29.59375 74.21875 
Q 40.828125 74.21875 47.359375 69.109375 
Q 53.90625 64.015625 53.90625 55.328125 
Q 53.90625 49.265625 50.4375 45.09375 
Q 46.96875 40.921875 40.578125 39.3125 
" id="BitstreamVeraSans-Roman-33"/>
      </defs>
      <g transform="translate(39.3321875 260.666894531)scale(0.18 -0.18)">
       <use xlink:href="#BitstreamVeraSans-Roman-30"/>
       <use x="63.623046875" xlink:href="#BitstreamVeraSans-Roman-2e"/>
       <use x="95.41015625" xlink:href="#BitstreamVeraSans-Roman-30"/>
       <use x="159.033203125" xlink:href="#BitstreamVeraSans-Roman-33"/>
      </g>
     </g>
    </g>
    <g id="ytick_9">
     <g id="line2d_35">
      <g>
       <use style="stroke:#000000;stroke-width:0.5;" x="83.4103125" xlink:href="#mcb0cc034ed" y="217.039921875"/>
      </g>
     </g>
     <g id="line2d_36">
      <g>
       <use style="stroke:#000000;stroke-width:0.5;" x="533.3709375" xlink:href="#madb3dd8b24" y="217.039921875"/>
      </g>
     </g>
     <g id="text_17">
      <!-- 0.04 -->
      <defs>
       <path d="M 37.796875 64.3125 
L 12.890625 25.390625 
L 37.796875 25.390625 
z
M 35.203125 72.90625 
L 47.609375 72.90625 
L 47.609375 25.390625 
L 58.015625 25.390625 
L 58.015625 17.1875 
L 47.609375 17.1875 
L 47.609375 0 
L 37.796875 0 
L 37.796875 17.1875 
L 4.890625 17.1875 
L 4.890625 26.703125 
z
" id="BitstreamVeraSans-Roman-34"/>
      </defs>
      <g transform="translate(39.3321875 222.006796875)scale(0.18 -0.18)">
       <use xlink:href="#BitstreamVeraSans-Roman-30"/>
       <use x="63.623046875" xlink:href="#BitstreamVeraSans-Roman-2e"/>
       <use x="95.41015625" xlink:href="#BitstreamVeraSans-Roman-30"/>
       <use x="159.033203125" xlink:href="#BitstreamVeraSans-Roman-34"/>
      </g>
     </g>
    </g>
    <g id="text_18">
     <!-- $\left| \left( c / ℏ \right) P_-\right|^2$ $\left(\mathregular{GeV}^2\right)$ -->
     <g transform="translate(29.8321875 369.240117188)rotate(-90.0)scale(0.18 -0.18)">
      <use transform="translate(0.0 0.109375)" xlink:href="#Cmsy10-6a"/>
      <use transform="translate(27.685546875 0.109375)" xlink:href="#Cmr10-28"/>
      <use transform="translate(66.50390625 0.109375)" xlink:href="#Cmmi10-63"/>
      <use transform="translate(109.716796875 0.109375)" xlink:href="#Cmmi10-3d"/>
      <use transform="translate(159.716796875 0.109375)" xlink:href="#STIXGeneral-Regular-210f"/>
      <use transform="translate(217.61679077148438 0.109375)" xlink:href="#Cmr10-29"/>
      <use transform="translate(256.4351501464844 0.109375)" xlink:href="#Cmmi10-50"/>
      <use transform="translate(332.9351501464844 -16.896874999999994)scale(0.7)" xlink:href="#Cmsy10-a1"/>
      <use transform="translate(405.9833923339844 0.109375)" xlink:href="#Cmsy10-6a"/>
      <use transform="translate(438.1330798339844 38.3734375)scale(0.7)" xlink:href="#Cmr10-32"/>
      <use transform="translate(479.5104235839844 0.109375)" xlink:href="#BitstreamVeraSans-Roman-20"/>
      <use transform="translate(511.2975329589844 20.265625)scale(0.863125)" xlink:href="#Cmr10-28"/>
      <use transform="translate(544.8026293945313 0.109375)" xlink:href="#BitstreamVeraSans-Roman-47"/>
      <use transform="translate(622.2928637695313 0.109375)" xlink:href="#BitstreamVeraSans-Roman-65"/>
      <use transform="translate(683.8163012695313 0.109375)" xlink:href="#BitstreamVeraSans-Roman-56"/>
      <use transform="translate(756.6886450195314 38.3734375)scale(0.7)" xlink:href="#Cmr10-32"/>
      <use transform="translate(798.0659887695313 20.265625)scale(0.863125)" xlink:href="#Cmr10-29"/>
     </g>
    </g>
   </g>
  </g>
 </g>
 <defs>
  <clipPath id="p67d8cd5690">
   <rect height="154.640390625" width="449.960625" x="83.4103125" y="217.039921875"/>
  </clipPath>
  <clipPath id="p9e8d443b20">
   <rect height="154.640390625" width="449.960625" x="83.4103125" y="27.27984375"/>
  </clipPath>
 </defs>
</svg>
